%TF.GenerationSoftware,KiCad,Pcbnew,(5.1.10-1-10_14)*%
%TF.CreationDate,2021-07-17T22:45:04-07:00*%
%TF.ProjectId,BarixAnalogDB9-RJ45,42617269-7841-46e6-916c-6f674442392d,rev?*%
%TF.SameCoordinates,Original*%
%TF.FileFunction,Copper,L1,Top*%
%TF.FilePolarity,Positive*%
%FSLAX46Y46*%
G04 Gerber Fmt 4.6, Leading zero omitted, Abs format (unit mm)*
G04 Created by KiCad (PCBNEW (5.1.10-1-10_14)) date 2021-07-17 22:45:04*
%MOMM*%
%LPD*%
G01*
G04 APERTURE LIST*
%TA.AperFunction,ComponentPad*%
%ADD10C,1.408000*%
%TD*%
%TA.AperFunction,ComponentPad*%
%ADD11C,2.400000*%
%TD*%
%TA.AperFunction,ComponentPad*%
%ADD12R,1.600000X1.600000*%
%TD*%
%TA.AperFunction,ComponentPad*%
%ADD13C,1.600000*%
%TD*%
%TA.AperFunction,ComponentPad*%
%ADD14C,4.000000*%
%TD*%
%TA.AperFunction,ComponentPad*%
%ADD15R,1.700000X1.700000*%
%TD*%
%TA.AperFunction,ComponentPad*%
%ADD16O,1.700000X1.700000*%
%TD*%
%TA.AperFunction,Conductor*%
%ADD17C,0.250000*%
%TD*%
%TA.AperFunction,Conductor*%
%ADD18C,0.254000*%
%TD*%
%TA.AperFunction,Conductor*%
%ADD19C,0.100000*%
%TD*%
G04 APERTURE END LIST*
D10*
%TO.P,J1,B2*%
%TO.N,Net-(J1-PadB2)*%
X152687000Y-100203000D03*
%TO.P,J1,B4*%
%TO.N,Net-(J1-PadB4)*%
X152687000Y-97663000D03*
%TO.P,J1,B6*%
%TO.N,Net-(J1-PadB6)*%
X152687000Y-95123000D03*
%TO.P,J1,B8*%
%TO.N,N/C*%
X152687000Y-92583000D03*
%TO.P,J1,B7*%
X155227000Y-93853000D03*
%TO.P,J1,B5*%
X155227000Y-96393000D03*
%TO.P,J1,B3*%
%TO.N,Net-(J1-PadB3)*%
X155227000Y-98933000D03*
%TO.P,J1,B1*%
%TO.N,Net-(J1-PadB1)*%
X155227000Y-101473000D03*
D11*
%TO.P,J1,S5*%
%TO.N,GND*%
X166147000Y-105533000D03*
%TO.P,J1,S6*%
X166147000Y-88523000D03*
D10*
%TO.P,J1,A7*%
%TO.N,N/C*%
X146087000Y-100203000D03*
%TO.P,J1,A5*%
X146087000Y-97663000D03*
%TO.P,J1,A3*%
%TO.N,Net-(J1-PadA3)*%
X146087000Y-95123000D03*
%TO.P,J1,A1*%
%TO.N,Net-(J1-PadA1)*%
X146087000Y-92583000D03*
%TO.P,J1,A2*%
%TO.N,Net-(J1-PadA2)*%
X148627000Y-93853000D03*
%TO.P,J1,A4*%
%TO.N,Net-(J1-PadA4)*%
X148627000Y-96393000D03*
%TO.P,J1,A6*%
%TO.N,Net-(J1-PadA6)*%
X148627000Y-98933000D03*
%TO.P,J1,A8*%
%TO.N,N/C*%
X148627000Y-101473000D03*
D11*
%TO.P,J1,S1*%
%TO.N,GND*%
X146087000Y-105533000D03*
%TO.P,J1,S3*%
X152437000Y-104773000D03*
%TO.P,J1,S4*%
X155737000Y-89283000D03*
%TO.P,J1,S2*%
X150147000Y-88523000D03*
%TD*%
D12*
%TO.P,J2,1*%
%TO.N,Net-(J1-PadA1)*%
X128027001Y-91460339D03*
D13*
%TO.P,J2,2*%
%TO.N,Net-(J1-PadA2)*%
X128027001Y-94230339D03*
%TO.P,J2,3*%
%TO.N,Net-(J2-Pad3)*%
X128027001Y-97000339D03*
%TO.P,J2,4*%
%TO.N,Net-(J1-PadB3)*%
X128027001Y-99770339D03*
%TO.P,J2,5*%
%TO.N,Net-(J1-PadB6)*%
X128027001Y-102540339D03*
%TO.P,J2,6*%
%TO.N,Net-(J1-PadA3)*%
X125187001Y-92845339D03*
%TO.P,J2,7*%
%TO.N,Net-(J1-PadA6)*%
X125187001Y-95615339D03*
%TO.P,J2,8*%
%TO.N,Net-(J1-PadB1)*%
X125187001Y-98385339D03*
%TO.P,J2,9*%
%TO.N,Net-(J1-PadB2)*%
X125187001Y-101155339D03*
D14*
%TO.P,J2,0*%
%TO.N,GND*%
X126607001Y-84500339D03*
X126607001Y-109500339D03*
%TD*%
D15*
%TO.P,JP1,1*%
%TO.N,Net-(J1-PadA4)*%
X137922000Y-104140000D03*
D16*
%TO.P,JP1,2*%
%TO.N,Net-(J2-Pad3)*%
X135382000Y-104140000D03*
%TD*%
%TO.P,JP2,2*%
%TO.N,Net-(J2-Pad3)*%
X135382000Y-89916000D03*
D15*
%TO.P,JP2,1*%
%TO.N,Net-(J1-PadB4)*%
X137922000Y-89916000D03*
%TD*%
D17*
%TO.N,Net-(J1-PadB2)*%
X128567002Y-98645338D02*
X126565632Y-98645338D01*
X125187001Y-100023969D02*
X125187001Y-101155339D01*
X129095663Y-99173999D02*
X128567002Y-98645338D01*
X152687000Y-100203000D02*
X147609922Y-100203000D01*
X147609922Y-100203000D02*
X146580921Y-99173999D01*
X146580921Y-99173999D02*
X129095663Y-99173999D01*
X126565632Y-98645338D02*
X125187001Y-100023969D01*
%TO.N,Net-(J1-PadB4)*%
X146212922Y-89916000D02*
X137922000Y-89916000D01*
X151657999Y-95361077D02*
X146212922Y-89916000D01*
X151657999Y-96633999D02*
X151657999Y-95361077D01*
X152687000Y-97663000D02*
X151657999Y-96633999D01*
%TO.N,Net-(J1-PadB6)*%
X143846011Y-102952011D02*
X143256000Y-102362000D01*
X152687000Y-95123000D02*
X152687000Y-96118606D01*
X156706011Y-98889090D02*
X156706010Y-102153322D01*
X155720921Y-97903999D02*
X156706011Y-98889090D01*
X154472393Y-97903999D02*
X155720921Y-97903999D01*
X156706010Y-102153322D02*
X155907321Y-102952011D01*
X152687000Y-96118606D02*
X154472393Y-97903999D01*
X143256000Y-102362000D02*
X128205340Y-102362000D01*
X128205340Y-102362000D02*
X128027001Y-102540339D01*
X155907321Y-102952011D02*
X143846011Y-102952011D01*
%TO.N,Net-(J1-PadB3)*%
X128218339Y-99770339D02*
X128027001Y-99770339D01*
X130302000Y-101854000D02*
X128218339Y-99770339D01*
X155720922Y-102502000D02*
X144032410Y-102502000D01*
X144032410Y-102502000D02*
X143384410Y-101854000D01*
X143384410Y-101854000D02*
X130302000Y-101854000D01*
X155227000Y-98933000D02*
X156256000Y-99962001D01*
X156256000Y-99962001D02*
X156256000Y-101966922D01*
X156256000Y-101966922D02*
X155720922Y-102502000D01*
%TO.N,Net-(J1-PadB1)*%
X124062000Y-99510340D02*
X125187001Y-98385339D01*
X128567002Y-95875338D02*
X127112002Y-95875338D01*
X153923605Y-99173999D02*
X150390921Y-99173999D01*
X149120921Y-97903999D02*
X148133079Y-97903999D01*
X124647000Y-94490338D02*
X124062000Y-95075338D01*
X146689418Y-96460338D02*
X129152002Y-96460338D01*
X129152002Y-96460338D02*
X128567002Y-95875338D01*
X125727002Y-94490338D02*
X124647000Y-94490338D01*
X155227000Y-100477394D02*
X153923605Y-99173999D01*
X150390921Y-99173999D02*
X149120921Y-97903999D01*
X124062000Y-95075338D02*
X124062000Y-97260338D01*
X148133079Y-97903999D02*
X146689418Y-96460338D01*
X124062000Y-97260338D02*
X125187001Y-98385339D01*
X155227000Y-101473000D02*
X155227000Y-100477394D01*
X127112002Y-95875338D02*
X125727002Y-94490338D01*
%TO.N,Net-(J1-PadA3)*%
X125187001Y-93055341D02*
X125187001Y-92845339D01*
X146087000Y-95123000D02*
X145784673Y-95425327D01*
X145784673Y-95425327D02*
X127556987Y-95425327D01*
X127556987Y-95425327D02*
X125187001Y-93055341D01*
%TO.N,Net-(J1-PadA1)*%
X129149662Y-92583000D02*
X128027001Y-91460339D01*
X146087000Y-92583000D02*
X129149662Y-92583000D01*
%TO.N,Net-(J1-PadA2)*%
X128404340Y-93853000D02*
X128027001Y-94230339D01*
X148627000Y-93853000D02*
X128404340Y-93853000D01*
%TO.N,Net-(J1-PadA6)*%
X129282062Y-98723988D02*
X128683414Y-98125340D01*
X148627000Y-98933000D02*
X148417988Y-98723988D01*
X128683414Y-98125340D02*
X126565632Y-98125340D01*
X148417988Y-98723988D02*
X129282062Y-98723988D01*
X126565632Y-98125340D02*
X125187001Y-96746709D01*
X125187001Y-96746709D02*
X125187001Y-95615339D01*
%TD*%
D18*
%TO.N,GND*%
X129896001Y-86835571D02*
X129892807Y-86868000D01*
X129905550Y-86997383D01*
X129943290Y-87121793D01*
X130004575Y-87236450D01*
X130087052Y-87336948D01*
X130187550Y-87419425D01*
X130302207Y-87480710D01*
X130426617Y-87518450D01*
X130523581Y-87528000D01*
X130556000Y-87531193D01*
X130588419Y-87528000D01*
X148623402Y-87528000D01*
X148584164Y-87544514D01*
X148423301Y-87868210D01*
X148328678Y-88217069D01*
X148303933Y-88577684D01*
X148350015Y-88936198D01*
X148465154Y-89278833D01*
X148584164Y-89501486D01*
X148869020Y-89621374D01*
X149967395Y-88523000D01*
X149953252Y-88508858D01*
X150132858Y-88329252D01*
X150147000Y-88343395D01*
X150161142Y-88329252D01*
X150340748Y-88508858D01*
X150326605Y-88523000D01*
X151424980Y-89621374D01*
X151709836Y-89501486D01*
X151791238Y-89337684D01*
X153893933Y-89337684D01*
X153940015Y-89696198D01*
X154055154Y-90038833D01*
X154174164Y-90261486D01*
X154459020Y-90381374D01*
X155557395Y-89283000D01*
X155916605Y-89283000D01*
X157014980Y-90381374D01*
X157299836Y-90261486D01*
X157460699Y-89937790D01*
X157555322Y-89588931D01*
X157580067Y-89228316D01*
X157533985Y-88869802D01*
X157418846Y-88527167D01*
X157299836Y-88304514D01*
X157014980Y-88184626D01*
X155916605Y-89283000D01*
X155557395Y-89283000D01*
X154459020Y-88184626D01*
X154174164Y-88304514D01*
X154013301Y-88628210D01*
X153918678Y-88977069D01*
X153893933Y-89337684D01*
X151791238Y-89337684D01*
X151870699Y-89177790D01*
X151965322Y-88828931D01*
X151990067Y-88468316D01*
X151943985Y-88109802D01*
X151828846Y-87767167D01*
X151709836Y-87544514D01*
X151670598Y-87528000D01*
X155198861Y-87528000D01*
X154981167Y-87601154D01*
X154758514Y-87720164D01*
X154638626Y-88005020D01*
X155737000Y-89103395D01*
X156835374Y-88005020D01*
X156715486Y-87720164D01*
X156391790Y-87559301D01*
X156276389Y-87528000D01*
X164623402Y-87528000D01*
X164584164Y-87544514D01*
X164423301Y-87868210D01*
X164328678Y-88217069D01*
X164303933Y-88577684D01*
X164350015Y-88936198D01*
X164465154Y-89278833D01*
X164584164Y-89501486D01*
X164869020Y-89621374D01*
X165967395Y-88523000D01*
X165953252Y-88508858D01*
X166132858Y-88329252D01*
X166147000Y-88343395D01*
X166161142Y-88329252D01*
X166340748Y-88508858D01*
X166326605Y-88523000D01*
X167424980Y-89621374D01*
X167709836Y-89501486D01*
X167870699Y-89177790D01*
X167965322Y-88828931D01*
X167990067Y-88468316D01*
X167943985Y-88109802D01*
X167828846Y-87767167D01*
X167709836Y-87544514D01*
X167670598Y-87528000D01*
X172314000Y-87528000D01*
X172314001Y-106528000D01*
X167670598Y-106528000D01*
X167709836Y-106511486D01*
X167870699Y-106187790D01*
X167965322Y-105838931D01*
X167990067Y-105478316D01*
X167943985Y-105119802D01*
X167828846Y-104777167D01*
X167709836Y-104554514D01*
X167424980Y-104434626D01*
X166326605Y-105533000D01*
X166340748Y-105547142D01*
X166161142Y-105726748D01*
X166147000Y-105712605D01*
X166132858Y-105726748D01*
X165953252Y-105547142D01*
X165967395Y-105533000D01*
X164869020Y-104434626D01*
X164584164Y-104554514D01*
X164423301Y-104878210D01*
X164328678Y-105227069D01*
X164303933Y-105587684D01*
X164350015Y-105946198D01*
X164465154Y-106288833D01*
X164584164Y-106511486D01*
X164623402Y-106528000D01*
X152975139Y-106528000D01*
X153192833Y-106454846D01*
X153415486Y-106335836D01*
X153535374Y-106050980D01*
X152437000Y-104952605D01*
X151338626Y-106050980D01*
X151458514Y-106335836D01*
X151782210Y-106496699D01*
X151897611Y-106528000D01*
X147610598Y-106528000D01*
X147649836Y-106511486D01*
X147810699Y-106187790D01*
X147905322Y-105838931D01*
X147930067Y-105478316D01*
X147883985Y-105119802D01*
X147768846Y-104777167D01*
X147649836Y-104554514D01*
X147364980Y-104434626D01*
X146266605Y-105533000D01*
X146280748Y-105547142D01*
X146101142Y-105726748D01*
X146087000Y-105712605D01*
X146072858Y-105726748D01*
X145893252Y-105547142D01*
X145907395Y-105533000D01*
X144809020Y-104434626D01*
X144524164Y-104554514D01*
X144363301Y-104878210D01*
X144268678Y-105227069D01*
X144243933Y-105587684D01*
X144290015Y-105946198D01*
X144405154Y-106288833D01*
X144524164Y-106511486D01*
X144563402Y-106528000D01*
X130588419Y-106528000D01*
X130556000Y-106524807D01*
X130523581Y-106528000D01*
X130426617Y-106537550D01*
X130302207Y-106575290D01*
X130187550Y-106636575D01*
X130087052Y-106719052D01*
X130004575Y-106819550D01*
X129943290Y-106934207D01*
X129905550Y-107058617D01*
X129892807Y-107188000D01*
X129896000Y-107220419D01*
X129896001Y-112370000D01*
X118008000Y-112370000D01*
X118008000Y-111347838D01*
X124939107Y-111347838D01*
X125155229Y-111714597D01*
X125615106Y-111955277D01*
X126113099Y-112101614D01*
X126630072Y-112147987D01*
X127146160Y-112092612D01*
X127641527Y-111937618D01*
X128058773Y-111714597D01*
X128274895Y-111347838D01*
X126607001Y-109679944D01*
X124939107Y-111347838D01*
X118008000Y-111347838D01*
X118008000Y-109523410D01*
X123959353Y-109523410D01*
X124014728Y-110039498D01*
X124169722Y-110534865D01*
X124392743Y-110952111D01*
X124759502Y-111168233D01*
X126427396Y-109500339D01*
X126786606Y-109500339D01*
X128454500Y-111168233D01*
X128821259Y-110952111D01*
X129061939Y-110492234D01*
X129208276Y-109994241D01*
X129254649Y-109477268D01*
X129199274Y-108961180D01*
X129044280Y-108465813D01*
X128821259Y-108048567D01*
X128454500Y-107832445D01*
X126786606Y-109500339D01*
X126427396Y-109500339D01*
X124759502Y-107832445D01*
X124392743Y-108048567D01*
X124152063Y-108508444D01*
X124005726Y-109006437D01*
X123959353Y-109523410D01*
X118008000Y-109523410D01*
X118008000Y-107652840D01*
X124939107Y-107652840D01*
X126607001Y-109320734D01*
X128274895Y-107652840D01*
X128058773Y-107286081D01*
X127598896Y-107045401D01*
X127100903Y-106899064D01*
X126583930Y-106852691D01*
X126067842Y-106908066D01*
X125572475Y-107063060D01*
X125155229Y-107286081D01*
X124939107Y-107652840D01*
X118008000Y-107652840D01*
X118008000Y-95075338D01*
X123298324Y-95075338D01*
X123302000Y-95112661D01*
X123302001Y-97223006D01*
X123298324Y-97260338D01*
X123302001Y-97297671D01*
X123310406Y-97383002D01*
X123312998Y-97409323D01*
X123356454Y-97552584D01*
X123427026Y-97684614D01*
X123498201Y-97771340D01*
X123522000Y-97800339D01*
X123550998Y-97824137D01*
X123788313Y-98061452D01*
X123752001Y-98244004D01*
X123752001Y-98526674D01*
X123788313Y-98709226D01*
X123498201Y-98999338D01*
X123427026Y-99086064D01*
X123356454Y-99218094D01*
X123312998Y-99361355D01*
X123298324Y-99510340D01*
X123312998Y-99659325D01*
X123356454Y-99802586D01*
X123427026Y-99934616D01*
X123521999Y-100050341D01*
X123637724Y-100145314D01*
X123769754Y-100215886D01*
X123913015Y-100259342D01*
X124050762Y-100272909D01*
X123915321Y-100475612D01*
X123807148Y-100736765D01*
X123752001Y-101014004D01*
X123752001Y-101296674D01*
X123807148Y-101573913D01*
X123915321Y-101835066D01*
X124072364Y-102070098D01*
X124272242Y-102269976D01*
X124507274Y-102427019D01*
X124768427Y-102535192D01*
X125045666Y-102590339D01*
X125328336Y-102590339D01*
X125605575Y-102535192D01*
X125866728Y-102427019D01*
X126101760Y-102269976D01*
X126301638Y-102070098D01*
X126458681Y-101835066D01*
X126566854Y-101573913D01*
X126622001Y-101296674D01*
X126622001Y-101014004D01*
X126566854Y-100736765D01*
X126458681Y-100475612D01*
X126301638Y-100240580D01*
X126173415Y-100112357D01*
X126592001Y-99693771D01*
X126592001Y-99911674D01*
X126647148Y-100188913D01*
X126755321Y-100450066D01*
X126912364Y-100685098D01*
X127112242Y-100884976D01*
X127347274Y-101042019D01*
X127608427Y-101150192D01*
X127634302Y-101155339D01*
X127608427Y-101160486D01*
X127347274Y-101268659D01*
X127112242Y-101425702D01*
X126912364Y-101625580D01*
X126755321Y-101860612D01*
X126647148Y-102121765D01*
X126592001Y-102399004D01*
X126592001Y-102681674D01*
X126647148Y-102958913D01*
X126755321Y-103220066D01*
X126912364Y-103455098D01*
X127112242Y-103654976D01*
X127347274Y-103812019D01*
X127608427Y-103920192D01*
X127885666Y-103975339D01*
X128168336Y-103975339D01*
X128445575Y-103920192D01*
X128706728Y-103812019D01*
X128941760Y-103654976D01*
X129141638Y-103455098D01*
X129298681Y-103220066D01*
X129339301Y-103122000D01*
X134299893Y-103122000D01*
X134228525Y-103193368D01*
X134066010Y-103436589D01*
X133954068Y-103706842D01*
X133897000Y-103993740D01*
X133897000Y-104286260D01*
X133954068Y-104573158D01*
X134066010Y-104843411D01*
X134228525Y-105086632D01*
X134435368Y-105293475D01*
X134678589Y-105455990D01*
X134948842Y-105567932D01*
X135235740Y-105625000D01*
X135528260Y-105625000D01*
X135815158Y-105567932D01*
X136085411Y-105455990D01*
X136328632Y-105293475D01*
X136460487Y-105161620D01*
X136482498Y-105234180D01*
X136541463Y-105344494D01*
X136620815Y-105441185D01*
X136717506Y-105520537D01*
X136827820Y-105579502D01*
X136947518Y-105615812D01*
X137072000Y-105628072D01*
X138772000Y-105628072D01*
X138896482Y-105615812D01*
X139016180Y-105579502D01*
X139126494Y-105520537D01*
X139223185Y-105441185D01*
X139302537Y-105344494D01*
X139361502Y-105234180D01*
X139397812Y-105114482D01*
X139410072Y-104990000D01*
X139410072Y-103290000D01*
X139397812Y-103165518D01*
X139384611Y-103122000D01*
X142941199Y-103122000D01*
X143282211Y-103463013D01*
X143306010Y-103492012D01*
X143335008Y-103515810D01*
X143421735Y-103586985D01*
X143553764Y-103657557D01*
X143697025Y-103701014D01*
X143846011Y-103715688D01*
X143883344Y-103712011D01*
X145860551Y-103712011D01*
X145673802Y-103736015D01*
X145331167Y-103851154D01*
X145108514Y-103970164D01*
X144988626Y-104255020D01*
X146087000Y-105353395D01*
X147185374Y-104255020D01*
X147065486Y-103970164D01*
X146741790Y-103809301D01*
X146392931Y-103714678D01*
X146354064Y-103712011D01*
X151070193Y-103712011D01*
X150874164Y-103794514D01*
X150713301Y-104118210D01*
X150618678Y-104467069D01*
X150593933Y-104827684D01*
X150640015Y-105186198D01*
X150755154Y-105528833D01*
X150874164Y-105751486D01*
X151159020Y-105871374D01*
X152257395Y-104773000D01*
X152243252Y-104758858D01*
X152422858Y-104579252D01*
X152437000Y-104593395D01*
X152451142Y-104579252D01*
X152630748Y-104758858D01*
X152616605Y-104773000D01*
X153714980Y-105871374D01*
X153999836Y-105751486D01*
X154160699Y-105427790D01*
X154255322Y-105078931D01*
X154280067Y-104718316D01*
X154233985Y-104359802D01*
X154118846Y-104017167D01*
X153999836Y-103794514D01*
X153803807Y-103712011D01*
X155869999Y-103712011D01*
X155907321Y-103715687D01*
X155944643Y-103712011D01*
X155944654Y-103712011D01*
X156056307Y-103701014D01*
X156199568Y-103657557D01*
X156331597Y-103586985D01*
X156447322Y-103492012D01*
X156471124Y-103463009D01*
X157217017Y-102717117D01*
X157246010Y-102693323D01*
X157269804Y-102664330D01*
X157269809Y-102664325D01*
X157340984Y-102577598D01*
X157371552Y-102520409D01*
X159317000Y-102520409D01*
X159317000Y-102965591D01*
X159403851Y-103402218D01*
X159574214Y-103813511D01*
X159821544Y-104183666D01*
X160136334Y-104498456D01*
X160506489Y-104745786D01*
X160917782Y-104916149D01*
X161354409Y-105003000D01*
X161799591Y-105003000D01*
X162236218Y-104916149D01*
X162647511Y-104745786D01*
X163017666Y-104498456D01*
X163261102Y-104255020D01*
X165048626Y-104255020D01*
X166147000Y-105353395D01*
X167245374Y-104255020D01*
X167125486Y-103970164D01*
X166801790Y-103809301D01*
X166452931Y-103714678D01*
X166092316Y-103689933D01*
X165733802Y-103736015D01*
X165391167Y-103851154D01*
X165168514Y-103970164D01*
X165048626Y-104255020D01*
X163261102Y-104255020D01*
X163332456Y-104183666D01*
X163579786Y-103813511D01*
X163750149Y-103402218D01*
X163837000Y-102965591D01*
X163837000Y-102520409D01*
X163750149Y-102083782D01*
X163579786Y-101672489D01*
X163332456Y-101302334D01*
X163017666Y-100987544D01*
X162647511Y-100740214D01*
X162236218Y-100569851D01*
X161799591Y-100483000D01*
X161354409Y-100483000D01*
X160917782Y-100569851D01*
X160506489Y-100740214D01*
X160136334Y-100987544D01*
X159821544Y-101302334D01*
X159574214Y-101672489D01*
X159403851Y-102083782D01*
X159317000Y-102520409D01*
X157371552Y-102520409D01*
X157411556Y-102445569D01*
X157455012Y-102302308D01*
X157469686Y-102153322D01*
X157466009Y-102115990D01*
X157466011Y-98926413D01*
X157469687Y-98889090D01*
X157466011Y-98851767D01*
X157466011Y-98851758D01*
X157455014Y-98740105D01*
X157422827Y-98633998D01*
X157411557Y-98596843D01*
X157340985Y-98464813D01*
X157269810Y-98378087D01*
X157269806Y-98378083D01*
X157246012Y-98349090D01*
X157217020Y-98325297D01*
X156284720Y-97392996D01*
X156260922Y-97363998D01*
X156199798Y-97313834D01*
X156267069Y-97246563D01*
X156413607Y-97027254D01*
X156514543Y-96783572D01*
X156566000Y-96524880D01*
X156566000Y-96261120D01*
X156514543Y-96002428D01*
X156413607Y-95758746D01*
X156267069Y-95539437D01*
X156080563Y-95352931D01*
X155861254Y-95206393D01*
X155659925Y-95123000D01*
X155861254Y-95039607D01*
X156080563Y-94893069D01*
X156267069Y-94706563D01*
X156413607Y-94487254D01*
X156514543Y-94243572D01*
X156566000Y-93984880D01*
X156566000Y-93721120D01*
X156514543Y-93462428D01*
X156413607Y-93218746D01*
X156267069Y-92999437D01*
X156080563Y-92812931D01*
X155861254Y-92666393D01*
X155617572Y-92565457D01*
X155358880Y-92514000D01*
X155095120Y-92514000D01*
X154836428Y-92565457D01*
X154592746Y-92666393D01*
X154373437Y-92812931D01*
X154186931Y-92999437D01*
X154040393Y-93218746D01*
X153939457Y-93462428D01*
X153888000Y-93721120D01*
X153888000Y-93984880D01*
X153939457Y-94243572D01*
X154040393Y-94487254D01*
X154186931Y-94706563D01*
X154373437Y-94893069D01*
X154592746Y-95039607D01*
X154794075Y-95123000D01*
X154592746Y-95206393D01*
X154373437Y-95352931D01*
X154186931Y-95539437D01*
X154040393Y-95758746D01*
X153939457Y-96002428D01*
X153890707Y-96247512D01*
X153673414Y-96030218D01*
X153727069Y-95976563D01*
X153873607Y-95757254D01*
X153974543Y-95513572D01*
X154026000Y-95254880D01*
X154026000Y-94991120D01*
X153974543Y-94732428D01*
X153873607Y-94488746D01*
X153727069Y-94269437D01*
X153540563Y-94082931D01*
X153321254Y-93936393D01*
X153119925Y-93853000D01*
X153321254Y-93769607D01*
X153540563Y-93623069D01*
X153727069Y-93436563D01*
X153873607Y-93217254D01*
X153974543Y-92973572D01*
X154026000Y-92714880D01*
X154026000Y-92451120D01*
X153974543Y-92192428D01*
X153873607Y-91948746D01*
X153727069Y-91729437D01*
X153540563Y-91542931D01*
X153321254Y-91396393D01*
X153077572Y-91295457D01*
X152818880Y-91244000D01*
X152555120Y-91244000D01*
X152296428Y-91295457D01*
X152052746Y-91396393D01*
X151833437Y-91542931D01*
X151646931Y-91729437D01*
X151500393Y-91948746D01*
X151399457Y-92192428D01*
X151348000Y-92451120D01*
X151348000Y-92714880D01*
X151399457Y-92973572D01*
X151500393Y-93217254D01*
X151646931Y-93436563D01*
X151833437Y-93623069D01*
X152052746Y-93769607D01*
X152254075Y-93853000D01*
X152052746Y-93936393D01*
X151833437Y-94082931D01*
X151646931Y-94269437D01*
X151644620Y-94272896D01*
X147932704Y-90560980D01*
X154638626Y-90560980D01*
X154758514Y-90845836D01*
X155082210Y-91006699D01*
X155431069Y-91101322D01*
X155791684Y-91126067D01*
X156069100Y-91090409D01*
X159317000Y-91090409D01*
X159317000Y-91535591D01*
X159403851Y-91972218D01*
X159574214Y-92383511D01*
X159821544Y-92753666D01*
X160136334Y-93068456D01*
X160506489Y-93315786D01*
X160917782Y-93486149D01*
X161354409Y-93573000D01*
X161799591Y-93573000D01*
X162236218Y-93486149D01*
X162647511Y-93315786D01*
X163017666Y-93068456D01*
X163332456Y-92753666D01*
X163579786Y-92383511D01*
X163750149Y-91972218D01*
X163837000Y-91535591D01*
X163837000Y-91090409D01*
X163750149Y-90653782D01*
X163579786Y-90242489D01*
X163332456Y-89872334D01*
X163261102Y-89800980D01*
X165048626Y-89800980D01*
X165168514Y-90085836D01*
X165492210Y-90246699D01*
X165841069Y-90341322D01*
X166201684Y-90366067D01*
X166560198Y-90319985D01*
X166902833Y-90204846D01*
X167125486Y-90085836D01*
X167245374Y-89800980D01*
X166147000Y-88702605D01*
X165048626Y-89800980D01*
X163261102Y-89800980D01*
X163017666Y-89557544D01*
X162647511Y-89310214D01*
X162236218Y-89139851D01*
X161799591Y-89053000D01*
X161354409Y-89053000D01*
X160917782Y-89139851D01*
X160506489Y-89310214D01*
X160136334Y-89557544D01*
X159821544Y-89872334D01*
X159574214Y-90242489D01*
X159403851Y-90653782D01*
X159317000Y-91090409D01*
X156069100Y-91090409D01*
X156150198Y-91079985D01*
X156492833Y-90964846D01*
X156715486Y-90845836D01*
X156835374Y-90560980D01*
X155737000Y-89462605D01*
X154638626Y-90560980D01*
X147932704Y-90560980D01*
X147172704Y-89800980D01*
X149048626Y-89800980D01*
X149168514Y-90085836D01*
X149492210Y-90246699D01*
X149841069Y-90341322D01*
X150201684Y-90366067D01*
X150560198Y-90319985D01*
X150902833Y-90204846D01*
X151125486Y-90085836D01*
X151245374Y-89800980D01*
X150147000Y-88702605D01*
X149048626Y-89800980D01*
X147172704Y-89800980D01*
X146776726Y-89405003D01*
X146752923Y-89375999D01*
X146637198Y-89281026D01*
X146505169Y-89210454D01*
X146361908Y-89166997D01*
X146250255Y-89156000D01*
X146250244Y-89156000D01*
X146212922Y-89152324D01*
X146175600Y-89156000D01*
X139410072Y-89156000D01*
X139410072Y-89066000D01*
X139397812Y-88941518D01*
X139361502Y-88821820D01*
X139302537Y-88711506D01*
X139223185Y-88614815D01*
X139126494Y-88535463D01*
X139016180Y-88476498D01*
X138896482Y-88440188D01*
X138772000Y-88427928D01*
X137072000Y-88427928D01*
X136947518Y-88440188D01*
X136827820Y-88476498D01*
X136717506Y-88535463D01*
X136620815Y-88614815D01*
X136541463Y-88711506D01*
X136482498Y-88821820D01*
X136460487Y-88894380D01*
X136328632Y-88762525D01*
X136085411Y-88600010D01*
X135815158Y-88488068D01*
X135528260Y-88431000D01*
X135235740Y-88431000D01*
X134948842Y-88488068D01*
X134678589Y-88600010D01*
X134435368Y-88762525D01*
X134228525Y-88969368D01*
X134066010Y-89212589D01*
X133954068Y-89482842D01*
X133897000Y-89769740D01*
X133897000Y-90062260D01*
X133954068Y-90349158D01*
X134066010Y-90619411D01*
X134228525Y-90862632D01*
X134435368Y-91069475D01*
X134678589Y-91231990D01*
X134948842Y-91343932D01*
X135235740Y-91401000D01*
X135528260Y-91401000D01*
X135815158Y-91343932D01*
X136085411Y-91231990D01*
X136328632Y-91069475D01*
X136460487Y-90937620D01*
X136482498Y-91010180D01*
X136541463Y-91120494D01*
X136620815Y-91217185D01*
X136717506Y-91296537D01*
X136827820Y-91355502D01*
X136947518Y-91391812D01*
X137072000Y-91404072D01*
X138772000Y-91404072D01*
X138896482Y-91391812D01*
X139016180Y-91355502D01*
X139126494Y-91296537D01*
X139223185Y-91217185D01*
X139302537Y-91120494D01*
X139361502Y-91010180D01*
X139397812Y-90890482D01*
X139410072Y-90766000D01*
X139410072Y-90676000D01*
X145898121Y-90676000D01*
X146545866Y-91323745D01*
X146477572Y-91295457D01*
X146218880Y-91244000D01*
X145955120Y-91244000D01*
X145696428Y-91295457D01*
X145452746Y-91396393D01*
X145233437Y-91542931D01*
X145046931Y-91729437D01*
X144984414Y-91823000D01*
X129465073Y-91823000D01*
X129465073Y-90660339D01*
X129452813Y-90535857D01*
X129416503Y-90416159D01*
X129357538Y-90305845D01*
X129278186Y-90209154D01*
X129181495Y-90129802D01*
X129071181Y-90070837D01*
X128951483Y-90034527D01*
X128827001Y-90022267D01*
X127227001Y-90022267D01*
X127102519Y-90034527D01*
X126982821Y-90070837D01*
X126872507Y-90129802D01*
X126775816Y-90209154D01*
X126696464Y-90305845D01*
X126637499Y-90416159D01*
X126601189Y-90535857D01*
X126588929Y-90660339D01*
X126588929Y-92260339D01*
X126601189Y-92384821D01*
X126637499Y-92504519D01*
X126696464Y-92614833D01*
X126775816Y-92711524D01*
X126872507Y-92790876D01*
X126982821Y-92849841D01*
X127102519Y-92886151D01*
X127227001Y-92898411D01*
X127492726Y-92898411D01*
X127347274Y-92958659D01*
X127112242Y-93115702D01*
X126912364Y-93315580D01*
X126756023Y-93549561D01*
X126538596Y-93332134D01*
X126566854Y-93263913D01*
X126622001Y-92986674D01*
X126622001Y-92704004D01*
X126566854Y-92426765D01*
X126458681Y-92165612D01*
X126301638Y-91930580D01*
X126101760Y-91730702D01*
X125866728Y-91573659D01*
X125605575Y-91465486D01*
X125328336Y-91410339D01*
X125045666Y-91410339D01*
X124768427Y-91465486D01*
X124507274Y-91573659D01*
X124272242Y-91730702D01*
X124072364Y-91930580D01*
X123915321Y-92165612D01*
X123807148Y-92426765D01*
X123752001Y-92704004D01*
X123752001Y-92986674D01*
X123807148Y-93263913D01*
X123915321Y-93525066D01*
X124072364Y-93760098D01*
X124192464Y-93880198D01*
X124106999Y-93950337D01*
X124083200Y-93979336D01*
X123551002Y-94511535D01*
X123521999Y-94535337D01*
X123482884Y-94582999D01*
X123427026Y-94651062D01*
X123383535Y-94732428D01*
X123356454Y-94783092D01*
X123312997Y-94926353D01*
X123302000Y-95038006D01*
X123302000Y-95038016D01*
X123298324Y-95075338D01*
X118008000Y-95075338D01*
X118008000Y-86347838D01*
X124939107Y-86347838D01*
X125155229Y-86714597D01*
X125615106Y-86955277D01*
X126113099Y-87101614D01*
X126630072Y-87147987D01*
X127146160Y-87092612D01*
X127641527Y-86937618D01*
X128058773Y-86714597D01*
X128274895Y-86347838D01*
X126607001Y-84679944D01*
X124939107Y-86347838D01*
X118008000Y-86347838D01*
X118008000Y-84523410D01*
X123959353Y-84523410D01*
X124014728Y-85039498D01*
X124169722Y-85534865D01*
X124392743Y-85952111D01*
X124759502Y-86168233D01*
X126427396Y-84500339D01*
X126786606Y-84500339D01*
X128454500Y-86168233D01*
X128821259Y-85952111D01*
X129061939Y-85492234D01*
X129208276Y-84994241D01*
X129254649Y-84477268D01*
X129199274Y-83961180D01*
X129044280Y-83465813D01*
X128821259Y-83048567D01*
X128454500Y-82832445D01*
X126786606Y-84500339D01*
X126427396Y-84500339D01*
X124759502Y-82832445D01*
X124392743Y-83048567D01*
X124152063Y-83508444D01*
X124005726Y-84006437D01*
X123959353Y-84523410D01*
X118008000Y-84523410D01*
X118008000Y-82652840D01*
X124939107Y-82652840D01*
X126607001Y-84320734D01*
X128274895Y-82652840D01*
X128058773Y-82286081D01*
X127598896Y-82045401D01*
X127100903Y-81899064D01*
X126583930Y-81852691D01*
X126067842Y-81908066D01*
X125572475Y-82063060D01*
X125155229Y-82286081D01*
X124939107Y-82652840D01*
X118008000Y-82652840D01*
X118008000Y-81686000D01*
X129896000Y-81686000D01*
X129896001Y-86835571D01*
%TA.AperFunction,Conductor*%
D19*
G36*
X129896001Y-86835571D02*
G01*
X129892807Y-86868000D01*
X129905550Y-86997383D01*
X129943290Y-87121793D01*
X130004575Y-87236450D01*
X130087052Y-87336948D01*
X130187550Y-87419425D01*
X130302207Y-87480710D01*
X130426617Y-87518450D01*
X130523581Y-87528000D01*
X130556000Y-87531193D01*
X130588419Y-87528000D01*
X148623402Y-87528000D01*
X148584164Y-87544514D01*
X148423301Y-87868210D01*
X148328678Y-88217069D01*
X148303933Y-88577684D01*
X148350015Y-88936198D01*
X148465154Y-89278833D01*
X148584164Y-89501486D01*
X148869020Y-89621374D01*
X149967395Y-88523000D01*
X149953252Y-88508858D01*
X150132858Y-88329252D01*
X150147000Y-88343395D01*
X150161142Y-88329252D01*
X150340748Y-88508858D01*
X150326605Y-88523000D01*
X151424980Y-89621374D01*
X151709836Y-89501486D01*
X151791238Y-89337684D01*
X153893933Y-89337684D01*
X153940015Y-89696198D01*
X154055154Y-90038833D01*
X154174164Y-90261486D01*
X154459020Y-90381374D01*
X155557395Y-89283000D01*
X155916605Y-89283000D01*
X157014980Y-90381374D01*
X157299836Y-90261486D01*
X157460699Y-89937790D01*
X157555322Y-89588931D01*
X157580067Y-89228316D01*
X157533985Y-88869802D01*
X157418846Y-88527167D01*
X157299836Y-88304514D01*
X157014980Y-88184626D01*
X155916605Y-89283000D01*
X155557395Y-89283000D01*
X154459020Y-88184626D01*
X154174164Y-88304514D01*
X154013301Y-88628210D01*
X153918678Y-88977069D01*
X153893933Y-89337684D01*
X151791238Y-89337684D01*
X151870699Y-89177790D01*
X151965322Y-88828931D01*
X151990067Y-88468316D01*
X151943985Y-88109802D01*
X151828846Y-87767167D01*
X151709836Y-87544514D01*
X151670598Y-87528000D01*
X155198861Y-87528000D01*
X154981167Y-87601154D01*
X154758514Y-87720164D01*
X154638626Y-88005020D01*
X155737000Y-89103395D01*
X156835374Y-88005020D01*
X156715486Y-87720164D01*
X156391790Y-87559301D01*
X156276389Y-87528000D01*
X164623402Y-87528000D01*
X164584164Y-87544514D01*
X164423301Y-87868210D01*
X164328678Y-88217069D01*
X164303933Y-88577684D01*
X164350015Y-88936198D01*
X164465154Y-89278833D01*
X164584164Y-89501486D01*
X164869020Y-89621374D01*
X165967395Y-88523000D01*
X165953252Y-88508858D01*
X166132858Y-88329252D01*
X166147000Y-88343395D01*
X166161142Y-88329252D01*
X166340748Y-88508858D01*
X166326605Y-88523000D01*
X167424980Y-89621374D01*
X167709836Y-89501486D01*
X167870699Y-89177790D01*
X167965322Y-88828931D01*
X167990067Y-88468316D01*
X167943985Y-88109802D01*
X167828846Y-87767167D01*
X167709836Y-87544514D01*
X167670598Y-87528000D01*
X172314000Y-87528000D01*
X172314001Y-106528000D01*
X167670598Y-106528000D01*
X167709836Y-106511486D01*
X167870699Y-106187790D01*
X167965322Y-105838931D01*
X167990067Y-105478316D01*
X167943985Y-105119802D01*
X167828846Y-104777167D01*
X167709836Y-104554514D01*
X167424980Y-104434626D01*
X166326605Y-105533000D01*
X166340748Y-105547142D01*
X166161142Y-105726748D01*
X166147000Y-105712605D01*
X166132858Y-105726748D01*
X165953252Y-105547142D01*
X165967395Y-105533000D01*
X164869020Y-104434626D01*
X164584164Y-104554514D01*
X164423301Y-104878210D01*
X164328678Y-105227069D01*
X164303933Y-105587684D01*
X164350015Y-105946198D01*
X164465154Y-106288833D01*
X164584164Y-106511486D01*
X164623402Y-106528000D01*
X152975139Y-106528000D01*
X153192833Y-106454846D01*
X153415486Y-106335836D01*
X153535374Y-106050980D01*
X152437000Y-104952605D01*
X151338626Y-106050980D01*
X151458514Y-106335836D01*
X151782210Y-106496699D01*
X151897611Y-106528000D01*
X147610598Y-106528000D01*
X147649836Y-106511486D01*
X147810699Y-106187790D01*
X147905322Y-105838931D01*
X147930067Y-105478316D01*
X147883985Y-105119802D01*
X147768846Y-104777167D01*
X147649836Y-104554514D01*
X147364980Y-104434626D01*
X146266605Y-105533000D01*
X146280748Y-105547142D01*
X146101142Y-105726748D01*
X146087000Y-105712605D01*
X146072858Y-105726748D01*
X145893252Y-105547142D01*
X145907395Y-105533000D01*
X144809020Y-104434626D01*
X144524164Y-104554514D01*
X144363301Y-104878210D01*
X144268678Y-105227069D01*
X144243933Y-105587684D01*
X144290015Y-105946198D01*
X144405154Y-106288833D01*
X144524164Y-106511486D01*
X144563402Y-106528000D01*
X130588419Y-106528000D01*
X130556000Y-106524807D01*
X130523581Y-106528000D01*
X130426617Y-106537550D01*
X130302207Y-106575290D01*
X130187550Y-106636575D01*
X130087052Y-106719052D01*
X130004575Y-106819550D01*
X129943290Y-106934207D01*
X129905550Y-107058617D01*
X129892807Y-107188000D01*
X129896000Y-107220419D01*
X129896001Y-112370000D01*
X118008000Y-112370000D01*
X118008000Y-111347838D01*
X124939107Y-111347838D01*
X125155229Y-111714597D01*
X125615106Y-111955277D01*
X126113099Y-112101614D01*
X126630072Y-112147987D01*
X127146160Y-112092612D01*
X127641527Y-111937618D01*
X128058773Y-111714597D01*
X128274895Y-111347838D01*
X126607001Y-109679944D01*
X124939107Y-111347838D01*
X118008000Y-111347838D01*
X118008000Y-109523410D01*
X123959353Y-109523410D01*
X124014728Y-110039498D01*
X124169722Y-110534865D01*
X124392743Y-110952111D01*
X124759502Y-111168233D01*
X126427396Y-109500339D01*
X126786606Y-109500339D01*
X128454500Y-111168233D01*
X128821259Y-110952111D01*
X129061939Y-110492234D01*
X129208276Y-109994241D01*
X129254649Y-109477268D01*
X129199274Y-108961180D01*
X129044280Y-108465813D01*
X128821259Y-108048567D01*
X128454500Y-107832445D01*
X126786606Y-109500339D01*
X126427396Y-109500339D01*
X124759502Y-107832445D01*
X124392743Y-108048567D01*
X124152063Y-108508444D01*
X124005726Y-109006437D01*
X123959353Y-109523410D01*
X118008000Y-109523410D01*
X118008000Y-107652840D01*
X124939107Y-107652840D01*
X126607001Y-109320734D01*
X128274895Y-107652840D01*
X128058773Y-107286081D01*
X127598896Y-107045401D01*
X127100903Y-106899064D01*
X126583930Y-106852691D01*
X126067842Y-106908066D01*
X125572475Y-107063060D01*
X125155229Y-107286081D01*
X124939107Y-107652840D01*
X118008000Y-107652840D01*
X118008000Y-95075338D01*
X123298324Y-95075338D01*
X123302000Y-95112661D01*
X123302001Y-97223006D01*
X123298324Y-97260338D01*
X123302001Y-97297671D01*
X123310406Y-97383002D01*
X123312998Y-97409323D01*
X123356454Y-97552584D01*
X123427026Y-97684614D01*
X123498201Y-97771340D01*
X123522000Y-97800339D01*
X123550998Y-97824137D01*
X123788313Y-98061452D01*
X123752001Y-98244004D01*
X123752001Y-98526674D01*
X123788313Y-98709226D01*
X123498201Y-98999338D01*
X123427026Y-99086064D01*
X123356454Y-99218094D01*
X123312998Y-99361355D01*
X123298324Y-99510340D01*
X123312998Y-99659325D01*
X123356454Y-99802586D01*
X123427026Y-99934616D01*
X123521999Y-100050341D01*
X123637724Y-100145314D01*
X123769754Y-100215886D01*
X123913015Y-100259342D01*
X124050762Y-100272909D01*
X123915321Y-100475612D01*
X123807148Y-100736765D01*
X123752001Y-101014004D01*
X123752001Y-101296674D01*
X123807148Y-101573913D01*
X123915321Y-101835066D01*
X124072364Y-102070098D01*
X124272242Y-102269976D01*
X124507274Y-102427019D01*
X124768427Y-102535192D01*
X125045666Y-102590339D01*
X125328336Y-102590339D01*
X125605575Y-102535192D01*
X125866728Y-102427019D01*
X126101760Y-102269976D01*
X126301638Y-102070098D01*
X126458681Y-101835066D01*
X126566854Y-101573913D01*
X126622001Y-101296674D01*
X126622001Y-101014004D01*
X126566854Y-100736765D01*
X126458681Y-100475612D01*
X126301638Y-100240580D01*
X126173415Y-100112357D01*
X126592001Y-99693771D01*
X126592001Y-99911674D01*
X126647148Y-100188913D01*
X126755321Y-100450066D01*
X126912364Y-100685098D01*
X127112242Y-100884976D01*
X127347274Y-101042019D01*
X127608427Y-101150192D01*
X127634302Y-101155339D01*
X127608427Y-101160486D01*
X127347274Y-101268659D01*
X127112242Y-101425702D01*
X126912364Y-101625580D01*
X126755321Y-101860612D01*
X126647148Y-102121765D01*
X126592001Y-102399004D01*
X126592001Y-102681674D01*
X126647148Y-102958913D01*
X126755321Y-103220066D01*
X126912364Y-103455098D01*
X127112242Y-103654976D01*
X127347274Y-103812019D01*
X127608427Y-103920192D01*
X127885666Y-103975339D01*
X128168336Y-103975339D01*
X128445575Y-103920192D01*
X128706728Y-103812019D01*
X128941760Y-103654976D01*
X129141638Y-103455098D01*
X129298681Y-103220066D01*
X129339301Y-103122000D01*
X134299893Y-103122000D01*
X134228525Y-103193368D01*
X134066010Y-103436589D01*
X133954068Y-103706842D01*
X133897000Y-103993740D01*
X133897000Y-104286260D01*
X133954068Y-104573158D01*
X134066010Y-104843411D01*
X134228525Y-105086632D01*
X134435368Y-105293475D01*
X134678589Y-105455990D01*
X134948842Y-105567932D01*
X135235740Y-105625000D01*
X135528260Y-105625000D01*
X135815158Y-105567932D01*
X136085411Y-105455990D01*
X136328632Y-105293475D01*
X136460487Y-105161620D01*
X136482498Y-105234180D01*
X136541463Y-105344494D01*
X136620815Y-105441185D01*
X136717506Y-105520537D01*
X136827820Y-105579502D01*
X136947518Y-105615812D01*
X137072000Y-105628072D01*
X138772000Y-105628072D01*
X138896482Y-105615812D01*
X139016180Y-105579502D01*
X139126494Y-105520537D01*
X139223185Y-105441185D01*
X139302537Y-105344494D01*
X139361502Y-105234180D01*
X139397812Y-105114482D01*
X139410072Y-104990000D01*
X139410072Y-103290000D01*
X139397812Y-103165518D01*
X139384611Y-103122000D01*
X142941199Y-103122000D01*
X143282211Y-103463013D01*
X143306010Y-103492012D01*
X143335008Y-103515810D01*
X143421735Y-103586985D01*
X143553764Y-103657557D01*
X143697025Y-103701014D01*
X143846011Y-103715688D01*
X143883344Y-103712011D01*
X145860551Y-103712011D01*
X145673802Y-103736015D01*
X145331167Y-103851154D01*
X145108514Y-103970164D01*
X144988626Y-104255020D01*
X146087000Y-105353395D01*
X147185374Y-104255020D01*
X147065486Y-103970164D01*
X146741790Y-103809301D01*
X146392931Y-103714678D01*
X146354064Y-103712011D01*
X151070193Y-103712011D01*
X150874164Y-103794514D01*
X150713301Y-104118210D01*
X150618678Y-104467069D01*
X150593933Y-104827684D01*
X150640015Y-105186198D01*
X150755154Y-105528833D01*
X150874164Y-105751486D01*
X151159020Y-105871374D01*
X152257395Y-104773000D01*
X152243252Y-104758858D01*
X152422858Y-104579252D01*
X152437000Y-104593395D01*
X152451142Y-104579252D01*
X152630748Y-104758858D01*
X152616605Y-104773000D01*
X153714980Y-105871374D01*
X153999836Y-105751486D01*
X154160699Y-105427790D01*
X154255322Y-105078931D01*
X154280067Y-104718316D01*
X154233985Y-104359802D01*
X154118846Y-104017167D01*
X153999836Y-103794514D01*
X153803807Y-103712011D01*
X155869999Y-103712011D01*
X155907321Y-103715687D01*
X155944643Y-103712011D01*
X155944654Y-103712011D01*
X156056307Y-103701014D01*
X156199568Y-103657557D01*
X156331597Y-103586985D01*
X156447322Y-103492012D01*
X156471124Y-103463009D01*
X157217017Y-102717117D01*
X157246010Y-102693323D01*
X157269804Y-102664330D01*
X157269809Y-102664325D01*
X157340984Y-102577598D01*
X157371552Y-102520409D01*
X159317000Y-102520409D01*
X159317000Y-102965591D01*
X159403851Y-103402218D01*
X159574214Y-103813511D01*
X159821544Y-104183666D01*
X160136334Y-104498456D01*
X160506489Y-104745786D01*
X160917782Y-104916149D01*
X161354409Y-105003000D01*
X161799591Y-105003000D01*
X162236218Y-104916149D01*
X162647511Y-104745786D01*
X163017666Y-104498456D01*
X163261102Y-104255020D01*
X165048626Y-104255020D01*
X166147000Y-105353395D01*
X167245374Y-104255020D01*
X167125486Y-103970164D01*
X166801790Y-103809301D01*
X166452931Y-103714678D01*
X166092316Y-103689933D01*
X165733802Y-103736015D01*
X165391167Y-103851154D01*
X165168514Y-103970164D01*
X165048626Y-104255020D01*
X163261102Y-104255020D01*
X163332456Y-104183666D01*
X163579786Y-103813511D01*
X163750149Y-103402218D01*
X163837000Y-102965591D01*
X163837000Y-102520409D01*
X163750149Y-102083782D01*
X163579786Y-101672489D01*
X163332456Y-101302334D01*
X163017666Y-100987544D01*
X162647511Y-100740214D01*
X162236218Y-100569851D01*
X161799591Y-100483000D01*
X161354409Y-100483000D01*
X160917782Y-100569851D01*
X160506489Y-100740214D01*
X160136334Y-100987544D01*
X159821544Y-101302334D01*
X159574214Y-101672489D01*
X159403851Y-102083782D01*
X159317000Y-102520409D01*
X157371552Y-102520409D01*
X157411556Y-102445569D01*
X157455012Y-102302308D01*
X157469686Y-102153322D01*
X157466009Y-102115990D01*
X157466011Y-98926413D01*
X157469687Y-98889090D01*
X157466011Y-98851767D01*
X157466011Y-98851758D01*
X157455014Y-98740105D01*
X157422827Y-98633998D01*
X157411557Y-98596843D01*
X157340985Y-98464813D01*
X157269810Y-98378087D01*
X157269806Y-98378083D01*
X157246012Y-98349090D01*
X157217020Y-98325297D01*
X156284720Y-97392996D01*
X156260922Y-97363998D01*
X156199798Y-97313834D01*
X156267069Y-97246563D01*
X156413607Y-97027254D01*
X156514543Y-96783572D01*
X156566000Y-96524880D01*
X156566000Y-96261120D01*
X156514543Y-96002428D01*
X156413607Y-95758746D01*
X156267069Y-95539437D01*
X156080563Y-95352931D01*
X155861254Y-95206393D01*
X155659925Y-95123000D01*
X155861254Y-95039607D01*
X156080563Y-94893069D01*
X156267069Y-94706563D01*
X156413607Y-94487254D01*
X156514543Y-94243572D01*
X156566000Y-93984880D01*
X156566000Y-93721120D01*
X156514543Y-93462428D01*
X156413607Y-93218746D01*
X156267069Y-92999437D01*
X156080563Y-92812931D01*
X155861254Y-92666393D01*
X155617572Y-92565457D01*
X155358880Y-92514000D01*
X155095120Y-92514000D01*
X154836428Y-92565457D01*
X154592746Y-92666393D01*
X154373437Y-92812931D01*
X154186931Y-92999437D01*
X154040393Y-93218746D01*
X153939457Y-93462428D01*
X153888000Y-93721120D01*
X153888000Y-93984880D01*
X153939457Y-94243572D01*
X154040393Y-94487254D01*
X154186931Y-94706563D01*
X154373437Y-94893069D01*
X154592746Y-95039607D01*
X154794075Y-95123000D01*
X154592746Y-95206393D01*
X154373437Y-95352931D01*
X154186931Y-95539437D01*
X154040393Y-95758746D01*
X153939457Y-96002428D01*
X153890707Y-96247512D01*
X153673414Y-96030218D01*
X153727069Y-95976563D01*
X153873607Y-95757254D01*
X153974543Y-95513572D01*
X154026000Y-95254880D01*
X154026000Y-94991120D01*
X153974543Y-94732428D01*
X153873607Y-94488746D01*
X153727069Y-94269437D01*
X153540563Y-94082931D01*
X153321254Y-93936393D01*
X153119925Y-93853000D01*
X153321254Y-93769607D01*
X153540563Y-93623069D01*
X153727069Y-93436563D01*
X153873607Y-93217254D01*
X153974543Y-92973572D01*
X154026000Y-92714880D01*
X154026000Y-92451120D01*
X153974543Y-92192428D01*
X153873607Y-91948746D01*
X153727069Y-91729437D01*
X153540563Y-91542931D01*
X153321254Y-91396393D01*
X153077572Y-91295457D01*
X152818880Y-91244000D01*
X152555120Y-91244000D01*
X152296428Y-91295457D01*
X152052746Y-91396393D01*
X151833437Y-91542931D01*
X151646931Y-91729437D01*
X151500393Y-91948746D01*
X151399457Y-92192428D01*
X151348000Y-92451120D01*
X151348000Y-92714880D01*
X151399457Y-92973572D01*
X151500393Y-93217254D01*
X151646931Y-93436563D01*
X151833437Y-93623069D01*
X152052746Y-93769607D01*
X152254075Y-93853000D01*
X152052746Y-93936393D01*
X151833437Y-94082931D01*
X151646931Y-94269437D01*
X151644620Y-94272896D01*
X147932704Y-90560980D01*
X154638626Y-90560980D01*
X154758514Y-90845836D01*
X155082210Y-91006699D01*
X155431069Y-91101322D01*
X155791684Y-91126067D01*
X156069100Y-91090409D01*
X159317000Y-91090409D01*
X159317000Y-91535591D01*
X159403851Y-91972218D01*
X159574214Y-92383511D01*
X159821544Y-92753666D01*
X160136334Y-93068456D01*
X160506489Y-93315786D01*
X160917782Y-93486149D01*
X161354409Y-93573000D01*
X161799591Y-93573000D01*
X162236218Y-93486149D01*
X162647511Y-93315786D01*
X163017666Y-93068456D01*
X163332456Y-92753666D01*
X163579786Y-92383511D01*
X163750149Y-91972218D01*
X163837000Y-91535591D01*
X163837000Y-91090409D01*
X163750149Y-90653782D01*
X163579786Y-90242489D01*
X163332456Y-89872334D01*
X163261102Y-89800980D01*
X165048626Y-89800980D01*
X165168514Y-90085836D01*
X165492210Y-90246699D01*
X165841069Y-90341322D01*
X166201684Y-90366067D01*
X166560198Y-90319985D01*
X166902833Y-90204846D01*
X167125486Y-90085836D01*
X167245374Y-89800980D01*
X166147000Y-88702605D01*
X165048626Y-89800980D01*
X163261102Y-89800980D01*
X163017666Y-89557544D01*
X162647511Y-89310214D01*
X162236218Y-89139851D01*
X161799591Y-89053000D01*
X161354409Y-89053000D01*
X160917782Y-89139851D01*
X160506489Y-89310214D01*
X160136334Y-89557544D01*
X159821544Y-89872334D01*
X159574214Y-90242489D01*
X159403851Y-90653782D01*
X159317000Y-91090409D01*
X156069100Y-91090409D01*
X156150198Y-91079985D01*
X156492833Y-90964846D01*
X156715486Y-90845836D01*
X156835374Y-90560980D01*
X155737000Y-89462605D01*
X154638626Y-90560980D01*
X147932704Y-90560980D01*
X147172704Y-89800980D01*
X149048626Y-89800980D01*
X149168514Y-90085836D01*
X149492210Y-90246699D01*
X149841069Y-90341322D01*
X150201684Y-90366067D01*
X150560198Y-90319985D01*
X150902833Y-90204846D01*
X151125486Y-90085836D01*
X151245374Y-89800980D01*
X150147000Y-88702605D01*
X149048626Y-89800980D01*
X147172704Y-89800980D01*
X146776726Y-89405003D01*
X146752923Y-89375999D01*
X146637198Y-89281026D01*
X146505169Y-89210454D01*
X146361908Y-89166997D01*
X146250255Y-89156000D01*
X146250244Y-89156000D01*
X146212922Y-89152324D01*
X146175600Y-89156000D01*
X139410072Y-89156000D01*
X139410072Y-89066000D01*
X139397812Y-88941518D01*
X139361502Y-88821820D01*
X139302537Y-88711506D01*
X139223185Y-88614815D01*
X139126494Y-88535463D01*
X139016180Y-88476498D01*
X138896482Y-88440188D01*
X138772000Y-88427928D01*
X137072000Y-88427928D01*
X136947518Y-88440188D01*
X136827820Y-88476498D01*
X136717506Y-88535463D01*
X136620815Y-88614815D01*
X136541463Y-88711506D01*
X136482498Y-88821820D01*
X136460487Y-88894380D01*
X136328632Y-88762525D01*
X136085411Y-88600010D01*
X135815158Y-88488068D01*
X135528260Y-88431000D01*
X135235740Y-88431000D01*
X134948842Y-88488068D01*
X134678589Y-88600010D01*
X134435368Y-88762525D01*
X134228525Y-88969368D01*
X134066010Y-89212589D01*
X133954068Y-89482842D01*
X133897000Y-89769740D01*
X133897000Y-90062260D01*
X133954068Y-90349158D01*
X134066010Y-90619411D01*
X134228525Y-90862632D01*
X134435368Y-91069475D01*
X134678589Y-91231990D01*
X134948842Y-91343932D01*
X135235740Y-91401000D01*
X135528260Y-91401000D01*
X135815158Y-91343932D01*
X136085411Y-91231990D01*
X136328632Y-91069475D01*
X136460487Y-90937620D01*
X136482498Y-91010180D01*
X136541463Y-91120494D01*
X136620815Y-91217185D01*
X136717506Y-91296537D01*
X136827820Y-91355502D01*
X136947518Y-91391812D01*
X137072000Y-91404072D01*
X138772000Y-91404072D01*
X138896482Y-91391812D01*
X139016180Y-91355502D01*
X139126494Y-91296537D01*
X139223185Y-91217185D01*
X139302537Y-91120494D01*
X139361502Y-91010180D01*
X139397812Y-90890482D01*
X139410072Y-90766000D01*
X139410072Y-90676000D01*
X145898121Y-90676000D01*
X146545866Y-91323745D01*
X146477572Y-91295457D01*
X146218880Y-91244000D01*
X145955120Y-91244000D01*
X145696428Y-91295457D01*
X145452746Y-91396393D01*
X145233437Y-91542931D01*
X145046931Y-91729437D01*
X144984414Y-91823000D01*
X129465073Y-91823000D01*
X129465073Y-90660339D01*
X129452813Y-90535857D01*
X129416503Y-90416159D01*
X129357538Y-90305845D01*
X129278186Y-90209154D01*
X129181495Y-90129802D01*
X129071181Y-90070837D01*
X128951483Y-90034527D01*
X128827001Y-90022267D01*
X127227001Y-90022267D01*
X127102519Y-90034527D01*
X126982821Y-90070837D01*
X126872507Y-90129802D01*
X126775816Y-90209154D01*
X126696464Y-90305845D01*
X126637499Y-90416159D01*
X126601189Y-90535857D01*
X126588929Y-90660339D01*
X126588929Y-92260339D01*
X126601189Y-92384821D01*
X126637499Y-92504519D01*
X126696464Y-92614833D01*
X126775816Y-92711524D01*
X126872507Y-92790876D01*
X126982821Y-92849841D01*
X127102519Y-92886151D01*
X127227001Y-92898411D01*
X127492726Y-92898411D01*
X127347274Y-92958659D01*
X127112242Y-93115702D01*
X126912364Y-93315580D01*
X126756023Y-93549561D01*
X126538596Y-93332134D01*
X126566854Y-93263913D01*
X126622001Y-92986674D01*
X126622001Y-92704004D01*
X126566854Y-92426765D01*
X126458681Y-92165612D01*
X126301638Y-91930580D01*
X126101760Y-91730702D01*
X125866728Y-91573659D01*
X125605575Y-91465486D01*
X125328336Y-91410339D01*
X125045666Y-91410339D01*
X124768427Y-91465486D01*
X124507274Y-91573659D01*
X124272242Y-91730702D01*
X124072364Y-91930580D01*
X123915321Y-92165612D01*
X123807148Y-92426765D01*
X123752001Y-92704004D01*
X123752001Y-92986674D01*
X123807148Y-93263913D01*
X123915321Y-93525066D01*
X124072364Y-93760098D01*
X124192464Y-93880198D01*
X124106999Y-93950337D01*
X124083200Y-93979336D01*
X123551002Y-94511535D01*
X123521999Y-94535337D01*
X123482884Y-94582999D01*
X123427026Y-94651062D01*
X123383535Y-94732428D01*
X123356454Y-94783092D01*
X123312997Y-94926353D01*
X123302000Y-95038006D01*
X123302000Y-95038016D01*
X123298324Y-95075338D01*
X118008000Y-95075338D01*
X118008000Y-86347838D01*
X124939107Y-86347838D01*
X125155229Y-86714597D01*
X125615106Y-86955277D01*
X126113099Y-87101614D01*
X126630072Y-87147987D01*
X127146160Y-87092612D01*
X127641527Y-86937618D01*
X128058773Y-86714597D01*
X128274895Y-86347838D01*
X126607001Y-84679944D01*
X124939107Y-86347838D01*
X118008000Y-86347838D01*
X118008000Y-84523410D01*
X123959353Y-84523410D01*
X124014728Y-85039498D01*
X124169722Y-85534865D01*
X124392743Y-85952111D01*
X124759502Y-86168233D01*
X126427396Y-84500339D01*
X126786606Y-84500339D01*
X128454500Y-86168233D01*
X128821259Y-85952111D01*
X129061939Y-85492234D01*
X129208276Y-84994241D01*
X129254649Y-84477268D01*
X129199274Y-83961180D01*
X129044280Y-83465813D01*
X128821259Y-83048567D01*
X128454500Y-82832445D01*
X126786606Y-84500339D01*
X126427396Y-84500339D01*
X124759502Y-82832445D01*
X124392743Y-83048567D01*
X124152063Y-83508444D01*
X124005726Y-84006437D01*
X123959353Y-84523410D01*
X118008000Y-84523410D01*
X118008000Y-82652840D01*
X124939107Y-82652840D01*
X126607001Y-84320734D01*
X128274895Y-82652840D01*
X128058773Y-82286081D01*
X127598896Y-82045401D01*
X127100903Y-81899064D01*
X126583930Y-81852691D01*
X126067842Y-81908066D01*
X125572475Y-82063060D01*
X125155229Y-82286081D01*
X124939107Y-82652840D01*
X118008000Y-82652840D01*
X118008000Y-81686000D01*
X129896000Y-81686000D01*
X129896001Y-86835571D01*
G37*
%TD.AperFunction*%
%TD*%
D18*
%TO.N,GND*%
X129896001Y-86835571D02*
X129892807Y-86868000D01*
X129905550Y-86997383D01*
X129943290Y-87121793D01*
X130004575Y-87236450D01*
X130087052Y-87336948D01*
X130187550Y-87419425D01*
X130302207Y-87480710D01*
X130426617Y-87518450D01*
X130523581Y-87528000D01*
X130556000Y-87531193D01*
X130588419Y-87528000D01*
X148623402Y-87528000D01*
X148584164Y-87544514D01*
X148423301Y-87868210D01*
X148328678Y-88217069D01*
X148303933Y-88577684D01*
X148350015Y-88936198D01*
X148465154Y-89278833D01*
X148584164Y-89501486D01*
X148869020Y-89621374D01*
X149967395Y-88523000D01*
X149953252Y-88508858D01*
X150132858Y-88329252D01*
X150147000Y-88343395D01*
X150161142Y-88329252D01*
X150340748Y-88508858D01*
X150326605Y-88523000D01*
X151424980Y-89621374D01*
X151709836Y-89501486D01*
X151791238Y-89337684D01*
X153893933Y-89337684D01*
X153940015Y-89696198D01*
X154055154Y-90038833D01*
X154174164Y-90261486D01*
X154459020Y-90381374D01*
X155557395Y-89283000D01*
X155916605Y-89283000D01*
X157014980Y-90381374D01*
X157299836Y-90261486D01*
X157460699Y-89937790D01*
X157555322Y-89588931D01*
X157580067Y-89228316D01*
X157533985Y-88869802D01*
X157418846Y-88527167D01*
X157299836Y-88304514D01*
X157014980Y-88184626D01*
X155916605Y-89283000D01*
X155557395Y-89283000D01*
X154459020Y-88184626D01*
X154174164Y-88304514D01*
X154013301Y-88628210D01*
X153918678Y-88977069D01*
X153893933Y-89337684D01*
X151791238Y-89337684D01*
X151870699Y-89177790D01*
X151965322Y-88828931D01*
X151990067Y-88468316D01*
X151943985Y-88109802D01*
X151828846Y-87767167D01*
X151709836Y-87544514D01*
X151670598Y-87528000D01*
X155198861Y-87528000D01*
X154981167Y-87601154D01*
X154758514Y-87720164D01*
X154638626Y-88005020D01*
X155737000Y-89103395D01*
X156835374Y-88005020D01*
X156715486Y-87720164D01*
X156391790Y-87559301D01*
X156276389Y-87528000D01*
X164623402Y-87528000D01*
X164584164Y-87544514D01*
X164423301Y-87868210D01*
X164328678Y-88217069D01*
X164303933Y-88577684D01*
X164350015Y-88936198D01*
X164465154Y-89278833D01*
X164584164Y-89501486D01*
X164869020Y-89621374D01*
X165967395Y-88523000D01*
X165953252Y-88508858D01*
X166132858Y-88329252D01*
X166147000Y-88343395D01*
X166161142Y-88329252D01*
X166340748Y-88508858D01*
X166326605Y-88523000D01*
X167424980Y-89621374D01*
X167709836Y-89501486D01*
X167870699Y-89177790D01*
X167965322Y-88828931D01*
X167990067Y-88468316D01*
X167943985Y-88109802D01*
X167828846Y-87767167D01*
X167709836Y-87544514D01*
X167670598Y-87528000D01*
X172314000Y-87528000D01*
X172314001Y-106528000D01*
X167670598Y-106528000D01*
X167709836Y-106511486D01*
X167870699Y-106187790D01*
X167965322Y-105838931D01*
X167990067Y-105478316D01*
X167943985Y-105119802D01*
X167828846Y-104777167D01*
X167709836Y-104554514D01*
X167424980Y-104434626D01*
X166326605Y-105533000D01*
X166340748Y-105547142D01*
X166161142Y-105726748D01*
X166147000Y-105712605D01*
X166132858Y-105726748D01*
X165953252Y-105547142D01*
X165967395Y-105533000D01*
X164869020Y-104434626D01*
X164584164Y-104554514D01*
X164423301Y-104878210D01*
X164328678Y-105227069D01*
X164303933Y-105587684D01*
X164350015Y-105946198D01*
X164465154Y-106288833D01*
X164584164Y-106511486D01*
X164623402Y-106528000D01*
X152975139Y-106528000D01*
X153192833Y-106454846D01*
X153415486Y-106335836D01*
X153535374Y-106050980D01*
X152437000Y-104952605D01*
X151338626Y-106050980D01*
X151458514Y-106335836D01*
X151782210Y-106496699D01*
X151897611Y-106528000D01*
X147610598Y-106528000D01*
X147649836Y-106511486D01*
X147810699Y-106187790D01*
X147905322Y-105838931D01*
X147930067Y-105478316D01*
X147883985Y-105119802D01*
X147768846Y-104777167D01*
X147649836Y-104554514D01*
X147364980Y-104434626D01*
X146266605Y-105533000D01*
X146280748Y-105547142D01*
X146101142Y-105726748D01*
X146087000Y-105712605D01*
X146072858Y-105726748D01*
X145893252Y-105547142D01*
X145907395Y-105533000D01*
X144809020Y-104434626D01*
X144524164Y-104554514D01*
X144363301Y-104878210D01*
X144268678Y-105227069D01*
X144243933Y-105587684D01*
X144290015Y-105946198D01*
X144405154Y-106288833D01*
X144524164Y-106511486D01*
X144563402Y-106528000D01*
X130588419Y-106528000D01*
X130556000Y-106524807D01*
X130523581Y-106528000D01*
X130426617Y-106537550D01*
X130302207Y-106575290D01*
X130187550Y-106636575D01*
X130087052Y-106719052D01*
X130004575Y-106819550D01*
X129943290Y-106934207D01*
X129905550Y-107058617D01*
X129892807Y-107188000D01*
X129896000Y-107220419D01*
X129896001Y-112370000D01*
X118008000Y-112370000D01*
X118008000Y-111347838D01*
X124939107Y-111347838D01*
X125155229Y-111714597D01*
X125615106Y-111955277D01*
X126113099Y-112101614D01*
X126630072Y-112147987D01*
X127146160Y-112092612D01*
X127641527Y-111937618D01*
X128058773Y-111714597D01*
X128274895Y-111347838D01*
X126607001Y-109679944D01*
X124939107Y-111347838D01*
X118008000Y-111347838D01*
X118008000Y-109523410D01*
X123959353Y-109523410D01*
X124014728Y-110039498D01*
X124169722Y-110534865D01*
X124392743Y-110952111D01*
X124759502Y-111168233D01*
X126427396Y-109500339D01*
X126786606Y-109500339D01*
X128454500Y-111168233D01*
X128821259Y-110952111D01*
X129061939Y-110492234D01*
X129208276Y-109994241D01*
X129254649Y-109477268D01*
X129199274Y-108961180D01*
X129044280Y-108465813D01*
X128821259Y-108048567D01*
X128454500Y-107832445D01*
X126786606Y-109500339D01*
X126427396Y-109500339D01*
X124759502Y-107832445D01*
X124392743Y-108048567D01*
X124152063Y-108508444D01*
X124005726Y-109006437D01*
X123959353Y-109523410D01*
X118008000Y-109523410D01*
X118008000Y-107652840D01*
X124939107Y-107652840D01*
X126607001Y-109320734D01*
X128274895Y-107652840D01*
X128058773Y-107286081D01*
X127598896Y-107045401D01*
X127100903Y-106899064D01*
X126583930Y-106852691D01*
X126067842Y-106908066D01*
X125572475Y-107063060D01*
X125155229Y-107286081D01*
X124939107Y-107652840D01*
X118008000Y-107652840D01*
X118008000Y-95075338D01*
X123298324Y-95075338D01*
X123302000Y-95112661D01*
X123302001Y-97223006D01*
X123298324Y-97260338D01*
X123302001Y-97297671D01*
X123310406Y-97383002D01*
X123312998Y-97409323D01*
X123356454Y-97552584D01*
X123427026Y-97684614D01*
X123498201Y-97771340D01*
X123522000Y-97800339D01*
X123550998Y-97824137D01*
X123788313Y-98061452D01*
X123752001Y-98244004D01*
X123752001Y-98526674D01*
X123788313Y-98709226D01*
X123498201Y-98999338D01*
X123427026Y-99086064D01*
X123356454Y-99218094D01*
X123312998Y-99361355D01*
X123298324Y-99510340D01*
X123312998Y-99659325D01*
X123356454Y-99802586D01*
X123427026Y-99934616D01*
X123521999Y-100050341D01*
X123637724Y-100145314D01*
X123769754Y-100215886D01*
X123913015Y-100259342D01*
X124050762Y-100272909D01*
X123915321Y-100475612D01*
X123807148Y-100736765D01*
X123752001Y-101014004D01*
X123752001Y-101296674D01*
X123807148Y-101573913D01*
X123915321Y-101835066D01*
X124072364Y-102070098D01*
X124272242Y-102269976D01*
X124507274Y-102427019D01*
X124768427Y-102535192D01*
X125045666Y-102590339D01*
X125328336Y-102590339D01*
X125605575Y-102535192D01*
X125866728Y-102427019D01*
X126101760Y-102269976D01*
X126301638Y-102070098D01*
X126458681Y-101835066D01*
X126566854Y-101573913D01*
X126622001Y-101296674D01*
X126622001Y-101014004D01*
X126566854Y-100736765D01*
X126458681Y-100475612D01*
X126301638Y-100240580D01*
X126173415Y-100112357D01*
X126592001Y-99693771D01*
X126592001Y-99911674D01*
X126647148Y-100188913D01*
X126755321Y-100450066D01*
X126912364Y-100685098D01*
X127112242Y-100884976D01*
X127347274Y-101042019D01*
X127608427Y-101150192D01*
X127634302Y-101155339D01*
X127608427Y-101160486D01*
X127347274Y-101268659D01*
X127112242Y-101425702D01*
X126912364Y-101625580D01*
X126755321Y-101860612D01*
X126647148Y-102121765D01*
X126592001Y-102399004D01*
X126592001Y-102681674D01*
X126647148Y-102958913D01*
X126755321Y-103220066D01*
X126912364Y-103455098D01*
X127112242Y-103654976D01*
X127347274Y-103812019D01*
X127608427Y-103920192D01*
X127885666Y-103975339D01*
X128168336Y-103975339D01*
X128445575Y-103920192D01*
X128706728Y-103812019D01*
X128941760Y-103654976D01*
X129141638Y-103455098D01*
X129298681Y-103220066D01*
X129339301Y-103122000D01*
X134299893Y-103122000D01*
X134228525Y-103193368D01*
X134066010Y-103436589D01*
X133954068Y-103706842D01*
X133897000Y-103993740D01*
X133897000Y-104286260D01*
X133954068Y-104573158D01*
X134066010Y-104843411D01*
X134228525Y-105086632D01*
X134435368Y-105293475D01*
X134678589Y-105455990D01*
X134948842Y-105567932D01*
X135235740Y-105625000D01*
X135528260Y-105625000D01*
X135815158Y-105567932D01*
X136085411Y-105455990D01*
X136328632Y-105293475D01*
X136460487Y-105161620D01*
X136482498Y-105234180D01*
X136541463Y-105344494D01*
X136620815Y-105441185D01*
X136717506Y-105520537D01*
X136827820Y-105579502D01*
X136947518Y-105615812D01*
X137072000Y-105628072D01*
X138772000Y-105628072D01*
X138896482Y-105615812D01*
X139016180Y-105579502D01*
X139126494Y-105520537D01*
X139223185Y-105441185D01*
X139302537Y-105344494D01*
X139361502Y-105234180D01*
X139397812Y-105114482D01*
X139410072Y-104990000D01*
X139410072Y-103290000D01*
X139397812Y-103165518D01*
X139384611Y-103122000D01*
X142941199Y-103122000D01*
X143282211Y-103463013D01*
X143306010Y-103492012D01*
X143335008Y-103515810D01*
X143421735Y-103586985D01*
X143553764Y-103657557D01*
X143697025Y-103701014D01*
X143846011Y-103715688D01*
X143883344Y-103712011D01*
X145860551Y-103712011D01*
X145673802Y-103736015D01*
X145331167Y-103851154D01*
X145108514Y-103970164D01*
X144988626Y-104255020D01*
X146087000Y-105353395D01*
X147185374Y-104255020D01*
X147065486Y-103970164D01*
X146741790Y-103809301D01*
X146392931Y-103714678D01*
X146354064Y-103712011D01*
X151070193Y-103712011D01*
X150874164Y-103794514D01*
X150713301Y-104118210D01*
X150618678Y-104467069D01*
X150593933Y-104827684D01*
X150640015Y-105186198D01*
X150755154Y-105528833D01*
X150874164Y-105751486D01*
X151159020Y-105871374D01*
X152257395Y-104773000D01*
X152243252Y-104758858D01*
X152422858Y-104579252D01*
X152437000Y-104593395D01*
X152451142Y-104579252D01*
X152630748Y-104758858D01*
X152616605Y-104773000D01*
X153714980Y-105871374D01*
X153999836Y-105751486D01*
X154160699Y-105427790D01*
X154255322Y-105078931D01*
X154280067Y-104718316D01*
X154233985Y-104359802D01*
X154118846Y-104017167D01*
X153999836Y-103794514D01*
X153803807Y-103712011D01*
X155869999Y-103712011D01*
X155907321Y-103715687D01*
X155944643Y-103712011D01*
X155944654Y-103712011D01*
X156056307Y-103701014D01*
X156199568Y-103657557D01*
X156331597Y-103586985D01*
X156447322Y-103492012D01*
X156471124Y-103463009D01*
X157217017Y-102717117D01*
X157246010Y-102693323D01*
X157269804Y-102664330D01*
X157269809Y-102664325D01*
X157340984Y-102577598D01*
X157371552Y-102520409D01*
X159317000Y-102520409D01*
X159317000Y-102965591D01*
X159403851Y-103402218D01*
X159574214Y-103813511D01*
X159821544Y-104183666D01*
X160136334Y-104498456D01*
X160506489Y-104745786D01*
X160917782Y-104916149D01*
X161354409Y-105003000D01*
X161799591Y-105003000D01*
X162236218Y-104916149D01*
X162647511Y-104745786D01*
X163017666Y-104498456D01*
X163261102Y-104255020D01*
X165048626Y-104255020D01*
X166147000Y-105353395D01*
X167245374Y-104255020D01*
X167125486Y-103970164D01*
X166801790Y-103809301D01*
X166452931Y-103714678D01*
X166092316Y-103689933D01*
X165733802Y-103736015D01*
X165391167Y-103851154D01*
X165168514Y-103970164D01*
X165048626Y-104255020D01*
X163261102Y-104255020D01*
X163332456Y-104183666D01*
X163579786Y-103813511D01*
X163750149Y-103402218D01*
X163837000Y-102965591D01*
X163837000Y-102520409D01*
X163750149Y-102083782D01*
X163579786Y-101672489D01*
X163332456Y-101302334D01*
X163017666Y-100987544D01*
X162647511Y-100740214D01*
X162236218Y-100569851D01*
X161799591Y-100483000D01*
X161354409Y-100483000D01*
X160917782Y-100569851D01*
X160506489Y-100740214D01*
X160136334Y-100987544D01*
X159821544Y-101302334D01*
X159574214Y-101672489D01*
X159403851Y-102083782D01*
X159317000Y-102520409D01*
X157371552Y-102520409D01*
X157411556Y-102445569D01*
X157455012Y-102302308D01*
X157469686Y-102153322D01*
X157466009Y-102115990D01*
X157466011Y-98926413D01*
X157469687Y-98889090D01*
X157466011Y-98851767D01*
X157466011Y-98851758D01*
X157455014Y-98740105D01*
X157422827Y-98633998D01*
X157411557Y-98596843D01*
X157340985Y-98464813D01*
X157269810Y-98378087D01*
X157269806Y-98378083D01*
X157246012Y-98349090D01*
X157217020Y-98325297D01*
X156284720Y-97392996D01*
X156260922Y-97363998D01*
X156199798Y-97313834D01*
X156267069Y-97246563D01*
X156413607Y-97027254D01*
X156514543Y-96783572D01*
X156566000Y-96524880D01*
X156566000Y-96261120D01*
X156514543Y-96002428D01*
X156413607Y-95758746D01*
X156267069Y-95539437D01*
X156080563Y-95352931D01*
X155861254Y-95206393D01*
X155659925Y-95123000D01*
X155861254Y-95039607D01*
X156080563Y-94893069D01*
X156267069Y-94706563D01*
X156413607Y-94487254D01*
X156514543Y-94243572D01*
X156566000Y-93984880D01*
X156566000Y-93721120D01*
X156514543Y-93462428D01*
X156413607Y-93218746D01*
X156267069Y-92999437D01*
X156080563Y-92812931D01*
X155861254Y-92666393D01*
X155617572Y-92565457D01*
X155358880Y-92514000D01*
X155095120Y-92514000D01*
X154836428Y-92565457D01*
X154592746Y-92666393D01*
X154373437Y-92812931D01*
X154186931Y-92999437D01*
X154040393Y-93218746D01*
X153939457Y-93462428D01*
X153888000Y-93721120D01*
X153888000Y-93984880D01*
X153939457Y-94243572D01*
X154040393Y-94487254D01*
X154186931Y-94706563D01*
X154373437Y-94893069D01*
X154592746Y-95039607D01*
X154794075Y-95123000D01*
X154592746Y-95206393D01*
X154373437Y-95352931D01*
X154186931Y-95539437D01*
X154040393Y-95758746D01*
X153939457Y-96002428D01*
X153890707Y-96247512D01*
X153673414Y-96030218D01*
X153727069Y-95976563D01*
X153873607Y-95757254D01*
X153974543Y-95513572D01*
X154026000Y-95254880D01*
X154026000Y-94991120D01*
X153974543Y-94732428D01*
X153873607Y-94488746D01*
X153727069Y-94269437D01*
X153540563Y-94082931D01*
X153321254Y-93936393D01*
X153119925Y-93853000D01*
X153321254Y-93769607D01*
X153540563Y-93623069D01*
X153727069Y-93436563D01*
X153873607Y-93217254D01*
X153974543Y-92973572D01*
X154026000Y-92714880D01*
X154026000Y-92451120D01*
X153974543Y-92192428D01*
X153873607Y-91948746D01*
X153727069Y-91729437D01*
X153540563Y-91542931D01*
X153321254Y-91396393D01*
X153077572Y-91295457D01*
X152818880Y-91244000D01*
X152555120Y-91244000D01*
X152296428Y-91295457D01*
X152052746Y-91396393D01*
X151833437Y-91542931D01*
X151646931Y-91729437D01*
X151500393Y-91948746D01*
X151399457Y-92192428D01*
X151348000Y-92451120D01*
X151348000Y-92714880D01*
X151399457Y-92973572D01*
X151500393Y-93217254D01*
X151646931Y-93436563D01*
X151833437Y-93623069D01*
X152052746Y-93769607D01*
X152254075Y-93853000D01*
X152052746Y-93936393D01*
X151833437Y-94082931D01*
X151646931Y-94269437D01*
X151644620Y-94272896D01*
X147932704Y-90560980D01*
X154638626Y-90560980D01*
X154758514Y-90845836D01*
X155082210Y-91006699D01*
X155431069Y-91101322D01*
X155791684Y-91126067D01*
X156069100Y-91090409D01*
X159317000Y-91090409D01*
X159317000Y-91535591D01*
X159403851Y-91972218D01*
X159574214Y-92383511D01*
X159821544Y-92753666D01*
X160136334Y-93068456D01*
X160506489Y-93315786D01*
X160917782Y-93486149D01*
X161354409Y-93573000D01*
X161799591Y-93573000D01*
X162236218Y-93486149D01*
X162647511Y-93315786D01*
X163017666Y-93068456D01*
X163332456Y-92753666D01*
X163579786Y-92383511D01*
X163750149Y-91972218D01*
X163837000Y-91535591D01*
X163837000Y-91090409D01*
X163750149Y-90653782D01*
X163579786Y-90242489D01*
X163332456Y-89872334D01*
X163261102Y-89800980D01*
X165048626Y-89800980D01*
X165168514Y-90085836D01*
X165492210Y-90246699D01*
X165841069Y-90341322D01*
X166201684Y-90366067D01*
X166560198Y-90319985D01*
X166902833Y-90204846D01*
X167125486Y-90085836D01*
X167245374Y-89800980D01*
X166147000Y-88702605D01*
X165048626Y-89800980D01*
X163261102Y-89800980D01*
X163017666Y-89557544D01*
X162647511Y-89310214D01*
X162236218Y-89139851D01*
X161799591Y-89053000D01*
X161354409Y-89053000D01*
X160917782Y-89139851D01*
X160506489Y-89310214D01*
X160136334Y-89557544D01*
X159821544Y-89872334D01*
X159574214Y-90242489D01*
X159403851Y-90653782D01*
X159317000Y-91090409D01*
X156069100Y-91090409D01*
X156150198Y-91079985D01*
X156492833Y-90964846D01*
X156715486Y-90845836D01*
X156835374Y-90560980D01*
X155737000Y-89462605D01*
X154638626Y-90560980D01*
X147932704Y-90560980D01*
X147172704Y-89800980D01*
X149048626Y-89800980D01*
X149168514Y-90085836D01*
X149492210Y-90246699D01*
X149841069Y-90341322D01*
X150201684Y-90366067D01*
X150560198Y-90319985D01*
X150902833Y-90204846D01*
X151125486Y-90085836D01*
X151245374Y-89800980D01*
X150147000Y-88702605D01*
X149048626Y-89800980D01*
X147172704Y-89800980D01*
X146776726Y-89405003D01*
X146752923Y-89375999D01*
X146637198Y-89281026D01*
X146505169Y-89210454D01*
X146361908Y-89166997D01*
X146250255Y-89156000D01*
X146250244Y-89156000D01*
X146212922Y-89152324D01*
X146175600Y-89156000D01*
X139410072Y-89156000D01*
X139410072Y-89066000D01*
X139397812Y-88941518D01*
X139361502Y-88821820D01*
X139302537Y-88711506D01*
X139223185Y-88614815D01*
X139126494Y-88535463D01*
X139016180Y-88476498D01*
X138896482Y-88440188D01*
X138772000Y-88427928D01*
X137072000Y-88427928D01*
X136947518Y-88440188D01*
X136827820Y-88476498D01*
X136717506Y-88535463D01*
X136620815Y-88614815D01*
X136541463Y-88711506D01*
X136482498Y-88821820D01*
X136460487Y-88894380D01*
X136328632Y-88762525D01*
X136085411Y-88600010D01*
X135815158Y-88488068D01*
X135528260Y-88431000D01*
X135235740Y-88431000D01*
X134948842Y-88488068D01*
X134678589Y-88600010D01*
X134435368Y-88762525D01*
X134228525Y-88969368D01*
X134066010Y-89212589D01*
X133954068Y-89482842D01*
X133897000Y-89769740D01*
X133897000Y-90062260D01*
X133954068Y-90349158D01*
X134066010Y-90619411D01*
X134228525Y-90862632D01*
X134435368Y-91069475D01*
X134678589Y-91231990D01*
X134948842Y-91343932D01*
X135235740Y-91401000D01*
X135528260Y-91401000D01*
X135815158Y-91343932D01*
X136085411Y-91231990D01*
X136328632Y-91069475D01*
X136460487Y-90937620D01*
X136482498Y-91010180D01*
X136541463Y-91120494D01*
X136620815Y-91217185D01*
X136717506Y-91296537D01*
X136827820Y-91355502D01*
X136947518Y-91391812D01*
X137072000Y-91404072D01*
X138772000Y-91404072D01*
X138896482Y-91391812D01*
X139016180Y-91355502D01*
X139126494Y-91296537D01*
X139223185Y-91217185D01*
X139302537Y-91120494D01*
X139361502Y-91010180D01*
X139397812Y-90890482D01*
X139410072Y-90766000D01*
X139410072Y-90676000D01*
X145898121Y-90676000D01*
X146545866Y-91323745D01*
X146477572Y-91295457D01*
X146218880Y-91244000D01*
X145955120Y-91244000D01*
X145696428Y-91295457D01*
X145452746Y-91396393D01*
X145233437Y-91542931D01*
X145046931Y-91729437D01*
X144984414Y-91823000D01*
X129465073Y-91823000D01*
X129465073Y-90660339D01*
X129452813Y-90535857D01*
X129416503Y-90416159D01*
X129357538Y-90305845D01*
X129278186Y-90209154D01*
X129181495Y-90129802D01*
X129071181Y-90070837D01*
X128951483Y-90034527D01*
X128827001Y-90022267D01*
X127227001Y-90022267D01*
X127102519Y-90034527D01*
X126982821Y-90070837D01*
X126872507Y-90129802D01*
X126775816Y-90209154D01*
X126696464Y-90305845D01*
X126637499Y-90416159D01*
X126601189Y-90535857D01*
X126588929Y-90660339D01*
X126588929Y-92260339D01*
X126601189Y-92384821D01*
X126637499Y-92504519D01*
X126696464Y-92614833D01*
X126775816Y-92711524D01*
X126872507Y-92790876D01*
X126982821Y-92849841D01*
X127102519Y-92886151D01*
X127227001Y-92898411D01*
X127492726Y-92898411D01*
X127347274Y-92958659D01*
X127112242Y-93115702D01*
X126912364Y-93315580D01*
X126756023Y-93549561D01*
X126538596Y-93332134D01*
X126566854Y-93263913D01*
X126622001Y-92986674D01*
X126622001Y-92704004D01*
X126566854Y-92426765D01*
X126458681Y-92165612D01*
X126301638Y-91930580D01*
X126101760Y-91730702D01*
X125866728Y-91573659D01*
X125605575Y-91465486D01*
X125328336Y-91410339D01*
X125045666Y-91410339D01*
X124768427Y-91465486D01*
X124507274Y-91573659D01*
X124272242Y-91730702D01*
X124072364Y-91930580D01*
X123915321Y-92165612D01*
X123807148Y-92426765D01*
X123752001Y-92704004D01*
X123752001Y-92986674D01*
X123807148Y-93263913D01*
X123915321Y-93525066D01*
X124072364Y-93760098D01*
X124192464Y-93880198D01*
X124106999Y-93950337D01*
X124083200Y-93979336D01*
X123551002Y-94511535D01*
X123521999Y-94535337D01*
X123482884Y-94582999D01*
X123427026Y-94651062D01*
X123383535Y-94732428D01*
X123356454Y-94783092D01*
X123312997Y-94926353D01*
X123302000Y-95038006D01*
X123302000Y-95038016D01*
X123298324Y-95075338D01*
X118008000Y-95075338D01*
X118008000Y-86347838D01*
X124939107Y-86347838D01*
X125155229Y-86714597D01*
X125615106Y-86955277D01*
X126113099Y-87101614D01*
X126630072Y-87147987D01*
X127146160Y-87092612D01*
X127641527Y-86937618D01*
X128058773Y-86714597D01*
X128274895Y-86347838D01*
X126607001Y-84679944D01*
X124939107Y-86347838D01*
X118008000Y-86347838D01*
X118008000Y-84523410D01*
X123959353Y-84523410D01*
X124014728Y-85039498D01*
X124169722Y-85534865D01*
X124392743Y-85952111D01*
X124759502Y-86168233D01*
X126427396Y-84500339D01*
X126786606Y-84500339D01*
X128454500Y-86168233D01*
X128821259Y-85952111D01*
X129061939Y-85492234D01*
X129208276Y-84994241D01*
X129254649Y-84477268D01*
X129199274Y-83961180D01*
X129044280Y-83465813D01*
X128821259Y-83048567D01*
X128454500Y-82832445D01*
X126786606Y-84500339D01*
X126427396Y-84500339D01*
X124759502Y-82832445D01*
X124392743Y-83048567D01*
X124152063Y-83508444D01*
X124005726Y-84006437D01*
X123959353Y-84523410D01*
X118008000Y-84523410D01*
X118008000Y-82652840D01*
X124939107Y-82652840D01*
X126607001Y-84320734D01*
X128274895Y-82652840D01*
X128058773Y-82286081D01*
X127598896Y-82045401D01*
X127100903Y-81899064D01*
X126583930Y-81852691D01*
X126067842Y-81908066D01*
X125572475Y-82063060D01*
X125155229Y-82286081D01*
X124939107Y-82652840D01*
X118008000Y-82652840D01*
X118008000Y-81686000D01*
X129896000Y-81686000D01*
X129896001Y-86835571D01*
%TA.AperFunction,Conductor*%
D19*
G36*
X129896001Y-86835571D02*
G01*
X129892807Y-86868000D01*
X129905550Y-86997383D01*
X129943290Y-87121793D01*
X130004575Y-87236450D01*
X130087052Y-87336948D01*
X130187550Y-87419425D01*
X130302207Y-87480710D01*
X130426617Y-87518450D01*
X130523581Y-87528000D01*
X130556000Y-87531193D01*
X130588419Y-87528000D01*
X148623402Y-87528000D01*
X148584164Y-87544514D01*
X148423301Y-87868210D01*
X148328678Y-88217069D01*
X148303933Y-88577684D01*
X148350015Y-88936198D01*
X148465154Y-89278833D01*
X148584164Y-89501486D01*
X148869020Y-89621374D01*
X149967395Y-88523000D01*
X149953252Y-88508858D01*
X150132858Y-88329252D01*
X150147000Y-88343395D01*
X150161142Y-88329252D01*
X150340748Y-88508858D01*
X150326605Y-88523000D01*
X151424980Y-89621374D01*
X151709836Y-89501486D01*
X151791238Y-89337684D01*
X153893933Y-89337684D01*
X153940015Y-89696198D01*
X154055154Y-90038833D01*
X154174164Y-90261486D01*
X154459020Y-90381374D01*
X155557395Y-89283000D01*
X155916605Y-89283000D01*
X157014980Y-90381374D01*
X157299836Y-90261486D01*
X157460699Y-89937790D01*
X157555322Y-89588931D01*
X157580067Y-89228316D01*
X157533985Y-88869802D01*
X157418846Y-88527167D01*
X157299836Y-88304514D01*
X157014980Y-88184626D01*
X155916605Y-89283000D01*
X155557395Y-89283000D01*
X154459020Y-88184626D01*
X154174164Y-88304514D01*
X154013301Y-88628210D01*
X153918678Y-88977069D01*
X153893933Y-89337684D01*
X151791238Y-89337684D01*
X151870699Y-89177790D01*
X151965322Y-88828931D01*
X151990067Y-88468316D01*
X151943985Y-88109802D01*
X151828846Y-87767167D01*
X151709836Y-87544514D01*
X151670598Y-87528000D01*
X155198861Y-87528000D01*
X154981167Y-87601154D01*
X154758514Y-87720164D01*
X154638626Y-88005020D01*
X155737000Y-89103395D01*
X156835374Y-88005020D01*
X156715486Y-87720164D01*
X156391790Y-87559301D01*
X156276389Y-87528000D01*
X164623402Y-87528000D01*
X164584164Y-87544514D01*
X164423301Y-87868210D01*
X164328678Y-88217069D01*
X164303933Y-88577684D01*
X164350015Y-88936198D01*
X164465154Y-89278833D01*
X164584164Y-89501486D01*
X164869020Y-89621374D01*
X165967395Y-88523000D01*
X165953252Y-88508858D01*
X166132858Y-88329252D01*
X166147000Y-88343395D01*
X166161142Y-88329252D01*
X166340748Y-88508858D01*
X166326605Y-88523000D01*
X167424980Y-89621374D01*
X167709836Y-89501486D01*
X167870699Y-89177790D01*
X167965322Y-88828931D01*
X167990067Y-88468316D01*
X167943985Y-88109802D01*
X167828846Y-87767167D01*
X167709836Y-87544514D01*
X167670598Y-87528000D01*
X172314000Y-87528000D01*
X172314001Y-106528000D01*
X167670598Y-106528000D01*
X167709836Y-106511486D01*
X167870699Y-106187790D01*
X167965322Y-105838931D01*
X167990067Y-105478316D01*
X167943985Y-105119802D01*
X167828846Y-104777167D01*
X167709836Y-104554514D01*
X167424980Y-104434626D01*
X166326605Y-105533000D01*
X166340748Y-105547142D01*
X166161142Y-105726748D01*
X166147000Y-105712605D01*
X166132858Y-105726748D01*
X165953252Y-105547142D01*
X165967395Y-105533000D01*
X164869020Y-104434626D01*
X164584164Y-104554514D01*
X164423301Y-104878210D01*
X164328678Y-105227069D01*
X164303933Y-105587684D01*
X164350015Y-105946198D01*
X164465154Y-106288833D01*
X164584164Y-106511486D01*
X164623402Y-106528000D01*
X152975139Y-106528000D01*
X153192833Y-106454846D01*
X153415486Y-106335836D01*
X153535374Y-106050980D01*
X152437000Y-104952605D01*
X151338626Y-106050980D01*
X151458514Y-106335836D01*
X151782210Y-106496699D01*
X151897611Y-106528000D01*
X147610598Y-106528000D01*
X147649836Y-106511486D01*
X147810699Y-106187790D01*
X147905322Y-105838931D01*
X147930067Y-105478316D01*
X147883985Y-105119802D01*
X147768846Y-104777167D01*
X147649836Y-104554514D01*
X147364980Y-104434626D01*
X146266605Y-105533000D01*
X146280748Y-105547142D01*
X146101142Y-105726748D01*
X146087000Y-105712605D01*
X146072858Y-105726748D01*
X145893252Y-105547142D01*
X145907395Y-105533000D01*
X144809020Y-104434626D01*
X144524164Y-104554514D01*
X144363301Y-104878210D01*
X144268678Y-105227069D01*
X144243933Y-105587684D01*
X144290015Y-105946198D01*
X144405154Y-106288833D01*
X144524164Y-106511486D01*
X144563402Y-106528000D01*
X130588419Y-106528000D01*
X130556000Y-106524807D01*
X130523581Y-106528000D01*
X130426617Y-106537550D01*
X130302207Y-106575290D01*
X130187550Y-106636575D01*
X130087052Y-106719052D01*
X130004575Y-106819550D01*
X129943290Y-106934207D01*
X129905550Y-107058617D01*
X129892807Y-107188000D01*
X129896000Y-107220419D01*
X129896001Y-112370000D01*
X118008000Y-112370000D01*
X118008000Y-111347838D01*
X124939107Y-111347838D01*
X125155229Y-111714597D01*
X125615106Y-111955277D01*
X126113099Y-112101614D01*
X126630072Y-112147987D01*
X127146160Y-112092612D01*
X127641527Y-111937618D01*
X128058773Y-111714597D01*
X128274895Y-111347838D01*
X126607001Y-109679944D01*
X124939107Y-111347838D01*
X118008000Y-111347838D01*
X118008000Y-109523410D01*
X123959353Y-109523410D01*
X124014728Y-110039498D01*
X124169722Y-110534865D01*
X124392743Y-110952111D01*
X124759502Y-111168233D01*
X126427396Y-109500339D01*
X126786606Y-109500339D01*
X128454500Y-111168233D01*
X128821259Y-110952111D01*
X129061939Y-110492234D01*
X129208276Y-109994241D01*
X129254649Y-109477268D01*
X129199274Y-108961180D01*
X129044280Y-108465813D01*
X128821259Y-108048567D01*
X128454500Y-107832445D01*
X126786606Y-109500339D01*
X126427396Y-109500339D01*
X124759502Y-107832445D01*
X124392743Y-108048567D01*
X124152063Y-108508444D01*
X124005726Y-109006437D01*
X123959353Y-109523410D01*
X118008000Y-109523410D01*
X118008000Y-107652840D01*
X124939107Y-107652840D01*
X126607001Y-109320734D01*
X128274895Y-107652840D01*
X128058773Y-107286081D01*
X127598896Y-107045401D01*
X127100903Y-106899064D01*
X126583930Y-106852691D01*
X126067842Y-106908066D01*
X125572475Y-107063060D01*
X125155229Y-107286081D01*
X124939107Y-107652840D01*
X118008000Y-107652840D01*
X118008000Y-95075338D01*
X123298324Y-95075338D01*
X123302000Y-95112661D01*
X123302001Y-97223006D01*
X123298324Y-97260338D01*
X123302001Y-97297671D01*
X123310406Y-97383002D01*
X123312998Y-97409323D01*
X123356454Y-97552584D01*
X123427026Y-97684614D01*
X123498201Y-97771340D01*
X123522000Y-97800339D01*
X123550998Y-97824137D01*
X123788313Y-98061452D01*
X123752001Y-98244004D01*
X123752001Y-98526674D01*
X123788313Y-98709226D01*
X123498201Y-98999338D01*
X123427026Y-99086064D01*
X123356454Y-99218094D01*
X123312998Y-99361355D01*
X123298324Y-99510340D01*
X123312998Y-99659325D01*
X123356454Y-99802586D01*
X123427026Y-99934616D01*
X123521999Y-100050341D01*
X123637724Y-100145314D01*
X123769754Y-100215886D01*
X123913015Y-100259342D01*
X124050762Y-100272909D01*
X123915321Y-100475612D01*
X123807148Y-100736765D01*
X123752001Y-101014004D01*
X123752001Y-101296674D01*
X123807148Y-101573913D01*
X123915321Y-101835066D01*
X124072364Y-102070098D01*
X124272242Y-102269976D01*
X124507274Y-102427019D01*
X124768427Y-102535192D01*
X125045666Y-102590339D01*
X125328336Y-102590339D01*
X125605575Y-102535192D01*
X125866728Y-102427019D01*
X126101760Y-102269976D01*
X126301638Y-102070098D01*
X126458681Y-101835066D01*
X126566854Y-101573913D01*
X126622001Y-101296674D01*
X126622001Y-101014004D01*
X126566854Y-100736765D01*
X126458681Y-100475612D01*
X126301638Y-100240580D01*
X126173415Y-100112357D01*
X126592001Y-99693771D01*
X126592001Y-99911674D01*
X126647148Y-100188913D01*
X126755321Y-100450066D01*
X126912364Y-100685098D01*
X127112242Y-100884976D01*
X127347274Y-101042019D01*
X127608427Y-101150192D01*
X127634302Y-101155339D01*
X127608427Y-101160486D01*
X127347274Y-101268659D01*
X127112242Y-101425702D01*
X126912364Y-101625580D01*
X126755321Y-101860612D01*
X126647148Y-102121765D01*
X126592001Y-102399004D01*
X126592001Y-102681674D01*
X126647148Y-102958913D01*
X126755321Y-103220066D01*
X126912364Y-103455098D01*
X127112242Y-103654976D01*
X127347274Y-103812019D01*
X127608427Y-103920192D01*
X127885666Y-103975339D01*
X128168336Y-103975339D01*
X128445575Y-103920192D01*
X128706728Y-103812019D01*
X128941760Y-103654976D01*
X129141638Y-103455098D01*
X129298681Y-103220066D01*
X129339301Y-103122000D01*
X134299893Y-103122000D01*
X134228525Y-103193368D01*
X134066010Y-103436589D01*
X133954068Y-103706842D01*
X133897000Y-103993740D01*
X133897000Y-104286260D01*
X133954068Y-104573158D01*
X134066010Y-104843411D01*
X134228525Y-105086632D01*
X134435368Y-105293475D01*
X134678589Y-105455990D01*
X134948842Y-105567932D01*
X135235740Y-105625000D01*
X135528260Y-105625000D01*
X135815158Y-105567932D01*
X136085411Y-105455990D01*
X136328632Y-105293475D01*
X136460487Y-105161620D01*
X136482498Y-105234180D01*
X136541463Y-105344494D01*
X136620815Y-105441185D01*
X136717506Y-105520537D01*
X136827820Y-105579502D01*
X136947518Y-105615812D01*
X137072000Y-105628072D01*
X138772000Y-105628072D01*
X138896482Y-105615812D01*
X139016180Y-105579502D01*
X139126494Y-105520537D01*
X139223185Y-105441185D01*
X139302537Y-105344494D01*
X139361502Y-105234180D01*
X139397812Y-105114482D01*
X139410072Y-104990000D01*
X139410072Y-103290000D01*
X139397812Y-103165518D01*
X139384611Y-103122000D01*
X142941199Y-103122000D01*
X143282211Y-103463013D01*
X143306010Y-103492012D01*
X143335008Y-103515810D01*
X143421735Y-103586985D01*
X143553764Y-103657557D01*
X143697025Y-103701014D01*
X143846011Y-103715688D01*
X143883344Y-103712011D01*
X145860551Y-103712011D01*
X145673802Y-103736015D01*
X145331167Y-103851154D01*
X145108514Y-103970164D01*
X144988626Y-104255020D01*
X146087000Y-105353395D01*
X147185374Y-104255020D01*
X147065486Y-103970164D01*
X146741790Y-103809301D01*
X146392931Y-103714678D01*
X146354064Y-103712011D01*
X151070193Y-103712011D01*
X150874164Y-103794514D01*
X150713301Y-104118210D01*
X150618678Y-104467069D01*
X150593933Y-104827684D01*
X150640015Y-105186198D01*
X150755154Y-105528833D01*
X150874164Y-105751486D01*
X151159020Y-105871374D01*
X152257395Y-104773000D01*
X152243252Y-104758858D01*
X152422858Y-104579252D01*
X152437000Y-104593395D01*
X152451142Y-104579252D01*
X152630748Y-104758858D01*
X152616605Y-104773000D01*
X153714980Y-105871374D01*
X153999836Y-105751486D01*
X154160699Y-105427790D01*
X154255322Y-105078931D01*
X154280067Y-104718316D01*
X154233985Y-104359802D01*
X154118846Y-104017167D01*
X153999836Y-103794514D01*
X153803807Y-103712011D01*
X155869999Y-103712011D01*
X155907321Y-103715687D01*
X155944643Y-103712011D01*
X155944654Y-103712011D01*
X156056307Y-103701014D01*
X156199568Y-103657557D01*
X156331597Y-103586985D01*
X156447322Y-103492012D01*
X156471124Y-103463009D01*
X157217017Y-102717117D01*
X157246010Y-102693323D01*
X157269804Y-102664330D01*
X157269809Y-102664325D01*
X157340984Y-102577598D01*
X157371552Y-102520409D01*
X159317000Y-102520409D01*
X159317000Y-102965591D01*
X159403851Y-103402218D01*
X159574214Y-103813511D01*
X159821544Y-104183666D01*
X160136334Y-104498456D01*
X160506489Y-104745786D01*
X160917782Y-104916149D01*
X161354409Y-105003000D01*
X161799591Y-105003000D01*
X162236218Y-104916149D01*
X162647511Y-104745786D01*
X163017666Y-104498456D01*
X163261102Y-104255020D01*
X165048626Y-104255020D01*
X166147000Y-105353395D01*
X167245374Y-104255020D01*
X167125486Y-103970164D01*
X166801790Y-103809301D01*
X166452931Y-103714678D01*
X166092316Y-103689933D01*
X165733802Y-103736015D01*
X165391167Y-103851154D01*
X165168514Y-103970164D01*
X165048626Y-104255020D01*
X163261102Y-104255020D01*
X163332456Y-104183666D01*
X163579786Y-103813511D01*
X163750149Y-103402218D01*
X163837000Y-102965591D01*
X163837000Y-102520409D01*
X163750149Y-102083782D01*
X163579786Y-101672489D01*
X163332456Y-101302334D01*
X163017666Y-100987544D01*
X162647511Y-100740214D01*
X162236218Y-100569851D01*
X161799591Y-100483000D01*
X161354409Y-100483000D01*
X160917782Y-100569851D01*
X160506489Y-100740214D01*
X160136334Y-100987544D01*
X159821544Y-101302334D01*
X159574214Y-101672489D01*
X159403851Y-102083782D01*
X159317000Y-102520409D01*
X157371552Y-102520409D01*
X157411556Y-102445569D01*
X157455012Y-102302308D01*
X157469686Y-102153322D01*
X157466009Y-102115990D01*
X157466011Y-98926413D01*
X157469687Y-98889090D01*
X157466011Y-98851767D01*
X157466011Y-98851758D01*
X157455014Y-98740105D01*
X157422827Y-98633998D01*
X157411557Y-98596843D01*
X157340985Y-98464813D01*
X157269810Y-98378087D01*
X157269806Y-98378083D01*
X157246012Y-98349090D01*
X157217020Y-98325297D01*
X156284720Y-97392996D01*
X156260922Y-97363998D01*
X156199798Y-97313834D01*
X156267069Y-97246563D01*
X156413607Y-97027254D01*
X156514543Y-96783572D01*
X156566000Y-96524880D01*
X156566000Y-96261120D01*
X156514543Y-96002428D01*
X156413607Y-95758746D01*
X156267069Y-95539437D01*
X156080563Y-95352931D01*
X155861254Y-95206393D01*
X155659925Y-95123000D01*
X155861254Y-95039607D01*
X156080563Y-94893069D01*
X156267069Y-94706563D01*
X156413607Y-94487254D01*
X156514543Y-94243572D01*
X156566000Y-93984880D01*
X156566000Y-93721120D01*
X156514543Y-93462428D01*
X156413607Y-93218746D01*
X156267069Y-92999437D01*
X156080563Y-92812931D01*
X155861254Y-92666393D01*
X155617572Y-92565457D01*
X155358880Y-92514000D01*
X155095120Y-92514000D01*
X154836428Y-92565457D01*
X154592746Y-92666393D01*
X154373437Y-92812931D01*
X154186931Y-92999437D01*
X154040393Y-93218746D01*
X153939457Y-93462428D01*
X153888000Y-93721120D01*
X153888000Y-93984880D01*
X153939457Y-94243572D01*
X154040393Y-94487254D01*
X154186931Y-94706563D01*
X154373437Y-94893069D01*
X154592746Y-95039607D01*
X154794075Y-95123000D01*
X154592746Y-95206393D01*
X154373437Y-95352931D01*
X154186931Y-95539437D01*
X154040393Y-95758746D01*
X153939457Y-96002428D01*
X153890707Y-96247512D01*
X153673414Y-96030218D01*
X153727069Y-95976563D01*
X153873607Y-95757254D01*
X153974543Y-95513572D01*
X154026000Y-95254880D01*
X154026000Y-94991120D01*
X153974543Y-94732428D01*
X153873607Y-94488746D01*
X153727069Y-94269437D01*
X153540563Y-94082931D01*
X153321254Y-93936393D01*
X153119925Y-93853000D01*
X153321254Y-93769607D01*
X153540563Y-93623069D01*
X153727069Y-93436563D01*
X153873607Y-93217254D01*
X153974543Y-92973572D01*
X154026000Y-92714880D01*
X154026000Y-92451120D01*
X153974543Y-92192428D01*
X153873607Y-91948746D01*
X153727069Y-91729437D01*
X153540563Y-91542931D01*
X153321254Y-91396393D01*
X153077572Y-91295457D01*
X152818880Y-91244000D01*
X152555120Y-91244000D01*
X152296428Y-91295457D01*
X152052746Y-91396393D01*
X151833437Y-91542931D01*
X151646931Y-91729437D01*
X151500393Y-91948746D01*
X151399457Y-92192428D01*
X151348000Y-92451120D01*
X151348000Y-92714880D01*
X151399457Y-92973572D01*
X151500393Y-93217254D01*
X151646931Y-93436563D01*
X151833437Y-93623069D01*
X152052746Y-93769607D01*
X152254075Y-93853000D01*
X152052746Y-93936393D01*
X151833437Y-94082931D01*
X151646931Y-94269437D01*
X151644620Y-94272896D01*
X147932704Y-90560980D01*
X154638626Y-90560980D01*
X154758514Y-90845836D01*
X155082210Y-91006699D01*
X155431069Y-91101322D01*
X155791684Y-91126067D01*
X156069100Y-91090409D01*
X159317000Y-91090409D01*
X159317000Y-91535591D01*
X159403851Y-91972218D01*
X159574214Y-92383511D01*
X159821544Y-92753666D01*
X160136334Y-93068456D01*
X160506489Y-93315786D01*
X160917782Y-93486149D01*
X161354409Y-93573000D01*
X161799591Y-93573000D01*
X162236218Y-93486149D01*
X162647511Y-93315786D01*
X163017666Y-93068456D01*
X163332456Y-92753666D01*
X163579786Y-92383511D01*
X163750149Y-91972218D01*
X163837000Y-91535591D01*
X163837000Y-91090409D01*
X163750149Y-90653782D01*
X163579786Y-90242489D01*
X163332456Y-89872334D01*
X163261102Y-89800980D01*
X165048626Y-89800980D01*
X165168514Y-90085836D01*
X165492210Y-90246699D01*
X165841069Y-90341322D01*
X166201684Y-90366067D01*
X166560198Y-90319985D01*
X166902833Y-90204846D01*
X167125486Y-90085836D01*
X167245374Y-89800980D01*
X166147000Y-88702605D01*
X165048626Y-89800980D01*
X163261102Y-89800980D01*
X163017666Y-89557544D01*
X162647511Y-89310214D01*
X162236218Y-89139851D01*
X161799591Y-89053000D01*
X161354409Y-89053000D01*
X160917782Y-89139851D01*
X160506489Y-89310214D01*
X160136334Y-89557544D01*
X159821544Y-89872334D01*
X159574214Y-90242489D01*
X159403851Y-90653782D01*
X159317000Y-91090409D01*
X156069100Y-91090409D01*
X156150198Y-91079985D01*
X156492833Y-90964846D01*
X156715486Y-90845836D01*
X156835374Y-90560980D01*
X155737000Y-89462605D01*
X154638626Y-90560980D01*
X147932704Y-90560980D01*
X147172704Y-89800980D01*
X149048626Y-89800980D01*
X149168514Y-90085836D01*
X149492210Y-90246699D01*
X149841069Y-90341322D01*
X150201684Y-90366067D01*
X150560198Y-90319985D01*
X150902833Y-90204846D01*
X151125486Y-90085836D01*
X151245374Y-89800980D01*
X150147000Y-88702605D01*
X149048626Y-89800980D01*
X147172704Y-89800980D01*
X146776726Y-89405003D01*
X146752923Y-89375999D01*
X146637198Y-89281026D01*
X146505169Y-89210454D01*
X146361908Y-89166997D01*
X146250255Y-89156000D01*
X146250244Y-89156000D01*
X146212922Y-89152324D01*
X146175600Y-89156000D01*
X139410072Y-89156000D01*
X139410072Y-89066000D01*
X139397812Y-88941518D01*
X139361502Y-88821820D01*
X139302537Y-88711506D01*
X139223185Y-88614815D01*
X139126494Y-88535463D01*
X139016180Y-88476498D01*
X138896482Y-88440188D01*
X138772000Y-88427928D01*
X137072000Y-88427928D01*
X136947518Y-88440188D01*
X136827820Y-88476498D01*
X136717506Y-88535463D01*
X136620815Y-88614815D01*
X136541463Y-88711506D01*
X136482498Y-88821820D01*
X136460487Y-88894380D01*
X136328632Y-88762525D01*
X136085411Y-88600010D01*
X135815158Y-88488068D01*
X135528260Y-88431000D01*
X135235740Y-88431000D01*
X134948842Y-88488068D01*
X134678589Y-88600010D01*
X134435368Y-88762525D01*
X134228525Y-88969368D01*
X134066010Y-89212589D01*
X133954068Y-89482842D01*
X133897000Y-89769740D01*
X133897000Y-90062260D01*
X133954068Y-90349158D01*
X134066010Y-90619411D01*
X134228525Y-90862632D01*
X134435368Y-91069475D01*
X134678589Y-91231990D01*
X134948842Y-91343932D01*
X135235740Y-91401000D01*
X135528260Y-91401000D01*
X135815158Y-91343932D01*
X136085411Y-91231990D01*
X136328632Y-91069475D01*
X136460487Y-90937620D01*
X136482498Y-91010180D01*
X136541463Y-91120494D01*
X136620815Y-91217185D01*
X136717506Y-91296537D01*
X136827820Y-91355502D01*
X136947518Y-91391812D01*
X137072000Y-91404072D01*
X138772000Y-91404072D01*
X138896482Y-91391812D01*
X139016180Y-91355502D01*
X139126494Y-91296537D01*
X139223185Y-91217185D01*
X139302537Y-91120494D01*
X139361502Y-91010180D01*
X139397812Y-90890482D01*
X139410072Y-90766000D01*
X139410072Y-90676000D01*
X145898121Y-90676000D01*
X146545866Y-91323745D01*
X146477572Y-91295457D01*
X146218880Y-91244000D01*
X145955120Y-91244000D01*
X145696428Y-91295457D01*
X145452746Y-91396393D01*
X145233437Y-91542931D01*
X145046931Y-91729437D01*
X144984414Y-91823000D01*
X129465073Y-91823000D01*
X129465073Y-90660339D01*
X129452813Y-90535857D01*
X129416503Y-90416159D01*
X129357538Y-90305845D01*
X129278186Y-90209154D01*
X129181495Y-90129802D01*
X129071181Y-90070837D01*
X128951483Y-90034527D01*
X128827001Y-90022267D01*
X127227001Y-90022267D01*
X127102519Y-90034527D01*
X126982821Y-90070837D01*
X126872507Y-90129802D01*
X126775816Y-90209154D01*
X126696464Y-90305845D01*
X126637499Y-90416159D01*
X126601189Y-90535857D01*
X126588929Y-90660339D01*
X126588929Y-92260339D01*
X126601189Y-92384821D01*
X126637499Y-92504519D01*
X126696464Y-92614833D01*
X126775816Y-92711524D01*
X126872507Y-92790876D01*
X126982821Y-92849841D01*
X127102519Y-92886151D01*
X127227001Y-92898411D01*
X127492726Y-92898411D01*
X127347274Y-92958659D01*
X127112242Y-93115702D01*
X126912364Y-93315580D01*
X126756023Y-93549561D01*
X126538596Y-93332134D01*
X126566854Y-93263913D01*
X126622001Y-92986674D01*
X126622001Y-92704004D01*
X126566854Y-92426765D01*
X126458681Y-92165612D01*
X126301638Y-91930580D01*
X126101760Y-91730702D01*
X125866728Y-91573659D01*
X125605575Y-91465486D01*
X125328336Y-91410339D01*
X125045666Y-91410339D01*
X124768427Y-91465486D01*
X124507274Y-91573659D01*
X124272242Y-91730702D01*
X124072364Y-91930580D01*
X123915321Y-92165612D01*
X123807148Y-92426765D01*
X123752001Y-92704004D01*
X123752001Y-92986674D01*
X123807148Y-93263913D01*
X123915321Y-93525066D01*
X124072364Y-93760098D01*
X124192464Y-93880198D01*
X124106999Y-93950337D01*
X124083200Y-93979336D01*
X123551002Y-94511535D01*
X123521999Y-94535337D01*
X123482884Y-94582999D01*
X123427026Y-94651062D01*
X123383535Y-94732428D01*
X123356454Y-94783092D01*
X123312997Y-94926353D01*
X123302000Y-95038006D01*
X123302000Y-95038016D01*
X123298324Y-95075338D01*
X118008000Y-95075338D01*
X118008000Y-86347838D01*
X124939107Y-86347838D01*
X125155229Y-86714597D01*
X125615106Y-86955277D01*
X126113099Y-87101614D01*
X126630072Y-87147987D01*
X127146160Y-87092612D01*
X127641527Y-86937618D01*
X128058773Y-86714597D01*
X128274895Y-86347838D01*
X126607001Y-84679944D01*
X124939107Y-86347838D01*
X118008000Y-86347838D01*
X118008000Y-84523410D01*
X123959353Y-84523410D01*
X124014728Y-85039498D01*
X124169722Y-85534865D01*
X124392743Y-85952111D01*
X124759502Y-86168233D01*
X126427396Y-84500339D01*
X126786606Y-84500339D01*
X128454500Y-86168233D01*
X128821259Y-85952111D01*
X129061939Y-85492234D01*
X129208276Y-84994241D01*
X129254649Y-84477268D01*
X129199274Y-83961180D01*
X129044280Y-83465813D01*
X128821259Y-83048567D01*
X128454500Y-82832445D01*
X126786606Y-84500339D01*
X126427396Y-84500339D01*
X124759502Y-82832445D01*
X124392743Y-83048567D01*
X124152063Y-83508444D01*
X124005726Y-84006437D01*
X123959353Y-84523410D01*
X118008000Y-84523410D01*
X118008000Y-82652840D01*
X124939107Y-82652840D01*
X126607001Y-84320734D01*
X128274895Y-82652840D01*
X128058773Y-82286081D01*
X127598896Y-82045401D01*
X127100903Y-81899064D01*
X126583930Y-81852691D01*
X126067842Y-81908066D01*
X125572475Y-82063060D01*
X125155229Y-82286081D01*
X124939107Y-82652840D01*
X118008000Y-82652840D01*
X118008000Y-81686000D01*
X129896000Y-81686000D01*
X129896001Y-86835571D01*
G37*
%TD.AperFunction*%
%TD*%
M02*
