%TF.GenerationSoftware,KiCad,Pcbnew,(5.1.10-1-10_14)*%
%TF.CreationDate,2021-07-17T22:45:04-07:00*%
%TF.ProjectId,BarixAnalogDB9-RJ45,42617269-7841-46e6-916c-6f674442392d,rev?*%
%TF.SameCoordinates,Original*%
%TF.FileFunction,Copper,L2,Bot*%
%TF.FilePolarity,Positive*%
%FSLAX46Y46*%
G04 Gerber Fmt 4.6, Leading zero omitted, Abs format (unit mm)*
G04 Created by KiCad (PCBNEW (5.1.10-1-10_14)) date 2021-07-17 22:45:04*
%MOMM*%
%LPD*%
G01*
G04 APERTURE LIST*
%TA.AperFunction,ComponentPad*%
%ADD10C,1.408000*%
%TD*%
%TA.AperFunction,ComponentPad*%
%ADD11C,2.400000*%
%TD*%
%TA.AperFunction,ComponentPad*%
%ADD12R,1.600000X1.600000*%
%TD*%
%TA.AperFunction,ComponentPad*%
%ADD13C,1.600000*%
%TD*%
%TA.AperFunction,ComponentPad*%
%ADD14C,4.000000*%
%TD*%
%TA.AperFunction,ComponentPad*%
%ADD15R,1.700000X1.700000*%
%TD*%
%TA.AperFunction,ComponentPad*%
%ADD16O,1.700000X1.700000*%
%TD*%
%TA.AperFunction,Conductor*%
%ADD17C,0.250000*%
%TD*%
%TA.AperFunction,Conductor*%
%ADD18C,0.254000*%
%TD*%
%TA.AperFunction,Conductor*%
%ADD19C,0.100000*%
%TD*%
G04 APERTURE END LIST*
D10*
%TO.P,J1,B2*%
%TO.N,Net-(J1-PadB2)*%
X152687000Y-100203000D03*
%TO.P,J1,B4*%
%TO.N,Net-(J1-PadB4)*%
X152687000Y-97663000D03*
%TO.P,J1,B6*%
%TO.N,Net-(J1-PadB6)*%
X152687000Y-95123000D03*
%TO.P,J1,B8*%
%TO.N,N/C*%
X152687000Y-92583000D03*
%TO.P,J1,B7*%
X155227000Y-93853000D03*
%TO.P,J1,B5*%
X155227000Y-96393000D03*
%TO.P,J1,B3*%
%TO.N,Net-(J1-PadB3)*%
X155227000Y-98933000D03*
%TO.P,J1,B1*%
%TO.N,Net-(J1-PadB1)*%
X155227000Y-101473000D03*
D11*
%TO.P,J1,S5*%
%TO.N,GND*%
X166147000Y-105533000D03*
%TO.P,J1,S6*%
X166147000Y-88523000D03*
D10*
%TO.P,J1,A7*%
%TO.N,N/C*%
X146087000Y-100203000D03*
%TO.P,J1,A5*%
X146087000Y-97663000D03*
%TO.P,J1,A3*%
%TO.N,Net-(J1-PadA3)*%
X146087000Y-95123000D03*
%TO.P,J1,A1*%
%TO.N,Net-(J1-PadA1)*%
X146087000Y-92583000D03*
%TO.P,J1,A2*%
%TO.N,Net-(J1-PadA2)*%
X148627000Y-93853000D03*
%TO.P,J1,A4*%
%TO.N,Net-(J1-PadA4)*%
X148627000Y-96393000D03*
%TO.P,J1,A6*%
%TO.N,Net-(J1-PadA6)*%
X148627000Y-98933000D03*
%TO.P,J1,A8*%
%TO.N,N/C*%
X148627000Y-101473000D03*
D11*
%TO.P,J1,S1*%
%TO.N,GND*%
X146087000Y-105533000D03*
%TO.P,J1,S3*%
X152437000Y-104773000D03*
%TO.P,J1,S4*%
X155737000Y-89283000D03*
%TO.P,J1,S2*%
X150147000Y-88523000D03*
%TD*%
D12*
%TO.P,J2,1*%
%TO.N,Net-(J1-PadA1)*%
X128027001Y-91460339D03*
D13*
%TO.P,J2,2*%
%TO.N,Net-(J1-PadA2)*%
X128027001Y-94230339D03*
%TO.P,J2,3*%
%TO.N,Net-(J2-Pad3)*%
X128027001Y-97000339D03*
%TO.P,J2,4*%
%TO.N,Net-(J1-PadB3)*%
X128027001Y-99770339D03*
%TO.P,J2,5*%
%TO.N,Net-(J1-PadB6)*%
X128027001Y-102540339D03*
%TO.P,J2,6*%
%TO.N,Net-(J1-PadA3)*%
X125187001Y-92845339D03*
%TO.P,J2,7*%
%TO.N,Net-(J1-PadA6)*%
X125187001Y-95615339D03*
%TO.P,J2,8*%
%TO.N,Net-(J1-PadB1)*%
X125187001Y-98385339D03*
%TO.P,J2,9*%
%TO.N,Net-(J1-PadB2)*%
X125187001Y-101155339D03*
D14*
%TO.P,J2,0*%
%TO.N,GND*%
X126607001Y-84500339D03*
X126607001Y-109500339D03*
%TD*%
D15*
%TO.P,JP1,1*%
%TO.N,Net-(J1-PadA4)*%
X137922000Y-104140000D03*
D16*
%TO.P,JP1,2*%
%TO.N,Net-(J2-Pad3)*%
X135382000Y-104140000D03*
%TD*%
%TO.P,JP2,2*%
%TO.N,Net-(J2-Pad3)*%
X135382000Y-89916000D03*
D15*
%TO.P,JP2,1*%
%TO.N,Net-(J1-PadB4)*%
X137922000Y-89916000D03*
%TD*%
D17*
%TO.N,Net-(J1-PadA4)*%
X148627000Y-96393000D02*
X148627000Y-97388606D01*
X148627000Y-96645922D02*
X148627000Y-96393000D01*
X146098923Y-99173999D02*
X148627000Y-96645922D01*
X142888001Y-99173999D02*
X146098923Y-99173999D01*
X137922000Y-104140000D02*
X142888001Y-99173999D01*
%TO.N,Net-(J2-Pad3)*%
X128027001Y-97801001D02*
X128027001Y-97000339D01*
X128027001Y-97000339D02*
X135382000Y-89645340D01*
X128242339Y-97000339D02*
X128027001Y-97000339D01*
X135382000Y-104140000D02*
X128242339Y-97000339D01*
%TD*%
D18*
%TO.N,GND*%
X129896001Y-86835571D02*
X129892807Y-86868000D01*
X129905550Y-86997383D01*
X129943290Y-87121793D01*
X130004575Y-87236450D01*
X130087052Y-87336948D01*
X130187550Y-87419425D01*
X130302207Y-87480710D01*
X130426617Y-87518450D01*
X130523581Y-87528000D01*
X130556000Y-87531193D01*
X130588419Y-87528000D01*
X148623402Y-87528000D01*
X148584164Y-87544514D01*
X148423301Y-87868210D01*
X148328678Y-88217069D01*
X148303933Y-88577684D01*
X148350015Y-88936198D01*
X148465154Y-89278833D01*
X148584164Y-89501486D01*
X148869020Y-89621374D01*
X149967395Y-88523000D01*
X149953252Y-88508858D01*
X150132858Y-88329252D01*
X150147000Y-88343395D01*
X150161142Y-88329252D01*
X150340748Y-88508858D01*
X150326605Y-88523000D01*
X151424980Y-89621374D01*
X151709836Y-89501486D01*
X151791238Y-89337684D01*
X153893933Y-89337684D01*
X153940015Y-89696198D01*
X154055154Y-90038833D01*
X154174164Y-90261486D01*
X154459020Y-90381374D01*
X155557395Y-89283000D01*
X155916605Y-89283000D01*
X157014980Y-90381374D01*
X157299836Y-90261486D01*
X157460699Y-89937790D01*
X157555322Y-89588931D01*
X157580067Y-89228316D01*
X157533985Y-88869802D01*
X157418846Y-88527167D01*
X157299836Y-88304514D01*
X157014980Y-88184626D01*
X155916605Y-89283000D01*
X155557395Y-89283000D01*
X154459020Y-88184626D01*
X154174164Y-88304514D01*
X154013301Y-88628210D01*
X153918678Y-88977069D01*
X153893933Y-89337684D01*
X151791238Y-89337684D01*
X151870699Y-89177790D01*
X151965322Y-88828931D01*
X151990067Y-88468316D01*
X151943985Y-88109802D01*
X151828846Y-87767167D01*
X151709836Y-87544514D01*
X151670598Y-87528000D01*
X155198861Y-87528000D01*
X154981167Y-87601154D01*
X154758514Y-87720164D01*
X154638626Y-88005020D01*
X155737000Y-89103395D01*
X156835374Y-88005020D01*
X156715486Y-87720164D01*
X156391790Y-87559301D01*
X156276389Y-87528000D01*
X164623402Y-87528000D01*
X164584164Y-87544514D01*
X164423301Y-87868210D01*
X164328678Y-88217069D01*
X164303933Y-88577684D01*
X164350015Y-88936198D01*
X164465154Y-89278833D01*
X164584164Y-89501486D01*
X164869020Y-89621374D01*
X165967395Y-88523000D01*
X165953252Y-88508858D01*
X166132858Y-88329252D01*
X166147000Y-88343395D01*
X166161142Y-88329252D01*
X166340748Y-88508858D01*
X166326605Y-88523000D01*
X167424980Y-89621374D01*
X167709836Y-89501486D01*
X167870699Y-89177790D01*
X167965322Y-88828931D01*
X167990067Y-88468316D01*
X167943985Y-88109802D01*
X167828846Y-87767167D01*
X167709836Y-87544514D01*
X167670598Y-87528000D01*
X172314000Y-87528000D01*
X172314001Y-106528000D01*
X167670598Y-106528000D01*
X167709836Y-106511486D01*
X167870699Y-106187790D01*
X167965322Y-105838931D01*
X167990067Y-105478316D01*
X167943985Y-105119802D01*
X167828846Y-104777167D01*
X167709836Y-104554514D01*
X167424980Y-104434626D01*
X166326605Y-105533000D01*
X166340748Y-105547142D01*
X166161142Y-105726748D01*
X166147000Y-105712605D01*
X166132858Y-105726748D01*
X165953252Y-105547142D01*
X165967395Y-105533000D01*
X164869020Y-104434626D01*
X164584164Y-104554514D01*
X164423301Y-104878210D01*
X164328678Y-105227069D01*
X164303933Y-105587684D01*
X164350015Y-105946198D01*
X164465154Y-106288833D01*
X164584164Y-106511486D01*
X164623402Y-106528000D01*
X152975139Y-106528000D01*
X153192833Y-106454846D01*
X153415486Y-106335836D01*
X153535374Y-106050980D01*
X152437000Y-104952605D01*
X151338626Y-106050980D01*
X151458514Y-106335836D01*
X151782210Y-106496699D01*
X151897611Y-106528000D01*
X147610598Y-106528000D01*
X147649836Y-106511486D01*
X147810699Y-106187790D01*
X147905322Y-105838931D01*
X147930067Y-105478316D01*
X147883985Y-105119802D01*
X147785822Y-104827684D01*
X150593933Y-104827684D01*
X150640015Y-105186198D01*
X150755154Y-105528833D01*
X150874164Y-105751486D01*
X151159020Y-105871374D01*
X152257395Y-104773000D01*
X152616605Y-104773000D01*
X153714980Y-105871374D01*
X153999836Y-105751486D01*
X154160699Y-105427790D01*
X154255322Y-105078931D01*
X154280067Y-104718316D01*
X154233985Y-104359802D01*
X154118846Y-104017167D01*
X153999836Y-103794514D01*
X153714980Y-103674626D01*
X152616605Y-104773000D01*
X152257395Y-104773000D01*
X151159020Y-103674626D01*
X150874164Y-103794514D01*
X150713301Y-104118210D01*
X150618678Y-104467069D01*
X150593933Y-104827684D01*
X147785822Y-104827684D01*
X147768846Y-104777167D01*
X147649836Y-104554514D01*
X147364980Y-104434626D01*
X146266605Y-105533000D01*
X146280748Y-105547142D01*
X146101142Y-105726748D01*
X146087000Y-105712605D01*
X146072858Y-105726748D01*
X145893252Y-105547142D01*
X145907395Y-105533000D01*
X144809020Y-104434626D01*
X144524164Y-104554514D01*
X144363301Y-104878210D01*
X144268678Y-105227069D01*
X144243933Y-105587684D01*
X144290015Y-105946198D01*
X144405154Y-106288833D01*
X144524164Y-106511486D01*
X144563402Y-106528000D01*
X130588419Y-106528000D01*
X130556000Y-106524807D01*
X130523581Y-106528000D01*
X130426617Y-106537550D01*
X130302207Y-106575290D01*
X130187550Y-106636575D01*
X130087052Y-106719052D01*
X130004575Y-106819550D01*
X129943290Y-106934207D01*
X129905550Y-107058617D01*
X129892807Y-107188000D01*
X129896000Y-107220419D01*
X129896001Y-112370000D01*
X118008000Y-112370000D01*
X118008000Y-111347838D01*
X124939107Y-111347838D01*
X125155229Y-111714597D01*
X125615106Y-111955277D01*
X126113099Y-112101614D01*
X126630072Y-112147987D01*
X127146160Y-112092612D01*
X127641527Y-111937618D01*
X128058773Y-111714597D01*
X128274895Y-111347838D01*
X126607001Y-109679944D01*
X124939107Y-111347838D01*
X118008000Y-111347838D01*
X118008000Y-109523410D01*
X123959353Y-109523410D01*
X124014728Y-110039498D01*
X124169722Y-110534865D01*
X124392743Y-110952111D01*
X124759502Y-111168233D01*
X126427396Y-109500339D01*
X126786606Y-109500339D01*
X128454500Y-111168233D01*
X128821259Y-110952111D01*
X129061939Y-110492234D01*
X129208276Y-109994241D01*
X129254649Y-109477268D01*
X129199274Y-108961180D01*
X129044280Y-108465813D01*
X128821259Y-108048567D01*
X128454500Y-107832445D01*
X126786606Y-109500339D01*
X126427396Y-109500339D01*
X124759502Y-107832445D01*
X124392743Y-108048567D01*
X124152063Y-108508444D01*
X124005726Y-109006437D01*
X123959353Y-109523410D01*
X118008000Y-109523410D01*
X118008000Y-107652840D01*
X124939107Y-107652840D01*
X126607001Y-109320734D01*
X128274895Y-107652840D01*
X128058773Y-107286081D01*
X127598896Y-107045401D01*
X127100903Y-106899064D01*
X126583930Y-106852691D01*
X126067842Y-106908066D01*
X125572475Y-107063060D01*
X125155229Y-107286081D01*
X124939107Y-107652840D01*
X118008000Y-107652840D01*
X118008000Y-92704004D01*
X123752001Y-92704004D01*
X123752001Y-92986674D01*
X123807148Y-93263913D01*
X123915321Y-93525066D01*
X124072364Y-93760098D01*
X124272242Y-93959976D01*
X124507274Y-94117019D01*
X124768427Y-94225192D01*
X124794302Y-94230339D01*
X124768427Y-94235486D01*
X124507274Y-94343659D01*
X124272242Y-94500702D01*
X124072364Y-94700580D01*
X123915321Y-94935612D01*
X123807148Y-95196765D01*
X123752001Y-95474004D01*
X123752001Y-95756674D01*
X123807148Y-96033913D01*
X123915321Y-96295066D01*
X124072364Y-96530098D01*
X124272242Y-96729976D01*
X124507274Y-96887019D01*
X124768427Y-96995192D01*
X124794302Y-97000339D01*
X124768427Y-97005486D01*
X124507274Y-97113659D01*
X124272242Y-97270702D01*
X124072364Y-97470580D01*
X123915321Y-97705612D01*
X123807148Y-97966765D01*
X123752001Y-98244004D01*
X123752001Y-98526674D01*
X123807148Y-98803913D01*
X123915321Y-99065066D01*
X124072364Y-99300098D01*
X124272242Y-99499976D01*
X124507274Y-99657019D01*
X124768427Y-99765192D01*
X124794302Y-99770339D01*
X124768427Y-99775486D01*
X124507274Y-99883659D01*
X124272242Y-100040702D01*
X124072364Y-100240580D01*
X123915321Y-100475612D01*
X123807148Y-100736765D01*
X123752001Y-101014004D01*
X123752001Y-101296674D01*
X123807148Y-101573913D01*
X123915321Y-101835066D01*
X124072364Y-102070098D01*
X124272242Y-102269976D01*
X124507274Y-102427019D01*
X124768427Y-102535192D01*
X125045666Y-102590339D01*
X125328336Y-102590339D01*
X125605575Y-102535192D01*
X125866728Y-102427019D01*
X126101760Y-102269976D01*
X126301638Y-102070098D01*
X126458681Y-101835066D01*
X126566854Y-101573913D01*
X126622001Y-101296674D01*
X126622001Y-101014004D01*
X126566854Y-100736765D01*
X126458681Y-100475612D01*
X126301638Y-100240580D01*
X126101760Y-100040702D01*
X125866728Y-99883659D01*
X125605575Y-99775486D01*
X125579700Y-99770339D01*
X125605575Y-99765192D01*
X125866728Y-99657019D01*
X126101760Y-99499976D01*
X126301638Y-99300098D01*
X126458681Y-99065066D01*
X126566854Y-98803913D01*
X126622001Y-98526674D01*
X126622001Y-98244004D01*
X126566854Y-97966765D01*
X126458681Y-97705612D01*
X126301638Y-97470580D01*
X126101760Y-97270702D01*
X125866728Y-97113659D01*
X125605575Y-97005486D01*
X125579700Y-97000339D01*
X125605575Y-96995192D01*
X125866728Y-96887019D01*
X126101760Y-96729976D01*
X126301638Y-96530098D01*
X126458681Y-96295066D01*
X126566854Y-96033913D01*
X126622001Y-95756674D01*
X126622001Y-95474004D01*
X126566854Y-95196765D01*
X126458681Y-94935612D01*
X126301638Y-94700580D01*
X126101760Y-94500702D01*
X125866728Y-94343659D01*
X125605575Y-94235486D01*
X125579700Y-94230339D01*
X125605575Y-94225192D01*
X125866728Y-94117019D01*
X126101760Y-93959976D01*
X126301638Y-93760098D01*
X126458681Y-93525066D01*
X126566854Y-93263913D01*
X126622001Y-92986674D01*
X126622001Y-92704004D01*
X126566854Y-92426765D01*
X126458681Y-92165612D01*
X126301638Y-91930580D01*
X126101760Y-91730702D01*
X125866728Y-91573659D01*
X125605575Y-91465486D01*
X125328336Y-91410339D01*
X125045666Y-91410339D01*
X124768427Y-91465486D01*
X124507274Y-91573659D01*
X124272242Y-91730702D01*
X124072364Y-91930580D01*
X123915321Y-92165612D01*
X123807148Y-92426765D01*
X123752001Y-92704004D01*
X118008000Y-92704004D01*
X118008000Y-90660339D01*
X126588929Y-90660339D01*
X126588929Y-92260339D01*
X126601189Y-92384821D01*
X126637499Y-92504519D01*
X126696464Y-92614833D01*
X126775816Y-92711524D01*
X126872507Y-92790876D01*
X126982821Y-92849841D01*
X127102519Y-92886151D01*
X127227001Y-92898411D01*
X127492726Y-92898411D01*
X127347274Y-92958659D01*
X127112242Y-93115702D01*
X126912364Y-93315580D01*
X126755321Y-93550612D01*
X126647148Y-93811765D01*
X126592001Y-94089004D01*
X126592001Y-94371674D01*
X126647148Y-94648913D01*
X126755321Y-94910066D01*
X126912364Y-95145098D01*
X127112242Y-95344976D01*
X127347274Y-95502019D01*
X127608427Y-95610192D01*
X127634302Y-95615339D01*
X127608427Y-95620486D01*
X127347274Y-95728659D01*
X127112242Y-95885702D01*
X126912364Y-96085580D01*
X126755321Y-96320612D01*
X126647148Y-96581765D01*
X126592001Y-96859004D01*
X126592001Y-97141674D01*
X126647148Y-97418913D01*
X126755321Y-97680066D01*
X126912364Y-97915098D01*
X127112242Y-98114976D01*
X127347274Y-98272019D01*
X127473191Y-98324175D01*
X127487000Y-98341002D01*
X127567801Y-98407314D01*
X127347274Y-98498659D01*
X127112242Y-98655702D01*
X126912364Y-98855580D01*
X126755321Y-99090612D01*
X126647148Y-99351765D01*
X126592001Y-99629004D01*
X126592001Y-99911674D01*
X126647148Y-100188913D01*
X126755321Y-100450066D01*
X126912364Y-100685098D01*
X127112242Y-100884976D01*
X127347274Y-101042019D01*
X127608427Y-101150192D01*
X127634302Y-101155339D01*
X127608427Y-101160486D01*
X127347274Y-101268659D01*
X127112242Y-101425702D01*
X126912364Y-101625580D01*
X126755321Y-101860612D01*
X126647148Y-102121765D01*
X126592001Y-102399004D01*
X126592001Y-102681674D01*
X126647148Y-102958913D01*
X126755321Y-103220066D01*
X126912364Y-103455098D01*
X127112242Y-103654976D01*
X127347274Y-103812019D01*
X127608427Y-103920192D01*
X127885666Y-103975339D01*
X128168336Y-103975339D01*
X128445575Y-103920192D01*
X128706728Y-103812019D01*
X128941760Y-103654976D01*
X129141638Y-103455098D01*
X129298681Y-103220066D01*
X129406854Y-102958913D01*
X129462001Y-102681674D01*
X129462001Y-102399004D01*
X129406854Y-102121765D01*
X129298681Y-101860612D01*
X129141638Y-101625580D01*
X128941760Y-101425702D01*
X128706728Y-101268659D01*
X128445575Y-101160486D01*
X128419700Y-101155339D01*
X128445575Y-101150192D01*
X128706728Y-101042019D01*
X128941760Y-100884976D01*
X129141638Y-100685098D01*
X129298681Y-100450066D01*
X129406854Y-100188913D01*
X129462001Y-99911674D01*
X129462001Y-99629004D01*
X129406854Y-99351765D01*
X129327581Y-99160382D01*
X133940790Y-103773593D01*
X133897000Y-103993740D01*
X133897000Y-104286260D01*
X133954068Y-104573158D01*
X134066010Y-104843411D01*
X134228525Y-105086632D01*
X134435368Y-105293475D01*
X134678589Y-105455990D01*
X134948842Y-105567932D01*
X135235740Y-105625000D01*
X135528260Y-105625000D01*
X135815158Y-105567932D01*
X136085411Y-105455990D01*
X136328632Y-105293475D01*
X136460487Y-105161620D01*
X136482498Y-105234180D01*
X136541463Y-105344494D01*
X136620815Y-105441185D01*
X136717506Y-105520537D01*
X136827820Y-105579502D01*
X136947518Y-105615812D01*
X137072000Y-105628072D01*
X138772000Y-105628072D01*
X138896482Y-105615812D01*
X139016180Y-105579502D01*
X139126494Y-105520537D01*
X139223185Y-105441185D01*
X139302537Y-105344494D01*
X139361502Y-105234180D01*
X139397812Y-105114482D01*
X139410072Y-104990000D01*
X139410072Y-104255020D01*
X144988626Y-104255020D01*
X146087000Y-105353395D01*
X147185374Y-104255020D01*
X147065486Y-103970164D01*
X146741790Y-103809301D01*
X146392931Y-103714678D01*
X146032316Y-103689933D01*
X145673802Y-103736015D01*
X145331167Y-103851154D01*
X145108514Y-103970164D01*
X144988626Y-104255020D01*
X139410072Y-104255020D01*
X139410072Y-103726729D01*
X139641781Y-103495020D01*
X151338626Y-103495020D01*
X152437000Y-104593395D01*
X153535374Y-103495020D01*
X153415486Y-103210164D01*
X153091790Y-103049301D01*
X152742931Y-102954678D01*
X152382316Y-102929933D01*
X152023802Y-102976015D01*
X151681167Y-103091154D01*
X151458514Y-103210164D01*
X151338626Y-103495020D01*
X139641781Y-103495020D01*
X143202803Y-99933999D01*
X144775275Y-99933999D01*
X144748000Y-100071120D01*
X144748000Y-100334880D01*
X144799457Y-100593572D01*
X144900393Y-100837254D01*
X145046931Y-101056563D01*
X145233437Y-101243069D01*
X145452746Y-101389607D01*
X145696428Y-101490543D01*
X145955120Y-101542000D01*
X146218880Y-101542000D01*
X146477572Y-101490543D01*
X146721254Y-101389607D01*
X146940563Y-101243069D01*
X147127069Y-101056563D01*
X147273607Y-100837254D01*
X147374543Y-100593572D01*
X147426000Y-100334880D01*
X147426000Y-100071120D01*
X147374543Y-99812428D01*
X147273607Y-99568746D01*
X147127069Y-99349437D01*
X147062678Y-99285046D01*
X147288000Y-99059723D01*
X147288000Y-99064880D01*
X147339457Y-99323572D01*
X147440393Y-99567254D01*
X147586931Y-99786563D01*
X147773437Y-99973069D01*
X147992746Y-100119607D01*
X148194075Y-100203000D01*
X147992746Y-100286393D01*
X147773437Y-100432931D01*
X147586931Y-100619437D01*
X147440393Y-100838746D01*
X147339457Y-101082428D01*
X147288000Y-101341120D01*
X147288000Y-101604880D01*
X147339457Y-101863572D01*
X147440393Y-102107254D01*
X147586931Y-102326563D01*
X147773437Y-102513069D01*
X147992746Y-102659607D01*
X148236428Y-102760543D01*
X148495120Y-102812000D01*
X148758880Y-102812000D01*
X149017572Y-102760543D01*
X149261254Y-102659607D01*
X149480563Y-102513069D01*
X149667069Y-102326563D01*
X149813607Y-102107254D01*
X149914543Y-101863572D01*
X149966000Y-101604880D01*
X149966000Y-101341120D01*
X149914543Y-101082428D01*
X149813607Y-100838746D01*
X149667069Y-100619437D01*
X149480563Y-100432931D01*
X149261254Y-100286393D01*
X149059925Y-100203000D01*
X149261254Y-100119607D01*
X149480563Y-99973069D01*
X149667069Y-99786563D01*
X149813607Y-99567254D01*
X149914543Y-99323572D01*
X149966000Y-99064880D01*
X149966000Y-98801120D01*
X149914543Y-98542428D01*
X149813607Y-98298746D01*
X149667069Y-98079437D01*
X149480563Y-97892931D01*
X149287971Y-97764245D01*
X149332546Y-97680853D01*
X149376003Y-97537592D01*
X149379657Y-97500492D01*
X149480563Y-97433069D01*
X149667069Y-97246563D01*
X149813607Y-97027254D01*
X149914543Y-96783572D01*
X149966000Y-96524880D01*
X149966000Y-96261120D01*
X149914543Y-96002428D01*
X149813607Y-95758746D01*
X149667069Y-95539437D01*
X149480563Y-95352931D01*
X149261254Y-95206393D01*
X149059925Y-95123000D01*
X149261254Y-95039607D01*
X149480563Y-94893069D01*
X149667069Y-94706563D01*
X149813607Y-94487254D01*
X149914543Y-94243572D01*
X149966000Y-93984880D01*
X149966000Y-93721120D01*
X149914543Y-93462428D01*
X149813607Y-93218746D01*
X149667069Y-92999437D01*
X149480563Y-92812931D01*
X149261254Y-92666393D01*
X149017572Y-92565457D01*
X148758880Y-92514000D01*
X148495120Y-92514000D01*
X148236428Y-92565457D01*
X147992746Y-92666393D01*
X147773437Y-92812931D01*
X147586931Y-92999437D01*
X147440393Y-93218746D01*
X147339457Y-93462428D01*
X147288000Y-93721120D01*
X147288000Y-93984880D01*
X147339457Y-94243572D01*
X147440393Y-94487254D01*
X147586931Y-94706563D01*
X147773437Y-94893069D01*
X147992746Y-95039607D01*
X148194075Y-95123000D01*
X147992746Y-95206393D01*
X147773437Y-95352931D01*
X147586931Y-95539437D01*
X147440393Y-95758746D01*
X147339457Y-96002428D01*
X147288000Y-96261120D01*
X147288000Y-96524880D01*
X147339457Y-96783572D01*
X147361451Y-96836670D01*
X147231857Y-96966263D01*
X147127069Y-96809437D01*
X146940563Y-96622931D01*
X146721254Y-96476393D01*
X146519925Y-96393000D01*
X146721254Y-96309607D01*
X146940563Y-96163069D01*
X147127069Y-95976563D01*
X147273607Y-95757254D01*
X147374543Y-95513572D01*
X147426000Y-95254880D01*
X147426000Y-94991120D01*
X147374543Y-94732428D01*
X147273607Y-94488746D01*
X147127069Y-94269437D01*
X146940563Y-94082931D01*
X146721254Y-93936393D01*
X146519925Y-93853000D01*
X146721254Y-93769607D01*
X146940563Y-93623069D01*
X147127069Y-93436563D01*
X147273607Y-93217254D01*
X147374543Y-92973572D01*
X147426000Y-92714880D01*
X147426000Y-92451120D01*
X151348000Y-92451120D01*
X151348000Y-92714880D01*
X151399457Y-92973572D01*
X151500393Y-93217254D01*
X151646931Y-93436563D01*
X151833437Y-93623069D01*
X152052746Y-93769607D01*
X152254075Y-93853000D01*
X152052746Y-93936393D01*
X151833437Y-94082931D01*
X151646931Y-94269437D01*
X151500393Y-94488746D01*
X151399457Y-94732428D01*
X151348000Y-94991120D01*
X151348000Y-95254880D01*
X151399457Y-95513572D01*
X151500393Y-95757254D01*
X151646931Y-95976563D01*
X151833437Y-96163069D01*
X152052746Y-96309607D01*
X152254075Y-96393000D01*
X152052746Y-96476393D01*
X151833437Y-96622931D01*
X151646931Y-96809437D01*
X151500393Y-97028746D01*
X151399457Y-97272428D01*
X151348000Y-97531120D01*
X151348000Y-97794880D01*
X151399457Y-98053572D01*
X151500393Y-98297254D01*
X151646931Y-98516563D01*
X151833437Y-98703069D01*
X152052746Y-98849607D01*
X152254075Y-98933000D01*
X152052746Y-99016393D01*
X151833437Y-99162931D01*
X151646931Y-99349437D01*
X151500393Y-99568746D01*
X151399457Y-99812428D01*
X151348000Y-100071120D01*
X151348000Y-100334880D01*
X151399457Y-100593572D01*
X151500393Y-100837254D01*
X151646931Y-101056563D01*
X151833437Y-101243069D01*
X152052746Y-101389607D01*
X152296428Y-101490543D01*
X152555120Y-101542000D01*
X152818880Y-101542000D01*
X153077572Y-101490543D01*
X153321254Y-101389607D01*
X153540563Y-101243069D01*
X153727069Y-101056563D01*
X153873607Y-100837254D01*
X153974543Y-100593572D01*
X154026000Y-100334880D01*
X154026000Y-100071120D01*
X153974543Y-99812428D01*
X153873607Y-99568746D01*
X153727069Y-99349437D01*
X153540563Y-99162931D01*
X153321254Y-99016393D01*
X153119925Y-98933000D01*
X153321254Y-98849607D01*
X153540563Y-98703069D01*
X153727069Y-98516563D01*
X153873607Y-98297254D01*
X153974543Y-98053572D01*
X154026000Y-97794880D01*
X154026000Y-97531120D01*
X153974543Y-97272428D01*
X153873607Y-97028746D01*
X153727069Y-96809437D01*
X153540563Y-96622931D01*
X153321254Y-96476393D01*
X153119925Y-96393000D01*
X153321254Y-96309607D01*
X153540563Y-96163069D01*
X153727069Y-95976563D01*
X153873607Y-95757254D01*
X153974543Y-95513572D01*
X154026000Y-95254880D01*
X154026000Y-94991120D01*
X153974543Y-94732428D01*
X153873607Y-94488746D01*
X153727069Y-94269437D01*
X153540563Y-94082931D01*
X153321254Y-93936393D01*
X153119925Y-93853000D01*
X153321254Y-93769607D01*
X153393819Y-93721120D01*
X153888000Y-93721120D01*
X153888000Y-93984880D01*
X153939457Y-94243572D01*
X154040393Y-94487254D01*
X154186931Y-94706563D01*
X154373437Y-94893069D01*
X154592746Y-95039607D01*
X154794075Y-95123000D01*
X154592746Y-95206393D01*
X154373437Y-95352931D01*
X154186931Y-95539437D01*
X154040393Y-95758746D01*
X153939457Y-96002428D01*
X153888000Y-96261120D01*
X153888000Y-96524880D01*
X153939457Y-96783572D01*
X154040393Y-97027254D01*
X154186931Y-97246563D01*
X154373437Y-97433069D01*
X154592746Y-97579607D01*
X154794075Y-97663000D01*
X154592746Y-97746393D01*
X154373437Y-97892931D01*
X154186931Y-98079437D01*
X154040393Y-98298746D01*
X153939457Y-98542428D01*
X153888000Y-98801120D01*
X153888000Y-99064880D01*
X153939457Y-99323572D01*
X154040393Y-99567254D01*
X154186931Y-99786563D01*
X154373437Y-99973069D01*
X154592746Y-100119607D01*
X154794075Y-100203000D01*
X154592746Y-100286393D01*
X154373437Y-100432931D01*
X154186931Y-100619437D01*
X154040393Y-100838746D01*
X153939457Y-101082428D01*
X153888000Y-101341120D01*
X153888000Y-101604880D01*
X153939457Y-101863572D01*
X154040393Y-102107254D01*
X154186931Y-102326563D01*
X154373437Y-102513069D01*
X154592746Y-102659607D01*
X154836428Y-102760543D01*
X155095120Y-102812000D01*
X155358880Y-102812000D01*
X155617572Y-102760543D01*
X155861254Y-102659607D01*
X156069577Y-102520409D01*
X159317000Y-102520409D01*
X159317000Y-102965591D01*
X159403851Y-103402218D01*
X159574214Y-103813511D01*
X159821544Y-104183666D01*
X160136334Y-104498456D01*
X160506489Y-104745786D01*
X160917782Y-104916149D01*
X161354409Y-105003000D01*
X161799591Y-105003000D01*
X162236218Y-104916149D01*
X162647511Y-104745786D01*
X163017666Y-104498456D01*
X163261102Y-104255020D01*
X165048626Y-104255020D01*
X166147000Y-105353395D01*
X167245374Y-104255020D01*
X167125486Y-103970164D01*
X166801790Y-103809301D01*
X166452931Y-103714678D01*
X166092316Y-103689933D01*
X165733802Y-103736015D01*
X165391167Y-103851154D01*
X165168514Y-103970164D01*
X165048626Y-104255020D01*
X163261102Y-104255020D01*
X163332456Y-104183666D01*
X163579786Y-103813511D01*
X163750149Y-103402218D01*
X163837000Y-102965591D01*
X163837000Y-102520409D01*
X163750149Y-102083782D01*
X163579786Y-101672489D01*
X163332456Y-101302334D01*
X163017666Y-100987544D01*
X162647511Y-100740214D01*
X162236218Y-100569851D01*
X161799591Y-100483000D01*
X161354409Y-100483000D01*
X160917782Y-100569851D01*
X160506489Y-100740214D01*
X160136334Y-100987544D01*
X159821544Y-101302334D01*
X159574214Y-101672489D01*
X159403851Y-102083782D01*
X159317000Y-102520409D01*
X156069577Y-102520409D01*
X156080563Y-102513069D01*
X156267069Y-102326563D01*
X156413607Y-102107254D01*
X156514543Y-101863572D01*
X156566000Y-101604880D01*
X156566000Y-101341120D01*
X156514543Y-101082428D01*
X156413607Y-100838746D01*
X156267069Y-100619437D01*
X156080563Y-100432931D01*
X155861254Y-100286393D01*
X155659925Y-100203000D01*
X155861254Y-100119607D01*
X156080563Y-99973069D01*
X156267069Y-99786563D01*
X156413607Y-99567254D01*
X156514543Y-99323572D01*
X156566000Y-99064880D01*
X156566000Y-98801120D01*
X156514543Y-98542428D01*
X156413607Y-98298746D01*
X156267069Y-98079437D01*
X156080563Y-97892931D01*
X155861254Y-97746393D01*
X155659925Y-97663000D01*
X155861254Y-97579607D01*
X156080563Y-97433069D01*
X156267069Y-97246563D01*
X156413607Y-97027254D01*
X156514543Y-96783572D01*
X156566000Y-96524880D01*
X156566000Y-96261120D01*
X156514543Y-96002428D01*
X156413607Y-95758746D01*
X156267069Y-95539437D01*
X156080563Y-95352931D01*
X155861254Y-95206393D01*
X155659925Y-95123000D01*
X155861254Y-95039607D01*
X156080563Y-94893069D01*
X156267069Y-94706563D01*
X156413607Y-94487254D01*
X156514543Y-94243572D01*
X156566000Y-93984880D01*
X156566000Y-93721120D01*
X156514543Y-93462428D01*
X156413607Y-93218746D01*
X156267069Y-92999437D01*
X156080563Y-92812931D01*
X155861254Y-92666393D01*
X155617572Y-92565457D01*
X155358880Y-92514000D01*
X155095120Y-92514000D01*
X154836428Y-92565457D01*
X154592746Y-92666393D01*
X154373437Y-92812931D01*
X154186931Y-92999437D01*
X154040393Y-93218746D01*
X153939457Y-93462428D01*
X153888000Y-93721120D01*
X153393819Y-93721120D01*
X153540563Y-93623069D01*
X153727069Y-93436563D01*
X153873607Y-93217254D01*
X153974543Y-92973572D01*
X154026000Y-92714880D01*
X154026000Y-92451120D01*
X153974543Y-92192428D01*
X153873607Y-91948746D01*
X153727069Y-91729437D01*
X153540563Y-91542931D01*
X153321254Y-91396393D01*
X153077572Y-91295457D01*
X152818880Y-91244000D01*
X152555120Y-91244000D01*
X152296428Y-91295457D01*
X152052746Y-91396393D01*
X151833437Y-91542931D01*
X151646931Y-91729437D01*
X151500393Y-91948746D01*
X151399457Y-92192428D01*
X151348000Y-92451120D01*
X147426000Y-92451120D01*
X147374543Y-92192428D01*
X147273607Y-91948746D01*
X147127069Y-91729437D01*
X146940563Y-91542931D01*
X146721254Y-91396393D01*
X146477572Y-91295457D01*
X146218880Y-91244000D01*
X145955120Y-91244000D01*
X145696428Y-91295457D01*
X145452746Y-91396393D01*
X145233437Y-91542931D01*
X145046931Y-91729437D01*
X144900393Y-91948746D01*
X144799457Y-92192428D01*
X144748000Y-92451120D01*
X144748000Y-92714880D01*
X144799457Y-92973572D01*
X144900393Y-93217254D01*
X145046931Y-93436563D01*
X145233437Y-93623069D01*
X145452746Y-93769607D01*
X145654075Y-93853000D01*
X145452746Y-93936393D01*
X145233437Y-94082931D01*
X145046931Y-94269437D01*
X144900393Y-94488746D01*
X144799457Y-94732428D01*
X144748000Y-94991120D01*
X144748000Y-95254880D01*
X144799457Y-95513572D01*
X144900393Y-95757254D01*
X145046931Y-95976563D01*
X145233437Y-96163069D01*
X145452746Y-96309607D01*
X145654075Y-96393000D01*
X145452746Y-96476393D01*
X145233437Y-96622931D01*
X145046931Y-96809437D01*
X144900393Y-97028746D01*
X144799457Y-97272428D01*
X144748000Y-97531120D01*
X144748000Y-97794880D01*
X144799457Y-98053572D01*
X144900393Y-98297254D01*
X144978400Y-98413999D01*
X142925324Y-98413999D01*
X142888001Y-98410323D01*
X142850678Y-98413999D01*
X142850668Y-98413999D01*
X142739015Y-98424996D01*
X142595754Y-98468453D01*
X142463724Y-98539025D01*
X142380084Y-98607667D01*
X142348000Y-98633998D01*
X142324202Y-98662996D01*
X138335271Y-102651928D01*
X137072000Y-102651928D01*
X136947518Y-102664188D01*
X136827820Y-102700498D01*
X136717506Y-102759463D01*
X136620815Y-102838815D01*
X136541463Y-102935506D01*
X136482498Y-103045820D01*
X136460487Y-103118380D01*
X136328632Y-102986525D01*
X136085411Y-102824010D01*
X135815158Y-102712068D01*
X135528260Y-102655000D01*
X135235740Y-102655000D01*
X135015593Y-102698790D01*
X129461416Y-97144615D01*
X129462001Y-97141674D01*
X129462001Y-96859004D01*
X129425689Y-96676452D01*
X134814045Y-91288097D01*
X134948842Y-91343932D01*
X135235740Y-91401000D01*
X135528260Y-91401000D01*
X135815158Y-91343932D01*
X136085411Y-91231990D01*
X136328632Y-91069475D01*
X136460487Y-90937620D01*
X136482498Y-91010180D01*
X136541463Y-91120494D01*
X136620815Y-91217185D01*
X136717506Y-91296537D01*
X136827820Y-91355502D01*
X136947518Y-91391812D01*
X137072000Y-91404072D01*
X138772000Y-91404072D01*
X138896482Y-91391812D01*
X139016180Y-91355502D01*
X139126494Y-91296537D01*
X139223185Y-91217185D01*
X139302537Y-91120494D01*
X139361502Y-91010180D01*
X139397812Y-90890482D01*
X139410072Y-90766000D01*
X139410072Y-90560980D01*
X154638626Y-90560980D01*
X154758514Y-90845836D01*
X155082210Y-91006699D01*
X155431069Y-91101322D01*
X155791684Y-91126067D01*
X156069100Y-91090409D01*
X159317000Y-91090409D01*
X159317000Y-91535591D01*
X159403851Y-91972218D01*
X159574214Y-92383511D01*
X159821544Y-92753666D01*
X160136334Y-93068456D01*
X160506489Y-93315786D01*
X160917782Y-93486149D01*
X161354409Y-93573000D01*
X161799591Y-93573000D01*
X162236218Y-93486149D01*
X162647511Y-93315786D01*
X163017666Y-93068456D01*
X163332456Y-92753666D01*
X163579786Y-92383511D01*
X163750149Y-91972218D01*
X163837000Y-91535591D01*
X163837000Y-91090409D01*
X163750149Y-90653782D01*
X163579786Y-90242489D01*
X163332456Y-89872334D01*
X163261102Y-89800980D01*
X165048626Y-89800980D01*
X165168514Y-90085836D01*
X165492210Y-90246699D01*
X165841069Y-90341322D01*
X166201684Y-90366067D01*
X166560198Y-90319985D01*
X166902833Y-90204846D01*
X167125486Y-90085836D01*
X167245374Y-89800980D01*
X166147000Y-88702605D01*
X165048626Y-89800980D01*
X163261102Y-89800980D01*
X163017666Y-89557544D01*
X162647511Y-89310214D01*
X162236218Y-89139851D01*
X161799591Y-89053000D01*
X161354409Y-89053000D01*
X160917782Y-89139851D01*
X160506489Y-89310214D01*
X160136334Y-89557544D01*
X159821544Y-89872334D01*
X159574214Y-90242489D01*
X159403851Y-90653782D01*
X159317000Y-91090409D01*
X156069100Y-91090409D01*
X156150198Y-91079985D01*
X156492833Y-90964846D01*
X156715486Y-90845836D01*
X156835374Y-90560980D01*
X155737000Y-89462605D01*
X154638626Y-90560980D01*
X139410072Y-90560980D01*
X139410072Y-89800980D01*
X149048626Y-89800980D01*
X149168514Y-90085836D01*
X149492210Y-90246699D01*
X149841069Y-90341322D01*
X150201684Y-90366067D01*
X150560198Y-90319985D01*
X150902833Y-90204846D01*
X151125486Y-90085836D01*
X151245374Y-89800980D01*
X150147000Y-88702605D01*
X149048626Y-89800980D01*
X139410072Y-89800980D01*
X139410072Y-89066000D01*
X139397812Y-88941518D01*
X139361502Y-88821820D01*
X139302537Y-88711506D01*
X139223185Y-88614815D01*
X139126494Y-88535463D01*
X139016180Y-88476498D01*
X138896482Y-88440188D01*
X138772000Y-88427928D01*
X137072000Y-88427928D01*
X136947518Y-88440188D01*
X136827820Y-88476498D01*
X136717506Y-88535463D01*
X136620815Y-88614815D01*
X136541463Y-88711506D01*
X136482498Y-88821820D01*
X136460487Y-88894380D01*
X136328632Y-88762525D01*
X136085411Y-88600010D01*
X135815158Y-88488068D01*
X135528260Y-88431000D01*
X135235740Y-88431000D01*
X134948842Y-88488068D01*
X134678589Y-88600010D01*
X134435368Y-88762525D01*
X134228525Y-88969368D01*
X134066010Y-89212589D01*
X133954068Y-89482842D01*
X133897000Y-89769740D01*
X133897000Y-90055538D01*
X129432486Y-94520052D01*
X129462001Y-94371674D01*
X129462001Y-94089004D01*
X129406854Y-93811765D01*
X129298681Y-93550612D01*
X129141638Y-93315580D01*
X128941760Y-93115702D01*
X128706728Y-92958659D01*
X128561276Y-92898411D01*
X128827001Y-92898411D01*
X128951483Y-92886151D01*
X129071181Y-92849841D01*
X129181495Y-92790876D01*
X129278186Y-92711524D01*
X129357538Y-92614833D01*
X129416503Y-92504519D01*
X129452813Y-92384821D01*
X129465073Y-92260339D01*
X129465073Y-90660339D01*
X129452813Y-90535857D01*
X129416503Y-90416159D01*
X129357538Y-90305845D01*
X129278186Y-90209154D01*
X129181495Y-90129802D01*
X129071181Y-90070837D01*
X128951483Y-90034527D01*
X128827001Y-90022267D01*
X127227001Y-90022267D01*
X127102519Y-90034527D01*
X126982821Y-90070837D01*
X126872507Y-90129802D01*
X126775816Y-90209154D01*
X126696464Y-90305845D01*
X126637499Y-90416159D01*
X126601189Y-90535857D01*
X126588929Y-90660339D01*
X118008000Y-90660339D01*
X118008000Y-86347838D01*
X124939107Y-86347838D01*
X125155229Y-86714597D01*
X125615106Y-86955277D01*
X126113099Y-87101614D01*
X126630072Y-87147987D01*
X127146160Y-87092612D01*
X127641527Y-86937618D01*
X128058773Y-86714597D01*
X128274895Y-86347838D01*
X126607001Y-84679944D01*
X124939107Y-86347838D01*
X118008000Y-86347838D01*
X118008000Y-84523410D01*
X123959353Y-84523410D01*
X124014728Y-85039498D01*
X124169722Y-85534865D01*
X124392743Y-85952111D01*
X124759502Y-86168233D01*
X126427396Y-84500339D01*
X126786606Y-84500339D01*
X128454500Y-86168233D01*
X128821259Y-85952111D01*
X129061939Y-85492234D01*
X129208276Y-84994241D01*
X129254649Y-84477268D01*
X129199274Y-83961180D01*
X129044280Y-83465813D01*
X128821259Y-83048567D01*
X128454500Y-82832445D01*
X126786606Y-84500339D01*
X126427396Y-84500339D01*
X124759502Y-82832445D01*
X124392743Y-83048567D01*
X124152063Y-83508444D01*
X124005726Y-84006437D01*
X123959353Y-84523410D01*
X118008000Y-84523410D01*
X118008000Y-82652840D01*
X124939107Y-82652840D01*
X126607001Y-84320734D01*
X128274895Y-82652840D01*
X128058773Y-82286081D01*
X127598896Y-82045401D01*
X127100903Y-81899064D01*
X126583930Y-81852691D01*
X126067842Y-81908066D01*
X125572475Y-82063060D01*
X125155229Y-82286081D01*
X124939107Y-82652840D01*
X118008000Y-82652840D01*
X118008000Y-81686000D01*
X129896000Y-81686000D01*
X129896001Y-86835571D01*
%TA.AperFunction,Conductor*%
D19*
G36*
X129896001Y-86835571D02*
G01*
X129892807Y-86868000D01*
X129905550Y-86997383D01*
X129943290Y-87121793D01*
X130004575Y-87236450D01*
X130087052Y-87336948D01*
X130187550Y-87419425D01*
X130302207Y-87480710D01*
X130426617Y-87518450D01*
X130523581Y-87528000D01*
X130556000Y-87531193D01*
X130588419Y-87528000D01*
X148623402Y-87528000D01*
X148584164Y-87544514D01*
X148423301Y-87868210D01*
X148328678Y-88217069D01*
X148303933Y-88577684D01*
X148350015Y-88936198D01*
X148465154Y-89278833D01*
X148584164Y-89501486D01*
X148869020Y-89621374D01*
X149967395Y-88523000D01*
X149953252Y-88508858D01*
X150132858Y-88329252D01*
X150147000Y-88343395D01*
X150161142Y-88329252D01*
X150340748Y-88508858D01*
X150326605Y-88523000D01*
X151424980Y-89621374D01*
X151709836Y-89501486D01*
X151791238Y-89337684D01*
X153893933Y-89337684D01*
X153940015Y-89696198D01*
X154055154Y-90038833D01*
X154174164Y-90261486D01*
X154459020Y-90381374D01*
X155557395Y-89283000D01*
X155916605Y-89283000D01*
X157014980Y-90381374D01*
X157299836Y-90261486D01*
X157460699Y-89937790D01*
X157555322Y-89588931D01*
X157580067Y-89228316D01*
X157533985Y-88869802D01*
X157418846Y-88527167D01*
X157299836Y-88304514D01*
X157014980Y-88184626D01*
X155916605Y-89283000D01*
X155557395Y-89283000D01*
X154459020Y-88184626D01*
X154174164Y-88304514D01*
X154013301Y-88628210D01*
X153918678Y-88977069D01*
X153893933Y-89337684D01*
X151791238Y-89337684D01*
X151870699Y-89177790D01*
X151965322Y-88828931D01*
X151990067Y-88468316D01*
X151943985Y-88109802D01*
X151828846Y-87767167D01*
X151709836Y-87544514D01*
X151670598Y-87528000D01*
X155198861Y-87528000D01*
X154981167Y-87601154D01*
X154758514Y-87720164D01*
X154638626Y-88005020D01*
X155737000Y-89103395D01*
X156835374Y-88005020D01*
X156715486Y-87720164D01*
X156391790Y-87559301D01*
X156276389Y-87528000D01*
X164623402Y-87528000D01*
X164584164Y-87544514D01*
X164423301Y-87868210D01*
X164328678Y-88217069D01*
X164303933Y-88577684D01*
X164350015Y-88936198D01*
X164465154Y-89278833D01*
X164584164Y-89501486D01*
X164869020Y-89621374D01*
X165967395Y-88523000D01*
X165953252Y-88508858D01*
X166132858Y-88329252D01*
X166147000Y-88343395D01*
X166161142Y-88329252D01*
X166340748Y-88508858D01*
X166326605Y-88523000D01*
X167424980Y-89621374D01*
X167709836Y-89501486D01*
X167870699Y-89177790D01*
X167965322Y-88828931D01*
X167990067Y-88468316D01*
X167943985Y-88109802D01*
X167828846Y-87767167D01*
X167709836Y-87544514D01*
X167670598Y-87528000D01*
X172314000Y-87528000D01*
X172314001Y-106528000D01*
X167670598Y-106528000D01*
X167709836Y-106511486D01*
X167870699Y-106187790D01*
X167965322Y-105838931D01*
X167990067Y-105478316D01*
X167943985Y-105119802D01*
X167828846Y-104777167D01*
X167709836Y-104554514D01*
X167424980Y-104434626D01*
X166326605Y-105533000D01*
X166340748Y-105547142D01*
X166161142Y-105726748D01*
X166147000Y-105712605D01*
X166132858Y-105726748D01*
X165953252Y-105547142D01*
X165967395Y-105533000D01*
X164869020Y-104434626D01*
X164584164Y-104554514D01*
X164423301Y-104878210D01*
X164328678Y-105227069D01*
X164303933Y-105587684D01*
X164350015Y-105946198D01*
X164465154Y-106288833D01*
X164584164Y-106511486D01*
X164623402Y-106528000D01*
X152975139Y-106528000D01*
X153192833Y-106454846D01*
X153415486Y-106335836D01*
X153535374Y-106050980D01*
X152437000Y-104952605D01*
X151338626Y-106050980D01*
X151458514Y-106335836D01*
X151782210Y-106496699D01*
X151897611Y-106528000D01*
X147610598Y-106528000D01*
X147649836Y-106511486D01*
X147810699Y-106187790D01*
X147905322Y-105838931D01*
X147930067Y-105478316D01*
X147883985Y-105119802D01*
X147785822Y-104827684D01*
X150593933Y-104827684D01*
X150640015Y-105186198D01*
X150755154Y-105528833D01*
X150874164Y-105751486D01*
X151159020Y-105871374D01*
X152257395Y-104773000D01*
X152616605Y-104773000D01*
X153714980Y-105871374D01*
X153999836Y-105751486D01*
X154160699Y-105427790D01*
X154255322Y-105078931D01*
X154280067Y-104718316D01*
X154233985Y-104359802D01*
X154118846Y-104017167D01*
X153999836Y-103794514D01*
X153714980Y-103674626D01*
X152616605Y-104773000D01*
X152257395Y-104773000D01*
X151159020Y-103674626D01*
X150874164Y-103794514D01*
X150713301Y-104118210D01*
X150618678Y-104467069D01*
X150593933Y-104827684D01*
X147785822Y-104827684D01*
X147768846Y-104777167D01*
X147649836Y-104554514D01*
X147364980Y-104434626D01*
X146266605Y-105533000D01*
X146280748Y-105547142D01*
X146101142Y-105726748D01*
X146087000Y-105712605D01*
X146072858Y-105726748D01*
X145893252Y-105547142D01*
X145907395Y-105533000D01*
X144809020Y-104434626D01*
X144524164Y-104554514D01*
X144363301Y-104878210D01*
X144268678Y-105227069D01*
X144243933Y-105587684D01*
X144290015Y-105946198D01*
X144405154Y-106288833D01*
X144524164Y-106511486D01*
X144563402Y-106528000D01*
X130588419Y-106528000D01*
X130556000Y-106524807D01*
X130523581Y-106528000D01*
X130426617Y-106537550D01*
X130302207Y-106575290D01*
X130187550Y-106636575D01*
X130087052Y-106719052D01*
X130004575Y-106819550D01*
X129943290Y-106934207D01*
X129905550Y-107058617D01*
X129892807Y-107188000D01*
X129896000Y-107220419D01*
X129896001Y-112370000D01*
X118008000Y-112370000D01*
X118008000Y-111347838D01*
X124939107Y-111347838D01*
X125155229Y-111714597D01*
X125615106Y-111955277D01*
X126113099Y-112101614D01*
X126630072Y-112147987D01*
X127146160Y-112092612D01*
X127641527Y-111937618D01*
X128058773Y-111714597D01*
X128274895Y-111347838D01*
X126607001Y-109679944D01*
X124939107Y-111347838D01*
X118008000Y-111347838D01*
X118008000Y-109523410D01*
X123959353Y-109523410D01*
X124014728Y-110039498D01*
X124169722Y-110534865D01*
X124392743Y-110952111D01*
X124759502Y-111168233D01*
X126427396Y-109500339D01*
X126786606Y-109500339D01*
X128454500Y-111168233D01*
X128821259Y-110952111D01*
X129061939Y-110492234D01*
X129208276Y-109994241D01*
X129254649Y-109477268D01*
X129199274Y-108961180D01*
X129044280Y-108465813D01*
X128821259Y-108048567D01*
X128454500Y-107832445D01*
X126786606Y-109500339D01*
X126427396Y-109500339D01*
X124759502Y-107832445D01*
X124392743Y-108048567D01*
X124152063Y-108508444D01*
X124005726Y-109006437D01*
X123959353Y-109523410D01*
X118008000Y-109523410D01*
X118008000Y-107652840D01*
X124939107Y-107652840D01*
X126607001Y-109320734D01*
X128274895Y-107652840D01*
X128058773Y-107286081D01*
X127598896Y-107045401D01*
X127100903Y-106899064D01*
X126583930Y-106852691D01*
X126067842Y-106908066D01*
X125572475Y-107063060D01*
X125155229Y-107286081D01*
X124939107Y-107652840D01*
X118008000Y-107652840D01*
X118008000Y-92704004D01*
X123752001Y-92704004D01*
X123752001Y-92986674D01*
X123807148Y-93263913D01*
X123915321Y-93525066D01*
X124072364Y-93760098D01*
X124272242Y-93959976D01*
X124507274Y-94117019D01*
X124768427Y-94225192D01*
X124794302Y-94230339D01*
X124768427Y-94235486D01*
X124507274Y-94343659D01*
X124272242Y-94500702D01*
X124072364Y-94700580D01*
X123915321Y-94935612D01*
X123807148Y-95196765D01*
X123752001Y-95474004D01*
X123752001Y-95756674D01*
X123807148Y-96033913D01*
X123915321Y-96295066D01*
X124072364Y-96530098D01*
X124272242Y-96729976D01*
X124507274Y-96887019D01*
X124768427Y-96995192D01*
X124794302Y-97000339D01*
X124768427Y-97005486D01*
X124507274Y-97113659D01*
X124272242Y-97270702D01*
X124072364Y-97470580D01*
X123915321Y-97705612D01*
X123807148Y-97966765D01*
X123752001Y-98244004D01*
X123752001Y-98526674D01*
X123807148Y-98803913D01*
X123915321Y-99065066D01*
X124072364Y-99300098D01*
X124272242Y-99499976D01*
X124507274Y-99657019D01*
X124768427Y-99765192D01*
X124794302Y-99770339D01*
X124768427Y-99775486D01*
X124507274Y-99883659D01*
X124272242Y-100040702D01*
X124072364Y-100240580D01*
X123915321Y-100475612D01*
X123807148Y-100736765D01*
X123752001Y-101014004D01*
X123752001Y-101296674D01*
X123807148Y-101573913D01*
X123915321Y-101835066D01*
X124072364Y-102070098D01*
X124272242Y-102269976D01*
X124507274Y-102427019D01*
X124768427Y-102535192D01*
X125045666Y-102590339D01*
X125328336Y-102590339D01*
X125605575Y-102535192D01*
X125866728Y-102427019D01*
X126101760Y-102269976D01*
X126301638Y-102070098D01*
X126458681Y-101835066D01*
X126566854Y-101573913D01*
X126622001Y-101296674D01*
X126622001Y-101014004D01*
X126566854Y-100736765D01*
X126458681Y-100475612D01*
X126301638Y-100240580D01*
X126101760Y-100040702D01*
X125866728Y-99883659D01*
X125605575Y-99775486D01*
X125579700Y-99770339D01*
X125605575Y-99765192D01*
X125866728Y-99657019D01*
X126101760Y-99499976D01*
X126301638Y-99300098D01*
X126458681Y-99065066D01*
X126566854Y-98803913D01*
X126622001Y-98526674D01*
X126622001Y-98244004D01*
X126566854Y-97966765D01*
X126458681Y-97705612D01*
X126301638Y-97470580D01*
X126101760Y-97270702D01*
X125866728Y-97113659D01*
X125605575Y-97005486D01*
X125579700Y-97000339D01*
X125605575Y-96995192D01*
X125866728Y-96887019D01*
X126101760Y-96729976D01*
X126301638Y-96530098D01*
X126458681Y-96295066D01*
X126566854Y-96033913D01*
X126622001Y-95756674D01*
X126622001Y-95474004D01*
X126566854Y-95196765D01*
X126458681Y-94935612D01*
X126301638Y-94700580D01*
X126101760Y-94500702D01*
X125866728Y-94343659D01*
X125605575Y-94235486D01*
X125579700Y-94230339D01*
X125605575Y-94225192D01*
X125866728Y-94117019D01*
X126101760Y-93959976D01*
X126301638Y-93760098D01*
X126458681Y-93525066D01*
X126566854Y-93263913D01*
X126622001Y-92986674D01*
X126622001Y-92704004D01*
X126566854Y-92426765D01*
X126458681Y-92165612D01*
X126301638Y-91930580D01*
X126101760Y-91730702D01*
X125866728Y-91573659D01*
X125605575Y-91465486D01*
X125328336Y-91410339D01*
X125045666Y-91410339D01*
X124768427Y-91465486D01*
X124507274Y-91573659D01*
X124272242Y-91730702D01*
X124072364Y-91930580D01*
X123915321Y-92165612D01*
X123807148Y-92426765D01*
X123752001Y-92704004D01*
X118008000Y-92704004D01*
X118008000Y-90660339D01*
X126588929Y-90660339D01*
X126588929Y-92260339D01*
X126601189Y-92384821D01*
X126637499Y-92504519D01*
X126696464Y-92614833D01*
X126775816Y-92711524D01*
X126872507Y-92790876D01*
X126982821Y-92849841D01*
X127102519Y-92886151D01*
X127227001Y-92898411D01*
X127492726Y-92898411D01*
X127347274Y-92958659D01*
X127112242Y-93115702D01*
X126912364Y-93315580D01*
X126755321Y-93550612D01*
X126647148Y-93811765D01*
X126592001Y-94089004D01*
X126592001Y-94371674D01*
X126647148Y-94648913D01*
X126755321Y-94910066D01*
X126912364Y-95145098D01*
X127112242Y-95344976D01*
X127347274Y-95502019D01*
X127608427Y-95610192D01*
X127634302Y-95615339D01*
X127608427Y-95620486D01*
X127347274Y-95728659D01*
X127112242Y-95885702D01*
X126912364Y-96085580D01*
X126755321Y-96320612D01*
X126647148Y-96581765D01*
X126592001Y-96859004D01*
X126592001Y-97141674D01*
X126647148Y-97418913D01*
X126755321Y-97680066D01*
X126912364Y-97915098D01*
X127112242Y-98114976D01*
X127347274Y-98272019D01*
X127473191Y-98324175D01*
X127487000Y-98341002D01*
X127567801Y-98407314D01*
X127347274Y-98498659D01*
X127112242Y-98655702D01*
X126912364Y-98855580D01*
X126755321Y-99090612D01*
X126647148Y-99351765D01*
X126592001Y-99629004D01*
X126592001Y-99911674D01*
X126647148Y-100188913D01*
X126755321Y-100450066D01*
X126912364Y-100685098D01*
X127112242Y-100884976D01*
X127347274Y-101042019D01*
X127608427Y-101150192D01*
X127634302Y-101155339D01*
X127608427Y-101160486D01*
X127347274Y-101268659D01*
X127112242Y-101425702D01*
X126912364Y-101625580D01*
X126755321Y-101860612D01*
X126647148Y-102121765D01*
X126592001Y-102399004D01*
X126592001Y-102681674D01*
X126647148Y-102958913D01*
X126755321Y-103220066D01*
X126912364Y-103455098D01*
X127112242Y-103654976D01*
X127347274Y-103812019D01*
X127608427Y-103920192D01*
X127885666Y-103975339D01*
X128168336Y-103975339D01*
X128445575Y-103920192D01*
X128706728Y-103812019D01*
X128941760Y-103654976D01*
X129141638Y-103455098D01*
X129298681Y-103220066D01*
X129406854Y-102958913D01*
X129462001Y-102681674D01*
X129462001Y-102399004D01*
X129406854Y-102121765D01*
X129298681Y-101860612D01*
X129141638Y-101625580D01*
X128941760Y-101425702D01*
X128706728Y-101268659D01*
X128445575Y-101160486D01*
X128419700Y-101155339D01*
X128445575Y-101150192D01*
X128706728Y-101042019D01*
X128941760Y-100884976D01*
X129141638Y-100685098D01*
X129298681Y-100450066D01*
X129406854Y-100188913D01*
X129462001Y-99911674D01*
X129462001Y-99629004D01*
X129406854Y-99351765D01*
X129327581Y-99160382D01*
X133940790Y-103773593D01*
X133897000Y-103993740D01*
X133897000Y-104286260D01*
X133954068Y-104573158D01*
X134066010Y-104843411D01*
X134228525Y-105086632D01*
X134435368Y-105293475D01*
X134678589Y-105455990D01*
X134948842Y-105567932D01*
X135235740Y-105625000D01*
X135528260Y-105625000D01*
X135815158Y-105567932D01*
X136085411Y-105455990D01*
X136328632Y-105293475D01*
X136460487Y-105161620D01*
X136482498Y-105234180D01*
X136541463Y-105344494D01*
X136620815Y-105441185D01*
X136717506Y-105520537D01*
X136827820Y-105579502D01*
X136947518Y-105615812D01*
X137072000Y-105628072D01*
X138772000Y-105628072D01*
X138896482Y-105615812D01*
X139016180Y-105579502D01*
X139126494Y-105520537D01*
X139223185Y-105441185D01*
X139302537Y-105344494D01*
X139361502Y-105234180D01*
X139397812Y-105114482D01*
X139410072Y-104990000D01*
X139410072Y-104255020D01*
X144988626Y-104255020D01*
X146087000Y-105353395D01*
X147185374Y-104255020D01*
X147065486Y-103970164D01*
X146741790Y-103809301D01*
X146392931Y-103714678D01*
X146032316Y-103689933D01*
X145673802Y-103736015D01*
X145331167Y-103851154D01*
X145108514Y-103970164D01*
X144988626Y-104255020D01*
X139410072Y-104255020D01*
X139410072Y-103726729D01*
X139641781Y-103495020D01*
X151338626Y-103495020D01*
X152437000Y-104593395D01*
X153535374Y-103495020D01*
X153415486Y-103210164D01*
X153091790Y-103049301D01*
X152742931Y-102954678D01*
X152382316Y-102929933D01*
X152023802Y-102976015D01*
X151681167Y-103091154D01*
X151458514Y-103210164D01*
X151338626Y-103495020D01*
X139641781Y-103495020D01*
X143202803Y-99933999D01*
X144775275Y-99933999D01*
X144748000Y-100071120D01*
X144748000Y-100334880D01*
X144799457Y-100593572D01*
X144900393Y-100837254D01*
X145046931Y-101056563D01*
X145233437Y-101243069D01*
X145452746Y-101389607D01*
X145696428Y-101490543D01*
X145955120Y-101542000D01*
X146218880Y-101542000D01*
X146477572Y-101490543D01*
X146721254Y-101389607D01*
X146940563Y-101243069D01*
X147127069Y-101056563D01*
X147273607Y-100837254D01*
X147374543Y-100593572D01*
X147426000Y-100334880D01*
X147426000Y-100071120D01*
X147374543Y-99812428D01*
X147273607Y-99568746D01*
X147127069Y-99349437D01*
X147062678Y-99285046D01*
X147288000Y-99059723D01*
X147288000Y-99064880D01*
X147339457Y-99323572D01*
X147440393Y-99567254D01*
X147586931Y-99786563D01*
X147773437Y-99973069D01*
X147992746Y-100119607D01*
X148194075Y-100203000D01*
X147992746Y-100286393D01*
X147773437Y-100432931D01*
X147586931Y-100619437D01*
X147440393Y-100838746D01*
X147339457Y-101082428D01*
X147288000Y-101341120D01*
X147288000Y-101604880D01*
X147339457Y-101863572D01*
X147440393Y-102107254D01*
X147586931Y-102326563D01*
X147773437Y-102513069D01*
X147992746Y-102659607D01*
X148236428Y-102760543D01*
X148495120Y-102812000D01*
X148758880Y-102812000D01*
X149017572Y-102760543D01*
X149261254Y-102659607D01*
X149480563Y-102513069D01*
X149667069Y-102326563D01*
X149813607Y-102107254D01*
X149914543Y-101863572D01*
X149966000Y-101604880D01*
X149966000Y-101341120D01*
X149914543Y-101082428D01*
X149813607Y-100838746D01*
X149667069Y-100619437D01*
X149480563Y-100432931D01*
X149261254Y-100286393D01*
X149059925Y-100203000D01*
X149261254Y-100119607D01*
X149480563Y-99973069D01*
X149667069Y-99786563D01*
X149813607Y-99567254D01*
X149914543Y-99323572D01*
X149966000Y-99064880D01*
X149966000Y-98801120D01*
X149914543Y-98542428D01*
X149813607Y-98298746D01*
X149667069Y-98079437D01*
X149480563Y-97892931D01*
X149287971Y-97764245D01*
X149332546Y-97680853D01*
X149376003Y-97537592D01*
X149379657Y-97500492D01*
X149480563Y-97433069D01*
X149667069Y-97246563D01*
X149813607Y-97027254D01*
X149914543Y-96783572D01*
X149966000Y-96524880D01*
X149966000Y-96261120D01*
X149914543Y-96002428D01*
X149813607Y-95758746D01*
X149667069Y-95539437D01*
X149480563Y-95352931D01*
X149261254Y-95206393D01*
X149059925Y-95123000D01*
X149261254Y-95039607D01*
X149480563Y-94893069D01*
X149667069Y-94706563D01*
X149813607Y-94487254D01*
X149914543Y-94243572D01*
X149966000Y-93984880D01*
X149966000Y-93721120D01*
X149914543Y-93462428D01*
X149813607Y-93218746D01*
X149667069Y-92999437D01*
X149480563Y-92812931D01*
X149261254Y-92666393D01*
X149017572Y-92565457D01*
X148758880Y-92514000D01*
X148495120Y-92514000D01*
X148236428Y-92565457D01*
X147992746Y-92666393D01*
X147773437Y-92812931D01*
X147586931Y-92999437D01*
X147440393Y-93218746D01*
X147339457Y-93462428D01*
X147288000Y-93721120D01*
X147288000Y-93984880D01*
X147339457Y-94243572D01*
X147440393Y-94487254D01*
X147586931Y-94706563D01*
X147773437Y-94893069D01*
X147992746Y-95039607D01*
X148194075Y-95123000D01*
X147992746Y-95206393D01*
X147773437Y-95352931D01*
X147586931Y-95539437D01*
X147440393Y-95758746D01*
X147339457Y-96002428D01*
X147288000Y-96261120D01*
X147288000Y-96524880D01*
X147339457Y-96783572D01*
X147361451Y-96836670D01*
X147231857Y-96966263D01*
X147127069Y-96809437D01*
X146940563Y-96622931D01*
X146721254Y-96476393D01*
X146519925Y-96393000D01*
X146721254Y-96309607D01*
X146940563Y-96163069D01*
X147127069Y-95976563D01*
X147273607Y-95757254D01*
X147374543Y-95513572D01*
X147426000Y-95254880D01*
X147426000Y-94991120D01*
X147374543Y-94732428D01*
X147273607Y-94488746D01*
X147127069Y-94269437D01*
X146940563Y-94082931D01*
X146721254Y-93936393D01*
X146519925Y-93853000D01*
X146721254Y-93769607D01*
X146940563Y-93623069D01*
X147127069Y-93436563D01*
X147273607Y-93217254D01*
X147374543Y-92973572D01*
X147426000Y-92714880D01*
X147426000Y-92451120D01*
X151348000Y-92451120D01*
X151348000Y-92714880D01*
X151399457Y-92973572D01*
X151500393Y-93217254D01*
X151646931Y-93436563D01*
X151833437Y-93623069D01*
X152052746Y-93769607D01*
X152254075Y-93853000D01*
X152052746Y-93936393D01*
X151833437Y-94082931D01*
X151646931Y-94269437D01*
X151500393Y-94488746D01*
X151399457Y-94732428D01*
X151348000Y-94991120D01*
X151348000Y-95254880D01*
X151399457Y-95513572D01*
X151500393Y-95757254D01*
X151646931Y-95976563D01*
X151833437Y-96163069D01*
X152052746Y-96309607D01*
X152254075Y-96393000D01*
X152052746Y-96476393D01*
X151833437Y-96622931D01*
X151646931Y-96809437D01*
X151500393Y-97028746D01*
X151399457Y-97272428D01*
X151348000Y-97531120D01*
X151348000Y-97794880D01*
X151399457Y-98053572D01*
X151500393Y-98297254D01*
X151646931Y-98516563D01*
X151833437Y-98703069D01*
X152052746Y-98849607D01*
X152254075Y-98933000D01*
X152052746Y-99016393D01*
X151833437Y-99162931D01*
X151646931Y-99349437D01*
X151500393Y-99568746D01*
X151399457Y-99812428D01*
X151348000Y-100071120D01*
X151348000Y-100334880D01*
X151399457Y-100593572D01*
X151500393Y-100837254D01*
X151646931Y-101056563D01*
X151833437Y-101243069D01*
X152052746Y-101389607D01*
X152296428Y-101490543D01*
X152555120Y-101542000D01*
X152818880Y-101542000D01*
X153077572Y-101490543D01*
X153321254Y-101389607D01*
X153540563Y-101243069D01*
X153727069Y-101056563D01*
X153873607Y-100837254D01*
X153974543Y-100593572D01*
X154026000Y-100334880D01*
X154026000Y-100071120D01*
X153974543Y-99812428D01*
X153873607Y-99568746D01*
X153727069Y-99349437D01*
X153540563Y-99162931D01*
X153321254Y-99016393D01*
X153119925Y-98933000D01*
X153321254Y-98849607D01*
X153540563Y-98703069D01*
X153727069Y-98516563D01*
X153873607Y-98297254D01*
X153974543Y-98053572D01*
X154026000Y-97794880D01*
X154026000Y-97531120D01*
X153974543Y-97272428D01*
X153873607Y-97028746D01*
X153727069Y-96809437D01*
X153540563Y-96622931D01*
X153321254Y-96476393D01*
X153119925Y-96393000D01*
X153321254Y-96309607D01*
X153540563Y-96163069D01*
X153727069Y-95976563D01*
X153873607Y-95757254D01*
X153974543Y-95513572D01*
X154026000Y-95254880D01*
X154026000Y-94991120D01*
X153974543Y-94732428D01*
X153873607Y-94488746D01*
X153727069Y-94269437D01*
X153540563Y-94082931D01*
X153321254Y-93936393D01*
X153119925Y-93853000D01*
X153321254Y-93769607D01*
X153393819Y-93721120D01*
X153888000Y-93721120D01*
X153888000Y-93984880D01*
X153939457Y-94243572D01*
X154040393Y-94487254D01*
X154186931Y-94706563D01*
X154373437Y-94893069D01*
X154592746Y-95039607D01*
X154794075Y-95123000D01*
X154592746Y-95206393D01*
X154373437Y-95352931D01*
X154186931Y-95539437D01*
X154040393Y-95758746D01*
X153939457Y-96002428D01*
X153888000Y-96261120D01*
X153888000Y-96524880D01*
X153939457Y-96783572D01*
X154040393Y-97027254D01*
X154186931Y-97246563D01*
X154373437Y-97433069D01*
X154592746Y-97579607D01*
X154794075Y-97663000D01*
X154592746Y-97746393D01*
X154373437Y-97892931D01*
X154186931Y-98079437D01*
X154040393Y-98298746D01*
X153939457Y-98542428D01*
X153888000Y-98801120D01*
X153888000Y-99064880D01*
X153939457Y-99323572D01*
X154040393Y-99567254D01*
X154186931Y-99786563D01*
X154373437Y-99973069D01*
X154592746Y-100119607D01*
X154794075Y-100203000D01*
X154592746Y-100286393D01*
X154373437Y-100432931D01*
X154186931Y-100619437D01*
X154040393Y-100838746D01*
X153939457Y-101082428D01*
X153888000Y-101341120D01*
X153888000Y-101604880D01*
X153939457Y-101863572D01*
X154040393Y-102107254D01*
X154186931Y-102326563D01*
X154373437Y-102513069D01*
X154592746Y-102659607D01*
X154836428Y-102760543D01*
X155095120Y-102812000D01*
X155358880Y-102812000D01*
X155617572Y-102760543D01*
X155861254Y-102659607D01*
X156069577Y-102520409D01*
X159317000Y-102520409D01*
X159317000Y-102965591D01*
X159403851Y-103402218D01*
X159574214Y-103813511D01*
X159821544Y-104183666D01*
X160136334Y-104498456D01*
X160506489Y-104745786D01*
X160917782Y-104916149D01*
X161354409Y-105003000D01*
X161799591Y-105003000D01*
X162236218Y-104916149D01*
X162647511Y-104745786D01*
X163017666Y-104498456D01*
X163261102Y-104255020D01*
X165048626Y-104255020D01*
X166147000Y-105353395D01*
X167245374Y-104255020D01*
X167125486Y-103970164D01*
X166801790Y-103809301D01*
X166452931Y-103714678D01*
X166092316Y-103689933D01*
X165733802Y-103736015D01*
X165391167Y-103851154D01*
X165168514Y-103970164D01*
X165048626Y-104255020D01*
X163261102Y-104255020D01*
X163332456Y-104183666D01*
X163579786Y-103813511D01*
X163750149Y-103402218D01*
X163837000Y-102965591D01*
X163837000Y-102520409D01*
X163750149Y-102083782D01*
X163579786Y-101672489D01*
X163332456Y-101302334D01*
X163017666Y-100987544D01*
X162647511Y-100740214D01*
X162236218Y-100569851D01*
X161799591Y-100483000D01*
X161354409Y-100483000D01*
X160917782Y-100569851D01*
X160506489Y-100740214D01*
X160136334Y-100987544D01*
X159821544Y-101302334D01*
X159574214Y-101672489D01*
X159403851Y-102083782D01*
X159317000Y-102520409D01*
X156069577Y-102520409D01*
X156080563Y-102513069D01*
X156267069Y-102326563D01*
X156413607Y-102107254D01*
X156514543Y-101863572D01*
X156566000Y-101604880D01*
X156566000Y-101341120D01*
X156514543Y-101082428D01*
X156413607Y-100838746D01*
X156267069Y-100619437D01*
X156080563Y-100432931D01*
X155861254Y-100286393D01*
X155659925Y-100203000D01*
X155861254Y-100119607D01*
X156080563Y-99973069D01*
X156267069Y-99786563D01*
X156413607Y-99567254D01*
X156514543Y-99323572D01*
X156566000Y-99064880D01*
X156566000Y-98801120D01*
X156514543Y-98542428D01*
X156413607Y-98298746D01*
X156267069Y-98079437D01*
X156080563Y-97892931D01*
X155861254Y-97746393D01*
X155659925Y-97663000D01*
X155861254Y-97579607D01*
X156080563Y-97433069D01*
X156267069Y-97246563D01*
X156413607Y-97027254D01*
X156514543Y-96783572D01*
X156566000Y-96524880D01*
X156566000Y-96261120D01*
X156514543Y-96002428D01*
X156413607Y-95758746D01*
X156267069Y-95539437D01*
X156080563Y-95352931D01*
X155861254Y-95206393D01*
X155659925Y-95123000D01*
X155861254Y-95039607D01*
X156080563Y-94893069D01*
X156267069Y-94706563D01*
X156413607Y-94487254D01*
X156514543Y-94243572D01*
X156566000Y-93984880D01*
X156566000Y-93721120D01*
X156514543Y-93462428D01*
X156413607Y-93218746D01*
X156267069Y-92999437D01*
X156080563Y-92812931D01*
X155861254Y-92666393D01*
X155617572Y-92565457D01*
X155358880Y-92514000D01*
X155095120Y-92514000D01*
X154836428Y-92565457D01*
X154592746Y-92666393D01*
X154373437Y-92812931D01*
X154186931Y-92999437D01*
X154040393Y-93218746D01*
X153939457Y-93462428D01*
X153888000Y-93721120D01*
X153393819Y-93721120D01*
X153540563Y-93623069D01*
X153727069Y-93436563D01*
X153873607Y-93217254D01*
X153974543Y-92973572D01*
X154026000Y-92714880D01*
X154026000Y-92451120D01*
X153974543Y-92192428D01*
X153873607Y-91948746D01*
X153727069Y-91729437D01*
X153540563Y-91542931D01*
X153321254Y-91396393D01*
X153077572Y-91295457D01*
X152818880Y-91244000D01*
X152555120Y-91244000D01*
X152296428Y-91295457D01*
X152052746Y-91396393D01*
X151833437Y-91542931D01*
X151646931Y-91729437D01*
X151500393Y-91948746D01*
X151399457Y-92192428D01*
X151348000Y-92451120D01*
X147426000Y-92451120D01*
X147374543Y-92192428D01*
X147273607Y-91948746D01*
X147127069Y-91729437D01*
X146940563Y-91542931D01*
X146721254Y-91396393D01*
X146477572Y-91295457D01*
X146218880Y-91244000D01*
X145955120Y-91244000D01*
X145696428Y-91295457D01*
X145452746Y-91396393D01*
X145233437Y-91542931D01*
X145046931Y-91729437D01*
X144900393Y-91948746D01*
X144799457Y-92192428D01*
X144748000Y-92451120D01*
X144748000Y-92714880D01*
X144799457Y-92973572D01*
X144900393Y-93217254D01*
X145046931Y-93436563D01*
X145233437Y-93623069D01*
X145452746Y-93769607D01*
X145654075Y-93853000D01*
X145452746Y-93936393D01*
X145233437Y-94082931D01*
X145046931Y-94269437D01*
X144900393Y-94488746D01*
X144799457Y-94732428D01*
X144748000Y-94991120D01*
X144748000Y-95254880D01*
X144799457Y-95513572D01*
X144900393Y-95757254D01*
X145046931Y-95976563D01*
X145233437Y-96163069D01*
X145452746Y-96309607D01*
X145654075Y-96393000D01*
X145452746Y-96476393D01*
X145233437Y-96622931D01*
X145046931Y-96809437D01*
X144900393Y-97028746D01*
X144799457Y-97272428D01*
X144748000Y-97531120D01*
X144748000Y-97794880D01*
X144799457Y-98053572D01*
X144900393Y-98297254D01*
X144978400Y-98413999D01*
X142925324Y-98413999D01*
X142888001Y-98410323D01*
X142850678Y-98413999D01*
X142850668Y-98413999D01*
X142739015Y-98424996D01*
X142595754Y-98468453D01*
X142463724Y-98539025D01*
X142380084Y-98607667D01*
X142348000Y-98633998D01*
X142324202Y-98662996D01*
X138335271Y-102651928D01*
X137072000Y-102651928D01*
X136947518Y-102664188D01*
X136827820Y-102700498D01*
X136717506Y-102759463D01*
X136620815Y-102838815D01*
X136541463Y-102935506D01*
X136482498Y-103045820D01*
X136460487Y-103118380D01*
X136328632Y-102986525D01*
X136085411Y-102824010D01*
X135815158Y-102712068D01*
X135528260Y-102655000D01*
X135235740Y-102655000D01*
X135015593Y-102698790D01*
X129461416Y-97144615D01*
X129462001Y-97141674D01*
X129462001Y-96859004D01*
X129425689Y-96676452D01*
X134814045Y-91288097D01*
X134948842Y-91343932D01*
X135235740Y-91401000D01*
X135528260Y-91401000D01*
X135815158Y-91343932D01*
X136085411Y-91231990D01*
X136328632Y-91069475D01*
X136460487Y-90937620D01*
X136482498Y-91010180D01*
X136541463Y-91120494D01*
X136620815Y-91217185D01*
X136717506Y-91296537D01*
X136827820Y-91355502D01*
X136947518Y-91391812D01*
X137072000Y-91404072D01*
X138772000Y-91404072D01*
X138896482Y-91391812D01*
X139016180Y-91355502D01*
X139126494Y-91296537D01*
X139223185Y-91217185D01*
X139302537Y-91120494D01*
X139361502Y-91010180D01*
X139397812Y-90890482D01*
X139410072Y-90766000D01*
X139410072Y-90560980D01*
X154638626Y-90560980D01*
X154758514Y-90845836D01*
X155082210Y-91006699D01*
X155431069Y-91101322D01*
X155791684Y-91126067D01*
X156069100Y-91090409D01*
X159317000Y-91090409D01*
X159317000Y-91535591D01*
X159403851Y-91972218D01*
X159574214Y-92383511D01*
X159821544Y-92753666D01*
X160136334Y-93068456D01*
X160506489Y-93315786D01*
X160917782Y-93486149D01*
X161354409Y-93573000D01*
X161799591Y-93573000D01*
X162236218Y-93486149D01*
X162647511Y-93315786D01*
X163017666Y-93068456D01*
X163332456Y-92753666D01*
X163579786Y-92383511D01*
X163750149Y-91972218D01*
X163837000Y-91535591D01*
X163837000Y-91090409D01*
X163750149Y-90653782D01*
X163579786Y-90242489D01*
X163332456Y-89872334D01*
X163261102Y-89800980D01*
X165048626Y-89800980D01*
X165168514Y-90085836D01*
X165492210Y-90246699D01*
X165841069Y-90341322D01*
X166201684Y-90366067D01*
X166560198Y-90319985D01*
X166902833Y-90204846D01*
X167125486Y-90085836D01*
X167245374Y-89800980D01*
X166147000Y-88702605D01*
X165048626Y-89800980D01*
X163261102Y-89800980D01*
X163017666Y-89557544D01*
X162647511Y-89310214D01*
X162236218Y-89139851D01*
X161799591Y-89053000D01*
X161354409Y-89053000D01*
X160917782Y-89139851D01*
X160506489Y-89310214D01*
X160136334Y-89557544D01*
X159821544Y-89872334D01*
X159574214Y-90242489D01*
X159403851Y-90653782D01*
X159317000Y-91090409D01*
X156069100Y-91090409D01*
X156150198Y-91079985D01*
X156492833Y-90964846D01*
X156715486Y-90845836D01*
X156835374Y-90560980D01*
X155737000Y-89462605D01*
X154638626Y-90560980D01*
X139410072Y-90560980D01*
X139410072Y-89800980D01*
X149048626Y-89800980D01*
X149168514Y-90085836D01*
X149492210Y-90246699D01*
X149841069Y-90341322D01*
X150201684Y-90366067D01*
X150560198Y-90319985D01*
X150902833Y-90204846D01*
X151125486Y-90085836D01*
X151245374Y-89800980D01*
X150147000Y-88702605D01*
X149048626Y-89800980D01*
X139410072Y-89800980D01*
X139410072Y-89066000D01*
X139397812Y-88941518D01*
X139361502Y-88821820D01*
X139302537Y-88711506D01*
X139223185Y-88614815D01*
X139126494Y-88535463D01*
X139016180Y-88476498D01*
X138896482Y-88440188D01*
X138772000Y-88427928D01*
X137072000Y-88427928D01*
X136947518Y-88440188D01*
X136827820Y-88476498D01*
X136717506Y-88535463D01*
X136620815Y-88614815D01*
X136541463Y-88711506D01*
X136482498Y-88821820D01*
X136460487Y-88894380D01*
X136328632Y-88762525D01*
X136085411Y-88600010D01*
X135815158Y-88488068D01*
X135528260Y-88431000D01*
X135235740Y-88431000D01*
X134948842Y-88488068D01*
X134678589Y-88600010D01*
X134435368Y-88762525D01*
X134228525Y-88969368D01*
X134066010Y-89212589D01*
X133954068Y-89482842D01*
X133897000Y-89769740D01*
X133897000Y-90055538D01*
X129432486Y-94520052D01*
X129462001Y-94371674D01*
X129462001Y-94089004D01*
X129406854Y-93811765D01*
X129298681Y-93550612D01*
X129141638Y-93315580D01*
X128941760Y-93115702D01*
X128706728Y-92958659D01*
X128561276Y-92898411D01*
X128827001Y-92898411D01*
X128951483Y-92886151D01*
X129071181Y-92849841D01*
X129181495Y-92790876D01*
X129278186Y-92711524D01*
X129357538Y-92614833D01*
X129416503Y-92504519D01*
X129452813Y-92384821D01*
X129465073Y-92260339D01*
X129465073Y-90660339D01*
X129452813Y-90535857D01*
X129416503Y-90416159D01*
X129357538Y-90305845D01*
X129278186Y-90209154D01*
X129181495Y-90129802D01*
X129071181Y-90070837D01*
X128951483Y-90034527D01*
X128827001Y-90022267D01*
X127227001Y-90022267D01*
X127102519Y-90034527D01*
X126982821Y-90070837D01*
X126872507Y-90129802D01*
X126775816Y-90209154D01*
X126696464Y-90305845D01*
X126637499Y-90416159D01*
X126601189Y-90535857D01*
X126588929Y-90660339D01*
X118008000Y-90660339D01*
X118008000Y-86347838D01*
X124939107Y-86347838D01*
X125155229Y-86714597D01*
X125615106Y-86955277D01*
X126113099Y-87101614D01*
X126630072Y-87147987D01*
X127146160Y-87092612D01*
X127641527Y-86937618D01*
X128058773Y-86714597D01*
X128274895Y-86347838D01*
X126607001Y-84679944D01*
X124939107Y-86347838D01*
X118008000Y-86347838D01*
X118008000Y-84523410D01*
X123959353Y-84523410D01*
X124014728Y-85039498D01*
X124169722Y-85534865D01*
X124392743Y-85952111D01*
X124759502Y-86168233D01*
X126427396Y-84500339D01*
X126786606Y-84500339D01*
X128454500Y-86168233D01*
X128821259Y-85952111D01*
X129061939Y-85492234D01*
X129208276Y-84994241D01*
X129254649Y-84477268D01*
X129199274Y-83961180D01*
X129044280Y-83465813D01*
X128821259Y-83048567D01*
X128454500Y-82832445D01*
X126786606Y-84500339D01*
X126427396Y-84500339D01*
X124759502Y-82832445D01*
X124392743Y-83048567D01*
X124152063Y-83508444D01*
X124005726Y-84006437D01*
X123959353Y-84523410D01*
X118008000Y-84523410D01*
X118008000Y-82652840D01*
X124939107Y-82652840D01*
X126607001Y-84320734D01*
X128274895Y-82652840D01*
X128058773Y-82286081D01*
X127598896Y-82045401D01*
X127100903Y-81899064D01*
X126583930Y-81852691D01*
X126067842Y-81908066D01*
X125572475Y-82063060D01*
X125155229Y-82286081D01*
X124939107Y-82652840D01*
X118008000Y-82652840D01*
X118008000Y-81686000D01*
X129896000Y-81686000D01*
X129896001Y-86835571D01*
G37*
%TD.AperFunction*%
%TD*%
M02*
