M48
; DRILL file {KiCad (5.1.10-1-10_14)} date Saturday, July 17, 2021 at 10:45:09 PM
; FORMAT={-:-/ absolute / metric / decimal}
; #@! TF.CreationDate,2021-07-17T22:45:09-07:00
; #@! TF.GenerationSoftware,Kicad,Pcbnew,(5.1.10-1-10_14)
; #@! TF.FileFunction,Plated,1,2,PTH
FMAT,2
METRIC
T1C0.900
T2C1.000
T3C1.600
T4C3.200
%
G90
G05
T1
X146.087Y-92.583
X146.087Y-95.123
X146.087Y-97.663
X146.087Y-100.203
X148.627Y-93.853
X148.627Y-96.393
X148.627Y-98.933
X148.627Y-101.473
X152.687Y-92.583
X152.687Y-95.123
X152.687Y-97.663
X152.687Y-100.203
X155.227Y-93.853
X155.227Y-96.393
X155.227Y-98.933
X155.227Y-101.473
T2
X125.187Y-92.845
X125.187Y-95.615
X125.187Y-98.385
X125.187Y-101.155
X128.027Y-91.46
X128.027Y-94.23
X128.027Y-97.0
X128.027Y-99.77
X128.027Y-102.54
X135.382Y-89.916
X135.382Y-104.14
X137.922Y-89.916
X137.922Y-104.14
T3
X146.087Y-105.533
X150.147Y-88.523
X152.437Y-104.773
X155.737Y-89.283
X166.147Y-88.523
X166.147Y-105.533
T4
X126.607Y-84.5
X126.607Y-109.5
T0
M30
